<?xml version="1.0" standalone="no"?>
<!DOCTYPE svg PUBLIC "-//W3C//DTD SVG 1.1//EN" "http://www.w3.org/Graphics/SVG/1.1/DTD/svg11.dtd" >
<svg xmlns="http://www.w3.org/2000/svg">
<metadata>Generated by IcoMoon</metadata>
<defs>
<font id="icomoon" horiz-adv-x="1024">
<font-face units-per-em="1024" ascent="960" descent="-64" />
<missing-glyph horiz-adv-x="1024" />
<glyph unicode="&#x20;" horiz-adv-x="512" d="" />
<glyph unicode="&#xe900;" glyph-name="bottom-arrow" d="M173.255 573.413c-16.662 16.661-16.662 43.678 0 60.339s43.677 16.661 60.34 0l250.823-250.825c16.661-16.661 43.678-16.661 60.339 0l250.825 250.825c16.661 16.661 43.678 16.661 60.339 0s16.661-43.678 0-60.339l-311.164-311.163c-16.661-16.663-43.678-16.663-60.339 0z" />
<glyph unicode="&#xe901;" glyph-name="chat" d="M254.749 928.013c-122.856 0-222.050-99.657-222.25-222.719l-0.499-307.812c-0.194-117.631 90.975-212.805 206.219-221.156v-192.312c0-0.007 0-0.016 0-0.025 0-8.837 7.164-16.002 16.002-16.002 4.432 0 8.444 1.802 11.341 4.713l0.001 0.001 201.531 202.031h302.688c122.856 0 222.219 99.633 222.219 222.719v307.812c-0.001 123.043-98.864 222.75-221.72 222.75zM352.031 599.326c26.32 0 47.969-21.682 47.969-48s-21.65-48-47.969-48-48 21.682-48 48c0 26.318 21.68 48 48 48zM511.999 599.326c26.32 0 48-21.682 48-48s-21.681-48-48-48c-26.319 0-48 21.682-48 48s21.68 48 48 48zM672.031 599.326c26.32 0 48-21.682 48-48s-21.681-48-48-48c-26.319 0-48.031 21.682-48.031 48s21.712 48 48.031 48z" />
<glyph unicode="&#xe902;" glyph-name="clock" d="M512 960c-282.312 0-512-229.688-512-512s229.688-512 512-512 512 229.688 512 512-229.688 512-512 512zM512 0c-247.032 0-448 200.968-448 448s200.968 448 448 448 448-200.968 448-448-200.968-448-448-448zM544 767.999h-64v-333.249l201.375-201.375 45.25 45.25-182.625 182.625z" />
<glyph unicode="&#xe903;" glyph-name="cloudy-day" d="M230.496 367.934c3.447-2.898 7.933-4.658 12.831-4.658 11.046 0 20 8.954 20 20 0 6.148-2.774 11.648-7.139 15.317l-0.031 0.025c-38.757 32.534-63.222 81.004-63.222 135.188 0 97.284 78.864 176.148 176.148 176.148s176.148-78.864 176.148-176.148c0-0.002 0-0.004 0-0.006v0c0-11.046 8.954-20 20-20s20 8.954 20 20v0c-0.002 119.374-96.774 216.145-216.148 216.145s-216.148-96.773-216.148-216.148c0-66.48 30.013-125.95 77.228-165.6l0.332-0.272zM369.086 795.784c11.046 0 20 8.954 20 20v0 67.11c0 11.046-8.954 20-20 20s-20-8.954-20-20v0-67.11c0-11.046 8.954-20 20-20v0zM210.778 768c3.507-6.085 9.976-10.115 17.386-10.115 11.046 0 20 8.954 20 20 0 3.729-1.020 7.219-2.797 10.207l0.051-0.092-33.554 58.12c-3.522 6.021-9.957 10-17.321 10-11.046 0-20-8.954-20-20 0-3.682 0.995-7.131 2.731-10.094l-0.051 0.094zM56.768 691.032l58.12-33.556c2.841-1.644 6.25-2.614 9.885-2.614 11.046 0 20 8.954 20 20 0 7.317-3.929 13.716-9.793 17.203l-0.092 0.051-58.12 33.556c-2.896 1.726-6.386 2.746-10.115 2.746-11.046 0-20-8.954-20-20 0-7.41 4.030-13.879 10.018-17.335l0.097-0.051zM107.112 533.8c0 11.046-8.954 20-20 20v0h-67.112c-11.046 0-20-8.954-20-20s8.954-20 20-20v0h67.112c11.046 0 20 8.954 20 20v0zM134.888 375.5c6.021 3.522 10 9.957 10 17.321 0 11.046-8.954 20-20 20-3.682 0-7.131-0.995-10.094-2.731l0.094 0.051-58.12-33.556c-6.085-3.507-10.115-9.976-10.115-17.386 0-11.046 8.954-20 20-20 3.729 0 7.219 1.020 10.207 2.797l-0.092-0.051zM500.074 760.686c2.871-1.69 6.325-2.688 10.011-2.688 7.363 0 13.795 3.981 17.264 9.907l0.051 0.094 33.554 58.12c1.644 2.841 2.614 6.25 2.614 9.885 0 11.046-8.954 20-20 20-7.317 0-13.716-3.929-17.203-9.793l-0.051-0.092-33.562-58.12c-1.683-2.867-2.676-6.315-2.676-9.994 0-7.363 3.979-13.797 9.904-17.268l0.094-0.051zM762.912 284.46c2.094 10.088 3.293 21.682 3.293 33.556 0 95.339-77.287 172.626-172.626 172.626-61.064 0-114.723-31.706-145.412-79.553l-0.413-0.688c-14.595 5.783-31.504 9.136-49.196 9.136-55.772 0-103.762-33.321-125.149-81.141l-0.347-0.869c-8.372 1.433-18.016 2.252-27.85 2.252-95.731 0-173.336-77.605-173.336-173.336s77.605-173.336 173.336-173.336c0.010 0 0.020 0 0.030 0h476.867c82.032 0.001 148.532 66.502 148.532 148.534 0 67.5-45.026 124.485-106.682 142.556l-1.050 0.264zM722.112 33.106h-476.872c-73.585 0.067-133.211 59.734-133.211 133.328 0 73.635 59.693 133.328 133.328 133.328 12.551 0 24.696-1.734 36.21-4.976l-0.939 0.226c1.588-0.453 3.412-0.714 5.296-0.714 9.114 0 16.804 6.096 19.215 14.433l0.035 0.141c11.878 41.113 49.176 70.67 93.378 70.67 17.538 0 33.989-4.653 48.186-12.792l-0.474 0.25c2.833-1.632 6.229-2.594 9.851-2.594 7.878 0 14.692 4.555 17.953 11.175l0.052 0.117c21.976 44.673 67.165 74.874 119.408 74.874 73.262 0 132.652-59.39 132.652-132.652 0-15.164-2.545-29.734-7.23-43.306l0.28 0.932c-0.668-1.91-1.053-4.112-1.053-6.404 0-10.172 7.594-18.57 17.421-19.835l0.1-0.010c53.841-6.948 95.014-52.505 95.014-107.678 0-59.935-48.587-108.522-108.522-108.522-0.032 0-0.065 0-0.097 0h0.005zM916.268 528.658c2.091 10.083 3.289 21.67 3.289 33.537 0 95.349-77.295 172.644-172.644 172.644-68.023 0-126.858-39.341-154.994-96.511l-0.451-1.014c-1.368-2.636-2.171-5.755-2.171-9.061 0-11.046 8.954-20 20-20 8.015 0 14.928 4.714 18.119 11.521l0.052 0.123c21.976 44.673 67.165 74.874 119.408 74.874 73.262 0 132.652-59.39 132.652-132.652 0-15.164-2.545-29.734-7.23-43.306l0.28 0.932c-0.667-1.91-1.053-4.112-1.053-6.404 0-10.173 7.595-18.571 17.423-19.836l0.1-0.010c53.841-6.948 95.014-52.505 95.014-107.678 0-59.935-48.587-108.522-108.522-108.522-0.032 0-0.065 0-0.097 0h0.005c-11.046 0-20-8.954-20-20s8.954-20 20-20v0c82.030 0.005 148.527 66.505 148.527 148.536 0 67.499-45.023 124.482-106.677 142.556l-1.050 0.264z" />
<glyph unicode="&#xe904;" glyph-name="computer" d="M165.944 510.924l59.866 62.352h149.52l-92.628-96.476 43.28-41.554 132.524 138.030h66.62v60h-66.62l-132.524 138.032-43.28-41.556 92.628-96.476h-149.52l-59.866 62.354-43.282-41.554 48.772-50.8-48.772-50.798zM1024 162v742h-1024v-742h382.584v-36c0-40.804-33.196-74-74-74h-87.25v-60h581.332v60h-87.25c-40.804 0-74 33.196-74 74v36zM964 844v-470h-904v470zM60 222v92h904v-92zM603.774 52h-183.55c14.112 21.22 22.358 46.662 22.358 74v36h138.832v-36c0.002-27.338 8.248-52.78 22.36-74zM620 753.944h260.666v-60h-260.666zM620 633.276h260.666v-60h-260.666zM620 512.61h260.666v-60h-260.666zM518 512.61h63.334v-60h-63.334zM518 753.944h63.334v-60h-63.334z" />
<glyph unicode="&#xe905;" glyph-name="coronavirus" d="M986.699 456.744c-12.11 2.373-24.413-0.108-34.653-6.988-8.481-5.699-14.705-13.854-17.942-23.365l-52.623 22.98c0.108 3.601 0.162 7.15 0.162 10.607 0 30.94-3.874 61.662-11.517 91.423l23.605 16.012c14.962-13.104 36.708-17.022 55.746-8.752 25.617 11.132 37.888 40.778 27.932 67.491l-11.112 29.822c-10.074 27.040-39.054 41.287-65.97 32.453-13.621-4.473-24.583-14.016-30.864-26.87-3.573-7.311-5.375-15.152-5.379-23.032l-26.78-3.739c-3.669 6.725-7.677 13.541-11.958 20.331-4.427 7.022-13.711 9.124-20.73 4.699-7.024-4.427-9.128-13.707-4.701-20.73 5.052-8.014 9.681-16.044 13.76-23.872 4.094-7.848 12.728-12.299 21.465-11.080l48.293 6.742c4.481 0.625 8.443 3.236 10.784 7.108s2.814 8.593 1.287 12.852c-2.074 5.78-1.729 12.002 0.966 17.521 2.689 5.503 7.389 9.589 13.235 11.509 11.339 3.719 24.082-2.735 28.425-14.391l11.112-29.822c4.301-11.541-0.968-24.742-11.746-29.427-10.317-4.481-22.465-0.639-28.271 8.934-2.134 3.521-5.623 6.012-9.645 6.89-4.022 0.88-8.232 0.064-11.641-2.247l-40.054-27.168c-7.431-5.038-10.814-14.251-8.417-22.924 8.040-29.112 12.116-59.305 12.116-89.736 0-4.986-0.126-10.196-0.371-15.489-0.399-8.621 4.637-16.73 12.529-20.174l75.094-32.794c4.176-1.826 8.956-1.655 12.99 0.459 4.038 2.114 6.896 5.946 7.774 10.419l2.381 12.124c0.83 4.226 3.257 7.878 6.832 10.281 3.573 2.403 7.87 3.271 12.098 2.439 8.727-1.711 14.435-10.204 12.723-18.93l-12.315-62.76c-0.858-4.369-3.397-8.094-7.152-10.491-3.752-2.395-8.212-3.12-12.559-2.058-8.216 2.018-13.497 10.818-11.772 19.619l0.329 1.677c0.886 4.527-0.355 9.21-3.367 12.703-3.012 3.497-7.495 5.429-12.068 5.202l-81.231-3.705c-8.599-0.391-16.204-6.158-18.922-14.359-7.525-22.722-17.513-44.676-29.689-65.249-4.535-7.659-3.739-17.371 1.978-24.164l35.936-42.692c2.669-3.172 6.531-5.098 10.667-5.329 4.138-0.224 8.19 1.263 11.19 4.118 8.056 7.661 20.301 8.317 29.118 1.569 4.774-3.651 7.836-8.942 8.629-14.898s-0.784-11.864-4.433-16.635l-10.413-13.609c-7.481-9.774-21.453-12.287-31.146-5.607-8.239 5.677-11.762 16.259-8.567 25.732 2.489 7.377-1.068 15.433-8.198 18.563l-51.768 22.738c-8.232 3.621-17.842 1.575-23.918-5.092-23.082-25.347-49.738-46.942-79.227-64.187-7.449-4.349-11.515-12.978-10.124-21.469l13.253-80.81c0.737-4.497 3.475-8.417 7.445-10.657s8.738-2.557 12.972-0.866l11.467 4.589c4.134 1.653 8.643 1.545 12.695-0.307 4.050-1.848 7.084-5.196 8.551-9.429 2.77-7.994-1.754-17.21-10.082-20.541l-58.561-23.427c-4.134-1.655-8.641-1.545-12.695 0.305-4.048 1.848-7.084 5.196-8.551 9.427-2.77 7.994 1.752 17.21 10.074 20.541l1.585 0.633c4.285 1.713 7.543 5.299 8.842 9.725 1.297 4.427 0.491 9.204-2.19 12.96l-47.245 66.197c-4.998 7.008-13.974 10.261-22.319 8.096-27.545-7.14-56.020-10.762-84.638-10.762-22.659 0-45.375 2.289-67.511 6.802-8.451 1.721-17.233-1.992-21.868-9.249l-47.289-74.167c-2.451-3.842-3.024-8.589-1.559-12.906 1.461-4.317 4.804-7.736 9.086-9.297l1.673-0.611c5.742-2.092 10.325-6.297 12.904-11.838 2.579-5.539 2.846-11.754 0.754-17.495-0.603-1.649-0.91-3.393-0.91-5.148 0-5.685-1.677-9.992-4.723-12.122-3.044-2.132-7.661-2.236-13.006-0.285l-58.092 21.182c-11.633 4.24-17.826 17.212-13.808 28.916 1.918 5.579 6.046 10.116 11.625 12.778 5.894 2.812 12.746 3.16 18.792 0.956l1.331-0.485c4.331-1.583 9.152-1.084 13.072 1.349 3.922 2.433 6.507 6.531 7.014 11.116l9.627 86.92c0.948 8.553-3.565 16.956-11.229 20.912-35.14 18.148-66.581 42.152-93.441 71.337-5.912 6.429-15.299 8.527-23.359 5.218l-70.892-29.072c-3.934-1.613-7-4.816-8.439-8.816-1.441-4-1.118-8.423 0.884-12.172 4.499-8.417 1.864-18.728-6.128-23.982-8.239-5.421-19.774-2.886-25.706 5.651l-18.158 26.138c-5.824 8.383-4.437 19.635 3.156 25.619 3.926 3.094 8.798 4.449 13.707 3.818 4.948-0.637 9.325-3.174 12.329-7.146 2.717-3.595 6.906-5.782 11.411-5.956 4.489-0.172 8.848 1.683 11.834 5.060l49.932 56.437c5.86 6.623 6.91 16.283 2.611 24.046-5.369 9.683-10.363 19.88-14.84 30.309-3.279 7.625-12.114 11.154-19.744 7.878-7.627-3.277-11.154-12.114-7.88-19.742 4.014-9.341 8.409-18.519 13.102-27.359l-35.764-40.427c-5.752 3.527-12.241 5.828-19.152 6.717-13 1.669-25.83-1.89-36.152-10.022-20.058-15.808-24.114-44.966-9.235-66.381l18.158-26.136c15.152-21.812 45.165-27.918 66.91-13.617 16.263 10.695 24.1 29.351 21.365 47.523l52.265 21.435c26.842-28.184 57.704-51.742 91.892-70.141l-7.15-64.563c-8.581 0.244-17.214-1.539-25.066-5.285-12.922-6.164-22.551-16.868-27.112-30.144-9.303-27.088 5.026-57.11 31.94-66.924l58.092-21.182c5.83-2.126 11.687-3.176 17.329-3.176 8.497 0 16.507 2.385 23.211 7.074 10.517 7.361 16.806 19.693 17.487 34.116 3.898 12.569 3.004 25.954-2.591 37.968-3.585 7.703-8.846 14.289-15.355 19.371l35.293 55.355c50.682-9.429 103.529-8.042 153.474 3.994l34.297-48.054c-13.499-12.216-19.106-31.441-12.912-49.325 4.184-12.070 12.874-21.633 24.469-26.93 11.435-5.22 24.677-5.537 36.347-0.872l58.563 23.427c23.399 9.361 35.401 34.966 27.321 58.291-4.182 12.070-12.872 21.635-24.467 26.932-9.513 4.345-20.287 5.297-30.359 2.8l-9.289 56.631c28.132 17.1 53.806 37.882 76.453 61.888l34.974-15.361c-0.978-17.966 7.353-35.752 22.645-46.291 23.066-15.894 54.726-10.579 72.076 12.092l10.413 13.609c8.531 11.148 12.21 24.952 10.359 38.868s-9.010 26.279-20.16 34.81c-16.267 12.447-37.501 14.122-54.986 5.507l-23.062 27.399c10.78 18.978 19.87 38.968 27.094 59.579l58.952 2.689c2.924-17.97 16.018-33.12 34.399-37.633 12.405-3.048 25.156-0.944 35.9 5.914 10.593 6.764 18.056 17.711 20.475 30.042l12.315 62.76c4.902 24.992-11.441 49.313-36.433 54.217zM96.838 416.144l56.337-13.012c1.226-7.834 2.743-15.788 4.527-23.722 1.569-6.99 7.774-11.742 14.651-11.74 1.090 0 2.198 0.12 3.307 0.369 8.098 1.82 13.19 9.858 11.371 17.958-2.070 9.226-3.752 18.467-4.994 27.465-1.184 8.563-7.625 15.621-16.024 17.559l-79.79 18.427c-4.435 1.024-9.108-0.020-12.685-2.84-3.579-2.822-5.685-7.114-5.725-11.671l-0.082-9.341c-0.094-10.457-8.677-18.966-19.136-18.966-4.98 0-9.655 1.948-13.16 5.485-3.507 3.539-5.413 8.228-5.369 13.208l0.521 57.964c0.046 5.315 2.305 10.515 6.194 14.267 3.655 3.527 8.275 5.419 13.154 5.275 10.152-0.269 18.369-8.758 18.313-18.924-0.026-4.603 2.060-8.966 5.661-11.836 3.601-2.872 8.323-3.934 12.8-2.88l79.229 18.577c8.393 1.968 14.806 9.044 15.962 17.609 5.846 43.353 19.912 84.565 41.806 122.497 4.417 7.659 3.547 17.323-2.174 24.048l-37.782 44.373c-2.954 3.467-7.297 5.415-11.878 5.281-4.555-0.132-8.806-2.323-11.555-5.956l-3.275-4.329c-2.447-3.234-6.014-5.269-10.046-5.731-4.018-0.461-7.968 0.721-11.1 3.331-5.92 4.932-6.717 14.259-1.778 20.79l25.166 33.275c4.886 6.459 14.116 7.742 20.575 2.854 6.048-4.573 7.597-13.164 3.529-19.559-2.361-3.713-2.976-8.273-1.683-12.479s4.363-7.635 8.399-9.381l52.832-22.85c8.19-3.545 17.752-1.489 23.792 5.124 24.052 26.347 51.932 48.599 82.874 66.139 7.495 4.253 11.673 12.822 10.399 21.331l-12.17 80.978c-0.677 4.507-3.365 8.463-7.303 10.756-3.942 2.295-8.711 2.675-12.958 1.040l-11.529-4.435c-4.156-1.595-8.661-1.429-12.687 0.475-4.024 1.902-7.014 5.291-8.423 9.541-2.663 8.032 1.98 17.184 10.355 20.405l58.87 22.643c4.156 1.599 8.661 1.429 12.687-0.475 4.024-1.902 7.016-5.291 8.425-9.541 2.661-8.032-1.982-17.184-10.357-20.407l-1.591-0.613c-4.305-1.657-7.611-5.198-8.968-9.607-1.355-4.409-0.613-9.196 2.018-12.986l46.345-66.81c4.902-7.066 13.822-10.439 22.196-8.389 26.12 6.397 53.138 9.641 80.337 9.641h0.008c8.868 0 16.818 5.589 19.782 13.9l15.345 42.938c1.377 3.852 1.124 8.1-0.701 11.76-1.824 3.661-5.060 6.423-8.966 7.643-11.174 3.495-18.283 14.469-16.904 26.092 0.735 6.184 3.984 11.814 9.146 15.852 5.421 4.24 12.357 6.19 19.040 5.347l21.074-2.653c13.659-1.719 23.609-13.802 22.18-26.932-1.104-10.136-8.2-18.357-18.078-20.942-7.234-1.894-11.978-8.82-11.126-16.251l5.333-46.529c1.016-8.88 7.577-16.138 16.333-18.064 33.571-7.375 65.742-19.874 95.608-37.144 7.481-4.329 17-3.583 23.691 1.848l63.585 51.613c3.539 2.872 5.581 7.194 5.557 11.752-0.026 4.555-2.116 8.856-5.683 11.689l-9.673 7.681c-3.487 2.768-5.631 6.735-6.036 11.174-0.403 4.431 0.996 8.727 3.944 12.1 5.565 6.375 15.808 7.020 22.838 1.443l49.399-39.221c3.487-2.768 5.631-6.735 6.036-11.172 0.403-4.431-0.996-8.727-3.944-12.102-5.567-6.371-15.816-7.016-22.834-1.445l-1.333 1.058c-3.615 2.872-8.349 3.922-12.832 2.852-4.489-1.070-8.237-4.142-10.166-8.333l-34.058-73.932c-3.601-7.82-1.968-17.223 4.058-23.397 2.136-2.188 4.247-4.453 6.758-7.18 5.621-6.108 15.13-6.501 21.239-0.878 6.106 5.623 6.499 15.13 0.878 21.239-1.062 1.156-2.062 2.238-3.032 3.275l24.736 53.696c17.305-5.659 36.776-0.988 49.227 13.267 8.405 9.621 12.397 21.912 11.239 34.607-1.14 12.517-7.439 24.174-17.281 31.986l-49.399 39.219c-19.738 15.669-47.922 13.387-64.167-5.208-8.405-9.621-12.397-21.912-11.239-34.607 0.95-10.417 5.469-20.241 12.635-27.746l-44.541-36.162c-29.098 16.17-60.128 28.237-92.401 35.934l-3.303 28.832c15.277 8.449 25.992 24.008 27.93 41.794 3.192 29.335-18.481 56.255-48.311 60.012l-21.074 2.653c-14.561 1.832-29.625-2.357-41.311-11.493-11.519-9.008-18.794-21.788-20.479-35.986-2.453-20.641 7.070-40.365 23.609-51.519l-8.703-24.351c-25.327-0.433-50.499-3.457-75.006-9.010l-33.635 48.489c13.657 12.032 19.523 31.18 13.569 49.144-4.022 12.126-12.583 21.806-24.106 27.257-11.363 5.373-24.601 5.868-36.331 1.357l-58.868-22.641c-23.525-9.046-35.868-34.489-28.098-57.922 4.020-12.126 12.579-21.806 24.104-27.257 9.455-4.471 20.206-5.567 30.319-3.204l8.529-56.75c-29.677-17.497-56.676-39.032-80.399-64.127l-33.934 14.675c2.758 16.066-3.381 33.098-17.024 43.419-9.533 7.21-21.299 10.283-33.142 8.633-11.84-1.641-22.331-7.798-29.539-17.331l-25.168-33.275c-14.728-19.467-11.868-46.71 6.509-62.018 9.509-7.922 21.499-11.511 33.772-10.1 7.738 0.888 15.088 3.812 21.305 8.347l22.768-26.744c-21.038-37.95-34.98-78.832-41.501-121.69l-58.159-13.637c-7.060 17.619-24.142 30.381-44.11 30.908-13 0.327-25.319-4.521-34.826-13.693-9.651-9.315-15.259-22.299-15.381-35.625l-0.521-57.968c-0.116-13.060 4.884-25.363 14.076-34.639s21.451-14.385 34.513-14.385c23.748-0.002 43.738 17.062 48.247 39.575zM440.807 498.191c7.333 3.886 10.128 12.984 6.241 20.319-3.886 7.331-12.98 10.132-20.321 6.241-35.918-19.038-76.858-14.006-97.333 11.974-11.489 14.573-15.441 33.886-11.128 54.377 4.521 21.487 17.451 41.549 36.407 56.489 18.952 14.942 41.481 22.818 63.427 22.209 20.932-0.591 38.786-8.944 50.277-23.519 17.251-21.886 17.032-54.553-0.559-83.225-4.341-7.076-2.126-16.331 4.952-20.671 7.074-4.341 16.329-2.124 20.669 4.95 24.253 39.527 23.679 85.67-1.457 117.556-17.1 21.695-43.038 34.11-73.032 34.956-28.986 0.842-58.413-9.355-82.886-28.647-24.477-19.293-41.243-45.541-47.215-73.906-6.18-29.363-0.164-57.483 16.936-79.177 18.006-22.842 46.201-34.858 76.533-34.856 19.325 0 39.515 4.874 58.489 14.932zM732.448 632.983c0 31.16-28.998 56.511-64.642 56.511s-64.644-25.351-64.644-56.511 29-56.511 64.644-56.511 64.642 25.351 64.642 56.511zM633.225 632.983c0 14.585 15.513 26.451 34.583 26.451 19.068 0 34.581-11.866 34.581-26.451s-15.513-26.451-34.581-26.451c-19.070 0-34.583 11.866-34.583 26.451zM558.028 374.663c0 38.189-31.068 69.257-69.257 69.257-38.191 0-69.259-31.068-69.259-69.257s31.068-69.257 69.259-69.257c38.189 0 69.257 31.068 69.257 69.257zM449.575 374.663c0 21.613 17.583 39.197 39.199 39.197 21.611 0 39.197-17.583 39.197-39.197s-17.583-39.197-39.197-39.197c-21.615 0-39.199 17.583-39.199 39.197zM753.969 402.914c0 29.698-24.16 53.858-53.858 53.858-29.696 0-53.856-24.16-53.856-53.858s24.16-53.858 53.856-53.858c29.698 0.002 53.858 24.16 53.858 53.858zM676.313 402.914c0 13.122 10.675 23.798 23.796 23.798s23.798-10.675 23.798-23.798-10.675-23.798-23.798-23.798c-13.118 0.002-23.796 10.675-23.796 23.798zM556.72 160.66c29.1 0 52.778 23.675 52.778 52.778 0 29.1-23.675 52.778-52.778 52.778s-52.78-23.675-52.78-52.778 23.675-52.778 52.78-52.778zM556.72 236.155c12.527 0 22.718-10.19 22.718-22.718s-10.19-22.718-22.718-22.718-22.72 10.19-22.72 22.718 10.192 22.718 22.72 22.718zM320.522 249.38c29.97 0 54.353 24.383 54.353 54.353s-24.383 54.353-54.353 54.353-54.353-24.383-54.353-54.353 24.383-54.353 54.353-54.353zM320.522 328.026c13.397 0 24.293-10.898 24.293-24.293s-10.898-24.293-24.293-24.293-24.293 10.898-24.293 24.293 10.898 24.293 24.293 24.293zM626.582 491.836c0 8.301-6.727 15.030-15.030 15.030h-13.287c-8.303 0-15.030-6.729-15.030-15.030s6.727-15.030 15.030-15.030h13.287c8.303 0 15.030 6.729 15.030 15.030zM420.893 214.079h13.651c8.303 0 15.030 6.729 15.030 15.030s-6.727 15.030-15.030 15.030h-13.651c-8.303 0-15.030-6.729-15.030-15.030s6.729-15.030 15.030-15.030zM294.35 432.962c8.303 0 15.030 6.729 15.030 15.030s-6.727 15.030-15.030 15.030h-13.15c-8.303 0-15.030-6.729-15.030-15.030s6.727-15.030 15.030-15.030zM561.299 695.923c8.303 0 15.030 6.729 15.030 15.030s-6.727 15.030-15.030 15.030h-18.301c-8.303 0-15.030-6.729-15.030-15.030s6.727-15.030 15.030-15.030zM661.283 293.070c-8.303 0-15.030-6.729-15.030-15.030s6.727-15.030 15.030-15.030h20.208c8.303 0 15.030 6.729 15.030 15.030s-6.727 15.030-15.030 15.030z" />
<glyph unicode="&#xe906;" glyph-name="engineer" d="M880 224h-128v73.984c57.296 33.264 96 95.136 96 166.016h8c30.88 0 56 25.12 56 56 0 15.344-6.24 29.408-16.672 39.68 7.216 9.424 12.608 20.288 15.056 32.32h17.616c17.648 0 32 14.352 32 32v32c0 17.648-14.352 32-32 32h-17.92c-11.248 99.68-75.568 172.208-175.552 197.936l1.248 7.44c0.16 0.864 0.224 1.744 0.224 2.624 0 17.648-14.352 32-32 32h-96c-17.648 0-32-14.352-32-32 0-0.88 0.064-1.76 0.224-2.624l1.392-8.368c-100.064-25.696-164.448-97.888-175.696-197.008h-17.92c-17.648 0-32-14.352-32-32v-32c0-17.648 14.352-32 32-32h17.616c2.448-12.032 7.856-22.896 15.056-32.32-10.432-10.272-16.672-24.336-16.672-39.68 0-30.88 25.12-56 56-56h8c0-70.88 38.704-132.768 96-166.016v-73.984h-128c-12.816 0-25.376-2.16-37.344-6.384l0.448-1.28-23.904-17.936 76.8-102.4h-27.344l-172.064 109.504-17.184-27.008 29.072-18.496h-196.48v25.376l22.624 22.624h89.376c8.832 0 16 7.152 16 16v48h320v32h-73.792l24.976 74.944c1.632 4.88 0.8 10.256-2.208 14.416s-7.84 6.64-12.976 6.64h-64c-3.152 0-6.256-0.944-8.88-2.688l-139.968-93.312h-91.152c-4.24 0-8.32-1.68-11.312-4.688l-96-96c-3.008-2.992-4.688-7.056-4.688-11.312v-48c0-8.848 7.168-16 16-16h262.768l10.032-6.384c-0.272-3.216-0.8-6.384-0.8-9.616v-128c0-8.848 7.168-16 16-16h640c8.832 0 16 7.152 16 16v128c0 61.744-50.24 112-112 112zM388.848 368h36.96l-21.328-64h-111.632zM150.624 272h9.376v-32h-41.376zM569.76 192c24.224-22.24 54.928-33.536 85.872-33.536 30.832 0 61.744 11.248 86.496 33.536h14.304l-100.432-175.744-100.432 175.744zM793.28 192h54.72v-192h-164.432zM856 496h-8v33.616c8.272 1.68 15.904 4.96 23.040 8.992 5.584-4.464 8.96-11.216 8.96-18.608 0-13.232-10.768-24-24-24zM582.88 853.392l9.328-56.016 31.568 5.248-15.552 93.376h95.568l-15.568-93.376 31.568-5.248 9.488 56.944c84.848-22.64 138.032-82.128 148.704-166.32h-443.952c10.688 83.632 63.92 142.768 148.848 165.392zM384 656h544l0.016-32h-544.016zM877.264 592c-6.608-18.624-24.4-32-45.264-32h-352c-20.864 0-38.656 13.376-45.264 32zM456 496c-13.232 0-24 10.768-24 24 0 7.392 3.376 14.144 8.96 18.608 7.136-4.032 14.768-7.312 23.040-8.992v-33.616zM496 464v64h320v-64c0-88.224-71.776-160-160-160s-160 71.776-160 160zM656 272c22.464 0 43.952 4.080 64 11.2v-68.384c-36-32.368-90.848-32.608-128 0.112v68.272c20.048-7.12 41.536-11.2 64-11.2zM417.104 190.512c4.88 0.928 9.84 1.488 14.896 1.488h86.72l109.712-192h-164.432v64h16c6.064 0 11.6 3.424 14.32 8.848s2.128 11.904-1.52 16.752zM352 101.76l55.408-35.264c2.576-1.616 5.552-2.496 8.592-2.496h16v-64h-80zM960 0h-80v192c44.112 0 80-35.888 80-80zM576 524c-15.44 0-28-12.56-28-28s12.56-28 28-28 28 12.56 28 28-12.56 28-28 28zM572 496c0 2.208 1.792 4 4 4s4-1.792 4-4c0-4.4-8-4.4-8 0zM736 468c15.44 0 28 12.56 28 28s-12.56 28-28 28-28-12.56-28-28 12.56-28 28-28zM736 500c2.208 0 4-1.792 4-4 0-4.4-8-4.4-8 0 0 2.208 1.792 4 4 4zM716 400h-24c0-19.84-16.144-36-36-36s-36 16.16-36 36h-24c0-33.072 26.912-60 60-60s60 26.928 60 60zM240 256h32v-32h-32zM304 256h32v-32h-32zM64 544c-17.648 0-32-14.352-32-32v-32c0-17.648 14.352-32 32-32h1.424l3.12-7.552-1.008-1.008c-12.464-12.48-12.464-32.784 0-45.264l22.64-22.624c12.464-12.464 32.768-12.464 45.264 0l1.008 1.008 7.552-3.12v-1.44c0-17.648 14.352-32 32-32h32c17.648 0 32 14.352 32 32v1.44l7.552 3.12 1.008-1.008c12.464-12.464 32.784-12.464 45.248 0l22.64 22.624c12.464 12.48 12.464 32.784-0.016 45.264l-1.008 1.008 3.152 7.552h1.424c17.648 0 32 14.352 32 32v32c0 17.648-14.352 32-32 32h-1.424l-3.12 7.552 1.008 1.008c12.464 12.48 12.464 32.784 0 45.264l-22.64 22.624c-12.464 12.464-32.768 12.464-45.264 0l-1.008-1.008-7.536 3.12-0.016 1.44c4.144 0 8.224 1.6 11.312 4.688l64 64c4.864 4.88 6.080 12.32 3.008 18.464l-48 96c-2.72 5.424-8.256 8.848-14.32 8.848h-16v112h-32v-128c0-8.848 7.168-16 16-16h22.112l38.416-76.848-13.552-13.552c-0.432 1.136-0.992 2.24-1.664 3.264l-32 48c-2.976 4.464-7.968 7.136-13.312 7.136h-64c-5.344 0-10.336-2.672-13.312-7.12l-32-48c-0.688-1.024-1.248-2.128-1.664-3.264l-13.552 13.552 38.416 76.832h22.112c8.832 0 16 7.152 16 16v128h-32v-112h-16c-6.064 0-11.6-3.424-14.32-8.848l-48-96c-3.072-6.16-1.872-13.6 3.008-18.464l64-64c3.088-3.088 7.184-4.496 11.328-4.496 0-0.064-0.016-0.128-0.016-0.192v-1.44l-7.552-3.12-1.008 1.008c-12.464 12.464-32.784 12.464-45.248 0l-22.64-22.624c-12.464-12.48-12.464-32.784 0.016-45.264l1.008-1.008-3.152-7.552zM168.56 720h46.88l22.912-34.352-11.872-35.6c-5.232 3.712-11.584 5.952-18.48 5.952h-32c-6.896 0-13.248-2.24-18.48-5.968l-11.872 35.6zM76.112 512c6.464 0 12.304 3.904 14.784 9.872l11.312 27.312c2.48 5.984 1.104 12.88-3.472 17.44l-8.56 8.576 22.624 22.624 8.576-8.576c4.592-4.576 11.472-5.904 17.456-3.472l27.296 11.312c5.968 2.48 9.872 8.32 9.872 14.784v12.128h32v-12.128c0-6.464 3.904-12.32 9.888-14.784l27.296-11.312c5.984-2.432 12.864-1.104 17.456 3.472l8.56 8.576 22.64-22.64-8.56-8.56c-4.592-4.56-5.952-11.456-3.472-17.44l11.312-27.312c2.464-5.968 8.288-9.872 14.768-9.872h12.112v-32h-12.112c-6.464 0-12.304-3.904-14.784-9.872l-11.312-27.312c-2.48-5.984-1.104-12.88 3.472-17.44l8.56-8.576-22.624-22.624-8.576 8.576c-4.592 4.592-11.488 5.984-17.44 3.472l-27.312-11.312c-5.968-2.48-9.872-8.32-9.872-14.784v-12.128h-32v12.128c0 6.464-3.904 12.32-9.888 14.784l-27.312 11.312c-1.984 0.832-4.048 1.216-6.112 1.216-4.16 0-8.256-1.632-11.328-4.688l-8.56-8.576-22.64 22.64 8.56 8.56c4.592 4.56 5.952 11.456 3.472 17.44l-11.312 27.312c-2.464 5.968-8.288 9.872-14.768 9.872h-12.112v32zM192 416c44.112 0 80 35.888 80 80s-35.888 80-80 80-80-35.888-80-80 35.888-80 80-80zM192 544c26.464 0 48-21.536 48-48s-21.536-48-48-48-48 21.536-48 48 21.536 48 48 48z" />
<glyph unicode="&#xe907;" glyph-name="facebook" d="M682.539 789.973h93.483v162.816c-16.128 2.219-71.595 7.211-136.192 7.211-134.784 0-227.115-84.779-227.115-240.597v-143.403h-148.736v-182.016h148.736v-457.984h182.357v457.941h142.72l22.656 182.016h-165.419v125.397c0.043 52.608 14.208 88.619 87.509 88.619z" />
<glyph unicode="&#xe908;" glyph-name="interest" d="M704 80h-256c-7.6 0-14.704-1.936-21.104-5.104 3.168 6.4 5.104 13.504 5.104 21.104v32c0 12.336-4.816 23.488-12.48 32 7.68 8.512 12.48 19.664 12.48 32v32c0 26.464-21.536 48-48 48h-8.784c33.296 19.152 61.536 46 82.336 78.192 60.416-50.368 135.696-78.192 214.448-78.192 185.28 0 336 150.736 336 336 0 185.28-150.72 336-336 336-151.552 0-281.296-99.024-322.448-242.992-28.768 12.224-60.384 18.992-93.552 18.992-132.336 0-240-107.664-240-240 0-88.928 48.736-166.544 120.784-208h-8.784c-26.464 0-48-21.536-48-48v-32c0-12.336 4.816-23.488 12.48-32-7.664-8.512-12.48-19.664-12.48-32v-32c0-12.336 4.816-23.488 12.48-32-7.664-8.512-12.48-19.664-12.48-32v-32c0-26.464 21.536-48 48-48h256c12.336 0 23.488 4.816 32 12.48 8.512-7.68 19.664-12.48 32-12.48h256c26.464 0 48 21.536 48 48v32c0 26.464-21.536 48-48 48zM128 80c-8.816 0-16 7.168-16 16v32c0 8.832 7.184 16 16 16h16v-32h32v32h32v-32h32v32h32v-32h32v32h32v-32h32v32h16c8.816 0 16-7.168 16-16v-32c0-8.832-7.184-16-16-16zM672 912c167.632 0 304-136.368 304-304s-136.368-304-304-304c-73.296 0-143.28 26.64-198.688 74.784 14.4 30.8 22.688 65.024 22.688 101.216 0 87.504-47.232 164-117.392 205.936 35.232 133.616 154.112 226.064 293.392 226.064zM48 480c0 114.688 93.312 208 208 208s208-93.312 208-208-93.312-208-208-208-208 93.312-208 208zM112 224c0 8.832 7.184 16 16 16h16v-32h32v32h32v-32h32v32h32v-32h32v32h32v-32h32v32h16c8.816 0 16-7.168 16-16v-32c0-8.832-7.184-16-16-16h-256c-8.816 0-16 7.168-16 16zM384-16h-256c-8.816 0-16 7.168-16 16v32c0 8.832 7.184 16 16 16h16v-32h32v32h32v-32h32v32h32v-32h32v32h32v-32h32v32h16c8.816 0 16-7.168 16-16v-32c0-8.832-7.184-16-16-16zM720 0c0-8.832-7.184-16-16-16h-256c-8.816 0-16 7.168-16 16v32c0 8.832 7.184 16 16 16h16v-32h32v32h32v-32h32v32h32v-32h32v32h32v-32h32v32h16c8.816 0 16-7.168 16-16zM272 528c8.816 0 16-7.184 16-16h32c0 26.464-21.536 48-48 48v32h-32v-32h-48v-48c0-26.464 21.536-48 48-48h32c8.816 0 16-7.184 16-16v-16h-48c-8.816 0-16 7.184-16 16h-32c0-26.464 21.536-48 48-48v-32h32v32h48v48c0 26.464-21.536 48-48 48h-32c-8.816 0-16 7.184-16 16v16zM256 656c-97.040 0-176-78.96-176-176s78.96-176 176-176 176 78.96 176 176-78.96 176-176 176zM256 336c-79.392 0-144 64.592-144 144 0 79.392 64.608 144 144 144s144-64.608 144-144c0-79.408-64.608-144-144-144zM612 840.448l-8 30.976c-83.104-21.392-151.984-81.744-184.224-161.424l29.664-12c28.464 70.32 89.232 123.568 162.56 142.448zM672 848v32c-11.376 0-22.816-0.704-33.984-2.112l3.968-31.744c9.872 1.232 19.968 1.856 30.016 1.856zM792 400.096l16.032-27.68c83.872 48.512 135.968 138.784 135.968 235.584h-32c0-85.408-45.984-165.072-120-207.904zM732 375.568l7.984-31.008c11.552 2.992 22.992 6.752 34.016 11.216l-12.016 29.664c-9.696-3.92-19.792-7.248-29.984-9.872zM672 368v-32c11.376 0 22.816 0.704 33.984 2.112l-3.968 31.744c-9.872-1.232-19.968-1.856-30.016-1.856zM816 528c0 35.296-28.704 64-64 64s-64-28.704-64-64 28.704-64 64-64 64 28.704 64 64zM720 528c0 17.648 14.352 32 32 32s32-14.352 32-32-14.352-32-32-32-32 14.352-32 32zM528 688c0-35.296 28.704-64 64-64s64 28.704 64 64-28.704 64-64 64-64-28.704-64-64zM624 688c0-17.648-14.352-32-32-32s-32 14.352-32 32 14.352 32 32 32 32-14.352 32-32zM500.602 459.306l319.949 319.949 22.624-22.624-319.949-319.949zM720 240h224v-32h-224zM720 176h224v-32h-224zM848 112h32v-32h-32zM912 112h32v-32h-32zM784 112h32v-32h-32z" />
<glyph unicode="&#xe909;" glyph-name="left-arrow" d="M640 789.333c16.661 16.662 43.678 16.662 60.339 0s16.661-43.677 0-60.34l-250.825-250.823c-16.661-16.661-16.661-43.678 0-60.339l250.825-250.825c16.661-16.661 16.661-43.678 0-60.339s-43.678-16.661-60.339 0l-311.163 311.164c-16.663 16.661-16.663 43.678 0 60.339z" />
<glyph unicode="&#xe90a;" glyph-name="left-big-arrow" d="M938.667 490.667h-750.336l225.835 225.835c8.036 7.769 13.026 18.647 13.026 30.69 0 23.564-19.103 42.667-42.667 42.667-12.043 0-22.92-4.989-30.678-13.014l-298.679-298.679c-7.718-7.721-12.492-18.386-12.492-30.165s4.774-22.445 12.492-30.165l298.667-298.667c7.665-7.41 18.12-11.977 29.641-11.977 23.564 0 42.667 19.103 42.667 42.667 0 11.521-4.567 21.976-11.989 29.653l-225.823 225.823h750.336c23.564 0 42.667 19.103 42.667 42.667s-19.103 42.667-42.667 42.667v0z" />
<glyph unicode="&#xe90b;" glyph-name="linkedin" d="M921.6 38.4v300.032c0 147.456-31.744 260.096-203.776 260.096-82.944 0-138.24-45.056-160.768-88.064h-2.048v74.752h-162.816v-546.816h169.984v271.36c0 71.68 13.312 140.288 101.376 140.288 87.040 0 88.064-80.896 88.064-144.384v-266.24h169.984zM115.712 585.216h169.984v-546.816h-169.984zM200.704 857.6c-54.272 0-98.304-44.032-98.304-98.304s44.032-99.328 98.304-99.328 98.304 45.056 98.304 99.328-44.032 98.304-98.304 98.304z" />
<glyph unicode="&#xe90c;" glyph-name="map" d="M513.961 879.99c-11.060 0.080-20.080-8.82-20.16-19.86s8.8-20.060 19.86-20.14c11.040-0.080 20.060 8.8 20.14 19.84s-8.8 20.060-19.84 20.16zM513.051 759.992c-77.222 0.548-140.464-61.75-141.048-138.948-0.582-77.194 61.75-140.466 138.948-141.048 0.358-0.002 0.714-0.004 1.072-0.004 76.706 0 139.396 62.112 139.976 138.952 0.582 77.19-61.748 140.466-138.948 141.048zM512.019 519.989c-0.252 0-0.516 0.002-0.768 0.004-55.142 0.416-99.666 45.612-99.25 100.75 0.414 54.89 45.19 99.254 99.982 99.254 0.252 0 0.516-0.002 0.768-0.004 55.142-0.416 99.666-45.612 99.25-100.75-0.416-54.89-45.19-99.254-99.982-99.254zM599.263 864.822c-10.404 3.692-21.842-1.758-25.534-12.17-3.69-10.412 1.76-21.842 12.17-25.534 88.094-31.222 146.804-115.124 146.1-208.778-0.082-11.044 8.804-20.066 19.85-20.15 0.050 0 0.102 0 0.154 0 10.972 0 19.912 8.856 19.996 19.85 0.832 110.694-68.586 209.868-172.736 246.782zM634.715 207.115c133.026 171.23 216.16 260.521 217.282 410.329 1.408 188.486-151.556 342.557-340.029 342.557-186.272 0-338.549-150.856-339.965-337.457-1.144-153.87 83.534-243.038 217.478-415.401-133.25-19.912-217.478-69.946-217.478-131.144 0-40.994 37.892-77.78 106.698-103.58 62.626-23.484 145.48-36.418 233.298-36.418s170.672 12.934 233.298 36.418c68.806 25.802 106.698 62.588 106.698 103.582 0 61.164-84.15 111.186-217.282 131.114zM212.002 622.241c1.248 164.658 135.598 297.759 299.971 297.759 166.318 0 301.267-135.976 300.027-302.259-1.064-142.268-89.228-229.942-229.982-413.429-25.106-32.712-48.162-63.64-69.986-93.894-21.76 30.272-44.356 60.646-69.838 93.906-146.572 191.168-231.274 272.217-230.19 417.917zM512.001-24.002c-171.702 0-299.999 52.794-299.999 100 0 35.008 76.696 79.232 205.652 94.546 28.506-37.402 53.498-71.382 78.010-106.086 3.744-5.3 9.828-8.456 16.318-8.46 0.006 0 0.012 0 0.018 0 6.484 0 12.566 3.144 16.316 8.434 24.28 34.252 49.956 69.070 78.218 106.090 128.836-15.33 205.464-59.54 205.464-94.526-0.002-47.204-128.296-99.998-299.999-99.998z" />
<glyph unicode="&#xe90d;" glyph-name="pause" d="M512 960c-282.313 0-512-229.687-512-512s229.687-512 512-512 512 229.687 512 512-229.687 512-512 512zM448 256h-128v384h128zM704 256h-128v384h128z" />
<glyph unicode="&#xe90e;" glyph-name="phone" d="M809.283 325.668c-20.964 21.828-46.25 33.499-73.049 33.499-26.583 0-52.085-11.454-73.914-33.283l-68.295-68.078c-5.619 3.026-11.238 5.835-16.641 8.645-7.78 3.89-15.129 7.564-21.396 11.454-63.972 40.631-122.109 93.581-177.869 162.092-27.015 34.147-45.17 62.892-58.353 92.068 17.722 16.209 34.147 33.067 50.14 49.276 6.051 6.051 12.103 12.319 18.154 18.37 45.386 45.386 45.386 104.171 0 149.557l-59.001 59.001c-6.7 6.7-13.616 13.616-20.099 20.532-12.967 13.4-26.583 27.231-40.631 40.199-20.964 20.748-46.034 31.77-72.401 31.77s-51.869-11.022-73.482-31.77c-0.216-0.216-0.216-0.216-0.432-0.432l-73.482-74.13c-27.664-27.664-43.441-61.379-46.899-100.497-5.187-63.108 13.4-121.893 27.664-160.363 35.012-94.445 87.313-181.975 165.333-275.772 94.662-113.032 208.558-202.29 338.664-265.182 49.708-23.557 116.058-51.437 190.188-56.192 4.539-0.216 9.293-0.432 13.616-0.432 49.924 0 91.852 17.938 124.703 53.598 0.216 0.432 0.648 0.648 0.864 1.081 11.238 13.616 24.206 25.935 37.821 39.118 9.293 8.861 18.803 18.154 28.096 27.88 21.396 22.261 32.634 48.195 32.634 74.778 0 26.799-11.454 52.518-33.283 74.13l-118.651 119.083zM886.654 98.092c-0.216 0-0.216-0.216 0 0-8.429-9.077-17.074-17.29-26.367-26.367-14.048-13.4-28.312-27.448-41.712-43.224-21.828-23.341-47.547-34.363-81.262-34.363-3.242 0-6.7 0-9.942 0.216-64.188 4.106-123.838 29.176-168.575 50.573-122.325 59.217-229.738 143.289-318.996 249.837-73.698 88.826-122.974 170.953-155.608 259.131-20.099 53.814-27.448 95.742-24.206 135.293 2.161 25.286 11.887 46.25 29.825 64.188l73.698 73.698c10.59 9.942 21.828 15.345 32.851 15.345 13.616 0 24.638-8.213 31.554-15.129 0.216-0.216 0.432-0.432 0.648-0.648 13.183-12.319 25.719-25.070 38.902-38.686 6.7-6.916 13.616-13.832 20.532-20.964l59.001-59.001c22.909-22.909 22.909-44.089 0-66.998-6.268-6.268-12.319-12.535-18.587-18.587-18.154-18.587-35.444-35.876-54.247-52.734-0.432-0.432-0.864-0.648-1.081-1.081-18.587-18.587-15.129-36.741-11.238-49.060 0.216-0.648 0.432-1.297 0.648-1.945 15.345-37.173 36.957-72.185 69.807-113.896l0.216-0.216c59.65-73.482 122.541-130.754 191.917-174.627 8.861-5.619 17.938-10.158 26.583-14.48 7.78-3.89 15.129-7.564 21.396-11.454 0.864-0.432 1.729-1.081 2.593-1.513 7.348-3.674 14.264-5.403 21.396-5.403 17.938 0 29.176 11.238 32.851 14.912l73.914 73.914c7.348 7.348 19.019 16.209 32.634 16.209 13.4 0 24.422-8.429 31.122-15.777 0.216-0.216 0.216-0.216 0.432-0.432l119.083-119.083c22.261-22.044 22.261-44.737 0.216-67.646zM553.394 716.417c56.624-9.509 108.061-36.309 149.124-77.372s67.646-92.5 77.372-149.124c2.377-14.264 14.696-24.206 28.744-24.206 1.729 0 3.242 0.216 4.971 0.432 15.993 2.593 26.583 17.722 23.99 33.715-11.671 68.511-44.089 130.97-93.581 180.462s-111.951 81.91-180.462 93.581c-15.993 2.593-30.905-7.997-33.715-23.773s7.564-31.122 23.557-33.715zM1022.811 508.292c-19.235 112.816-72.401 215.474-154.095 297.168s-184.352 134.86-297.168 154.095c-15.777 2.81-30.689-7.997-33.499-23.773-2.593-15.993 7.997-30.905 23.99-33.715 100.713-17.074 192.565-64.837 265.614-137.67 73.049-73.049 120.596-164.901 137.67-265.614 2.377-14.264 14.696-24.206 28.744-24.206 1.729 0 3.242 0.216 4.971 0.432 15.777 2.377 26.583 17.506 23.773 33.283z" />
<glyph unicode="&#xe90f;" glyph-name="plane" d="M512 899c33.975 0 56.625-57.76 56.625-101.925v-220.838l328.425-232.162v-101.925l-328.425 164.212v-246.886l113.25-98.526v-67.95l-169.875 67.95-169.875-67.95v67.95l113.25 98.526v246.886l-328.425-164.212v101.925l328.425 232.162v220.838c0 44.165 23.783 101.925 56.625 101.925z" />
<glyph unicode="&#xe910;" glyph-name="play" d="M512 960c-282.77 0-512-229.23-512-512s229.23-512 512-512 512 229.23 512 512-229.23 512-512 512zM372.106 225.31v445.38l385.71-222.69-385.71-222.69z" />
<glyph unicode="&#xe911;" glyph-name="right-arrow" d="M389.175 106.667c-16.661-16.662-43.678-16.662-60.339 0s-16.661 43.677 0 60.34l250.825 250.823c16.661 16.661 16.661 43.678 0 60.339l-250.825 250.825c-16.661 16.661-16.661 43.678 0 60.339s43.678 16.661 60.339 0l311.163-311.164c16.663-16.661 16.663-43.678 0-60.339z" />
<glyph unicode="&#xe912;" glyph-name="right-big-arrow" d="M968.832 478.165l-298.667 298.667c-7.665 7.41-18.12 11.977-29.641 11.977-23.564 0-42.667-19.103-42.667-42.667 0-11.521 4.567-21.976 11.989-29.653l225.823-225.823h-750.336c-23.564 0-42.667-19.103-42.667-42.667s19.103-42.667 42.667-42.667v0h750.336l-225.835-225.835c-8.036-7.769-13.026-18.647-13.026-30.69 0-23.564 19.103-42.667 42.667-42.667 12.043 0 22.92 4.989 30.678 13.014l298.679 298.679c7.718 7.721 12.492 18.386 12.492 30.165s-4.774 22.445-12.492 30.165v0z" />
<glyph unicode="&#xe913;" glyph-name="right-plane" d="M965 446c0-33.975-57.76-56.625-101.925-56.625h-220.838l-232.162-328.425h-101.925l164.212 328.425h-246.886l-98.526-113.25h-67.95l67.95 169.875-67.95 169.875h67.95l98.526-113.25h246.886l-164.212 328.425h101.925l232.162-328.425h220.838c44.165 0 101.925-23.783 101.925-56.625z" />
<glyph unicode="&#xe914;" glyph-name="search" d="M991.284 27.298l-243.714 253.474c62.663 74.491 96.997 168.216 96.997 265.788 0 227.967-185.473 413.44-413.44 413.44s-413.44-185.473-413.44-413.44 185.473-413.44 413.44-413.44c85.582 0 167.137 25.813 236.865 74.815l245.565-255.398c10.264-10.66 24.069-16.538 38.863-16.538 14.003 0 27.287 5.339 37.371 15.046 21.427 20.618 22.11 54.808 1.492 76.253zM431.128 852.146c168.504 0 305.586-137.082 305.586-305.586s-137.082-305.586-305.586-305.586-305.586 137.082-305.586 305.586 137.082 305.586 305.586 305.586z" />
<glyph unicode="&#xe915;" glyph-name="team" d="M1024 530.581h-37.113l-55.315-29.105c-6.226 3.435-12.702 6.347-19.685 8.097l-69.581 17.411v7.911c30.782 21.484 49.565 56.976 49.565 94.782v28.871c0 64.161-50.274 117.855-112.065 119.726-3.137 0.081-6.226-0.032-9.331-0.185l18.040 42.234-87.46 87.435-51.556-33.556c-19.589 11.032-40.306 19.621-61.823 25.645l-12.734 60.153h-125.871l-12.734-60.169c-21.516-6.024-42.25-14.613-61.823-25.645l-51.556 33.556-87.387-87.387 17.734-42.266c-0.677 0.032-1.323 0.153-2 0.169-31.629 0.919-61.419-10.621-84.048-32.589-22.661-21.952-35.129-51.411-35.129-82.96v-33.032c0-37.806 18.766-73.282 49.548-94.766v-7.927l-45.387-11.347-82.266 47.976h-54.024v-342.234l162.484-54.153h31.645l3.952 13.839 49.806-29.895c0.815-27.081 22.532-48.871 49.589-49.823 0.952-26.944 22.605-48.597 49.548-49.548 0.952-26.944 22.605-48.597 49.548-49.548 0.984-27.573 23.565-49.734 51.363-49.734 10.323 0 20.444 3.218 28.952 8.952l14.629-12.919c9.169-8.073 20.976-12.548 33.234-12.548h3.056c27.484 0 49.847 22.218 50.194 49.613 27.185 0.347 49.202 22.363 49.548 49.548 27.202 0.347 49.234 22.395 49.548 49.597 27.452 0.645 49.613 23.073 49.613 50.677 0 1.661-0.081 3.298-0.25 4.952l297.54 148.758zM858.839 658.548v-28.871c0-29.315-15.839-56.702-41.339-71.468l-8.258-4.774 0.065-52.266 82.516-20.613-181.629-95.597v44.492c0 22.202-8.968 42.532-23.653 57.556l56.685 14.161v52.306l-8.242 4.766c-25.484 14.734-41.306 42.121-41.306 71.435v33.032c0 22.524 8.903 43.589 25.089 59.274 16.169 15.677 37.621 24.129 60.048 23.258 44.121-1.323 80.024-40.218 80.024-86.694zM536.903 397.944l-74.766 23.895c-34.073 10.919-70.952 12.548-105.831 4.823l-9.468-2.097v4.887c0 22.774 15.444 42.548 37.524 48.081l94.605 23.637v52.306l-8.242 4.766c-25.484 14.734-41.306 42.121-41.306 71.435v33.032c0 22.524 8.903 43.589 25.089 59.274 16.169 15.677 37.758 24.129 60.048 23.258 44.121-1.323 80.024-40.218 80.024-86.694v-28.871c0-29.315-15.839-56.702-41.339-71.468l-8.258-4.774 0.065-52.266 94.589-23.637c22.081-5.532 37.524-25.306 37.524-48.081v-61.887l-4.081-2.145h-10.121l-101.54 29.016c-8 2.266-16.242 3.194-24.516 3.508zM350.54 712.806c31.016 60.097 93.444 98.548 161.46 98.548 67.371 0 129.532-37.935 160.782-97.218-7.863-15.766-12.137-33.226-12.137-51.427v-33.032c0-37.806 18.766-73.282 49.548-94.766v-7.927l-66.065-16.54-66.081 16.54v7.911c30.782 21.484 49.565 56.976 49.565 94.782v28.871c0 64.161-50.274 117.855-112.065 119.726-31.613 0.927-61.419-10.621-84.048-32.589-22.645-21.968-35.113-51.427-35.113-82.976v-33.032c0-37.806 18.766-73.282 49.548-94.766v-7.927l-66.065-16.54-66.081 16.54v7.911c30.782 21.484 49.565 56.976 49.565 94.782v28.871c0 19.435-4.677 37.887-12.815 54.258zM274.581 812.694l52.766 52.766 46.444-30.226 8.887 5.452c22.266 13.645 46.331 23.637 71.516 29.661l10.161 2.435 11.492 54.185h72.323l11.46-54.169 10.161-2.427c25.185-6.032 49.25-16.024 71.516-29.669l8.887-5.452 46.444 30.226 52.702-52.718-18.734-43.863c-12.75-5.484-24.573-13.202-34.863-23.177-0.677-0.661-1.258-1.371-1.919-2.048-38.911 61.855-107.702 100.718-181.823 100.718-74.653 0-143.637-39.226-182.452-101.71-10.387 10.871-22.742 19.677-36.435 25.831zM214.71 501.169v52.306l-8.242 4.766c-25.484 14.734-41.306 42.121-41.306 71.435v33.032c0 22.524 8.903 43.589 25.089 59.274 16.169 15.677 37.669 24.129 60.048 23.258 44.121-1.323 80.024-40.218 80.024-86.694v-28.871c0-29.315-15.839-56.702-41.339-71.468l-8.258-4.774 0.065-52.266 56.669-14.161c-14.685-15.024-23.653-35.355-23.653-57.556v-12.234l-51.516-11.452 1.339 4.677 0.629 30.524-87.105 50.815zM33.032 530.581h12.040l118.782-69.282-59.935-239.734-70.887 23.637zM167.839 200.258l-32.508 10.831 58.226 232.879 37.669-21.968v-4.718l-62-217.024zM280.774 152.71c0 4.871 1.968 9.645 5.419 13.097l29.032 29.032c3.452 3.452 8.226 5.419 13.097 5.419 10.21 0 18.516-8.306 18.516-18.516 0-4.871-1.968-9.645-5.419-13.097l-29.032-29.032c-3.452-3.452-8.226-5.419-13.097-5.419-10.21 0-18.516 8.306-18.516 18.516zM330.323 103.161c0 4.871 1.968 9.645 5.419 13.097l29.032 29.032c3.452 3.452 8.226 5.419 13.097 5.419 10.21 0 18.516-8.306 18.516-18.516 0-4.871-1.968-9.645-5.419-13.097l-29.032-29.032c-3.452-3.452-8.226-5.419-13.097-5.419-10.21 0-18.516 8.306-18.516 18.516zM379.871 53.613c0 4.871 1.968 9.645 5.419 13.097l29.032 29.032c3.452 3.452 8.226 5.419 13.097 5.419 10.21 0 18.516-8.306 18.516-18.516 0-4.871-1.968-9.645-5.419-13.097l-29.032-29.032c-3.452-3.452-8.226-5.419-13.097-5.419-10.21 0-18.516 8.306-18.516 18.516zM447.935-14.452c-10.21 0-18.516 8.306-18.516 18.516 0 4.871 1.968 9.645 5.419 13.097l29.032 29.032c3.452 3.452 8.226 5.419 13.097 5.419 10.21 0 18.516-8.306 18.516-18.516 0-4.871-1.968-9.645-5.419-13.097l-29.032-29.032c-3.452-3.452-8.226-5.419-13.097-5.419zM527.806-30.968h-3.056c-4.21 0-8.242 1.532-11.379 4.315l-12.355 10.895 12.403 12.403c4.427 4.427 7.863 9.694 10.403 15.347l15.016-12.5c3.927-3.274 6.194-8.097 6.194-13.234 0-9.5-7.726-17.226-17.226-17.226zM675.919 117.677h-2.855c-4.145 0-8.194 1.468-11.363 4.129l-89.565 74.637-21.161-25.387 86.976-72.468c3.911-3.274 6.177-8.097 6.177-13.234 0-9.5-7.726-17.226-17.226-17.226h-3.605c-4.008 0-7.927 1.419-11.016 4l-89.71 74.75-21.161-25.387 86.976-72.476c3.927-3.25 6.194-8.073 6.194-13.21 0-9.5-7.726-17.226-17.226-17.226-6.339 0-12.516 2.25-17.379 6.29l-36.863 30.726c-8.121 16.597-24.806 28.169-44.347 28.863-0.952 26.944-22.605 48.597-49.548 49.548-0.952 26.944-22.605 48.597-49.548 49.548-0.968 27.573-23.548 49.734-51.347 49.734-13.573 0-26.855-5.5-36.452-15.097l-29.032-29.032c-1.734-1.734-3.169-3.702-4.629-5.653l-50.734 30.444 44.476 155.661 111.5 24.79c29.25 6.54 60.089 5.121 88.613-4.008l24.331-7.782-82.484-41.242c-18.847-9.444-30.556-28.403-30.556-49.484v-3.266c0-30.508 24.823-55.331 55.331-55.331 10.024 0 19.887 2.726 28.46 7.895l61.5 36.879c12.355 7.403 28.935 5.782 39.605-3.815l139.548-125.589c3.734-3.387 5.879-8.194 5.879-13.226 0-9.798-7.96-17.758-17.758-17.758zM990.968 309.565l-278.25-139.137c-0.903 0.96-1.847 1.871-2.839 2.758l-139.524 125.589c-12.226 11.032-28.032 17.097-44.5 17.097-12.040 0-23.863-3.274-34.218-9.484l-61.524-36.895c-3.452-2.081-7.395-3.169-11.427-3.169-12.306 0-22.298 9.992-22.298 22.298v3.266c0 8.508 4.726 16.137 12.323 19.935l92.129 46.065c15.766 7.895 34.484 9.661 51.476 4.774l103.79-29.645 25.137-0.629 309.726 163.016z" />
<glyph unicode="&#xe916;" glyph-name="top-arrow" d="M855.92 322.588c16.662-16.661 16.662-43.678 0-60.339s-43.677-16.661-60.34 0l-250.823 250.825c-16.661 16.661-43.678 16.661-60.339 0l-250.825-250.825c-16.661-16.661-43.678-16.661-60.339 0s-16.661 43.678 0 60.339l311.164 311.163c16.661 16.663 43.678 16.663 60.339 0z" />
<glyph unicode="&#xe917;" glyph-name="twitter" d="M920.576 701.952c-30.72-13.312-62.464-22.528-96.256-26.624 34.816 20.48 61.44 53.248 73.728 93.184-32.768-19.456-68.608-32.768-106.496-40.96-30.72 32.768-74.752 53.248-122.88 53.248-93.184 0-167.936-75.776-167.936-167.936 0-13.312 1.024-25.6 4.096-37.888-139.264 6.144-262.144 73.728-345.088 175.104-59.392-106.496 7.168-194.56 51.2-224.256-26.624 0-53.248 8.192-75.776 20.48 0-82.944 58.368-151.552 134.144-166.912-16.384-5.12-53.248-8.192-75.776-3.072 21.504-66.56 83.968-115.712 156.672-116.736-57.344-45.056-141.312-80.896-248.832-69.632 74.752-48.128 162.816-75.776 258.048-75.776 309.248 0 477.184 256 477.184 477.184 0 7.168 0 14.336-1.024 21.504 34.816 25.6 63.488 55.296 84.992 89.088z" />
<glyph unicode="&#xe918;" glyph-name="youtube" d="M971.719 687.947c-11.062 41.127-43.488 73.547-84.609 84.621-75.123 20.555-375.621 20.555-375.621 20.555s-300.486 0-375.609-19.775c-40.33-11.062-73.547-44.279-84.609-85.4-19.77-75.117-19.77-230.9-19.77-230.9s0-156.568 19.77-230.9c11.074-41.121 43.488-73.541 84.615-84.615 75.908-20.561 375.615-20.561 375.615-20.561s300.486 0 375.609 19.775c41.127 11.068 73.547 43.488 84.621 84.609 19.764 75.123 19.764 230.9 19.764 230.9s0.791 156.574-19.775 231.691zM415.816 313.129v287.836l249.879-143.918z" />
<glyph unicode="&#xe919;" glyph-name="clock1" d="M512 919.040c-259.906 0-471.040-211.134-471.040-471.040s211.134-471.040 471.040-471.040c259.906 0 471.040 211.134 471.040 471.040s-211.134 471.040-471.040 471.040zM512 878.080c237.769 0 430.080-192.311 430.080-430.080s-192.311-430.080-430.080-430.080c-237.769 0-430.080 192.311-430.080 430.080s192.311 430.080 430.080 430.080zM511.68 816.92c-11.173-0.18-20.162-9.28-20.162-20.48 0-0.099 0.001-0.197 0.002-0.295v0.015-290.28c-24.053-8.684-40.939-31.307-40.96-57.877v-0.003c0.020-9.617 2.247-18.709 6.2-26.803l-0.16 0.363-122.92-122.92c-3.884-3.733-6.297-8.972-6.297-14.775 0-11.312 9.17-20.482 20.482-20.482 5.803 0 11.042 2.413 14.768 6.29l0.006 0.007 122.92 122.92c7.731-3.793 16.823-6.020 26.433-6.040h0.007c33.932 0 61.44 27.508 61.44 61.44v0c-0.038 26.557-16.92 49.16-40.532 57.705l-0.428 0.135v290.32c0.001 0.083 0.002 0.182 0.002 0.28 0 11.312-9.17 20.482-20.482 20.482-0.112 0-0.225-0.001-0.337-0.003h0.017z" />
</font>
</defs>
</svg>
