<svg version="1.2" xmlns="http://www.w3.org/2000/svg" viewBox="0 0 1108 426" width="1108" height="426"><defs><linearGradient id="P" gradientUnits="userSpaceOnUse"/><linearGradient id="g1" x1="722.3" y1="174.3" x2="727.6" y2="185.5" href="#P"><stop stop-color="#f0f8fd"/><stop offset="1" stop-color="#99acb6"/></linearGradient><linearGradient id="g2" x1="1112.9" y1="8" x2="1107.3" y2="-3.5" href="#P"><stop stop-color="#f0f8fd"/><stop offset="1" stop-color="#99acb6"/></linearGradient><linearGradient id="g3" x1="1112.9" y1="8" x2="1107.3" y2="-3.5" href="#P"><stop stop-color="#7e8d95"/><stop offset="1" stop-color="#bcc9d0"/></linearGradient><linearGradient id="g4" x1="835" y1="128.8" x2="797.8" y2="143.4" href="#P"><stop stop-color="#576469"/><stop offset="1" stop-color="#8e999e"/></linearGradient><linearGradient id="g5" x1="924" y1="86.7" x2="891.5" y2="99.4" href="#P"><stop stop-color="#576469"/><stop offset="1" stop-color="#8e999e"/></linearGradient><linearGradient id="g6" x1="834.7" y1="129" x2="797.4" y2="143.5" href="#P"><stop stop-color="#7e8d95"/><stop offset="1" stop-color="#bcc9d0"/></linearGradient><linearGradient id="g7" x1="924" y1="86.7" x2="891.5" y2="99.4" href="#P"><stop stop-color="#7e8d95"/><stop offset="1" stop-color="#bcc9d0"/></linearGradient><linearGradient id="g8" x1="519.1" y1="318.2" x2="518.6" y2="368.4" href="#P"><stop stop-color="#f0f8fd"/><stop offset="1" stop-color="#99acb6"/></linearGradient><linearGradient id="g9" x1="574.6" y1="263.7" x2="580.5" y2="281.8" href="#P"><stop stop-color="#f0f8fd"/><stop offset="1" stop-color="#99acb6"/></linearGradient><linearGradient id="g10" x1="582.8" y1="281.7" x2="588.3" y2="312.1" href="#P"><stop stop-color="#8697a0"/><stop offset="1" stop-color="#bcc9d0"/></linearGradient><linearGradient id="g11" x1="583.5" y1="285" x2="585" y2="295.4" href="#P"><stop stop-color="#7e8d95"/><stop offset="1" stop-color="#bcc9d0"/></linearGradient><linearGradient id="g12" x1="468.8" y1="322.3" x2="457.1" y2="362.4" href="#P"><stop stop-color="#f0f8fd"/><stop offset=".6" stop-color="#99acb6"/><stop offset="1" stop-color="#65747b"/></linearGradient><linearGradient id="g13" x1="519.3" y1="302.5" x2="518.8" y2="353.3" href="#P"><stop stop-color="#f0f8fd"/><stop offset="1" stop-color="#99acb6"/></linearGradient><radialGradient id="g14" cx="487.9" cy="338.1" r="30.2" href="#P"><stop offset=".8" stop-color="#8e9093"/><stop offset="1" stop-color="#5e6062"/></radialGradient><radialGradient id="g15" cx="485.5" cy="337" r="31.6" href="#P"><stop offset=".8" stop-color="#8e9093"/><stop offset="1" stop-color="#5e6062"/></radialGradient><linearGradient id="g16" x1="495.7" y1="302.9" x2="528.2" y2="330" href="#P"><stop stop-color="#8e9093"/><stop offset="1" stop-color="#5e6062"/></linearGradient><linearGradient id="g17" x1="928.2" y1="98.8" x2="975.3" y2="199.3" href="#P"><stop stop-color="#f0f8fd"/><stop offset=".3" stop-color="#e0e8ed"/><stop offset=".9" stop-color="#8f9ba1"/><stop offset="1" stop-color="#747e83"/></linearGradient><linearGradient id="g18" x1="408.8" y1="277.2" x2="425" y2="310.6" href="#P"><stop stop-color="#f0f8fd"/><stop offset=".3" stop-color="#f0f8fd"/><stop offset=".8" stop-color="#8f9ba1"/><stop offset="1" stop-color="#747e83"/></linearGradient><linearGradient id="g19" x1="408.8" y1="277.2" x2="425" y2="310.6" href="#P"><stop stop-color="#7e8d95"/><stop offset="1" stop-color="#fff"/></linearGradient><linearGradient id="g20" x1="901.2" y1="74.4" x2="932.5" y2="243.8" href="#P"><stop stop-color="#f0f8fd"/><stop offset=".5" stop-color="#f0f8fd"/><stop offset=".9" stop-color="#8f9ba1"/><stop offset="1" stop-color="#747e83"/></linearGradient><linearGradient id="g21" x1="705.2" y1="175.5" x2="739.4" y2="278.7" href="#P"><stop stop-color="#f0f8fd"/><stop offset=".4" stop-color="#f0f8fd"/><stop offset="1" stop-color="#747e83"/></linearGradient><linearGradient id="g22" x1="705.2" y1="175.5" x2="739.4" y2="278.7" href="#P"><stop stop-color="#f0f8fd"/><stop offset=".2" stop-color="#dfe9ee"/><stop offset=".3" stop-color="#f0f8fd"/><stop offset=".9" stop-color="#8f9ba1"/><stop offset="1" stop-color="#747e83"/></linearGradient><linearGradient id="g23" x1="619.2" y1="232.3" x2="633" y2="289.8" href="#P"><stop stop-color="#bec6cb"/><stop offset=".5" stop-color="#dae5eb"/><stop offset="1" stop-color="#747e83"/></linearGradient><linearGradient id="g24" x1="619.2" y1="232.3" x2="633" y2="289.8" href="#P"><stop stop-color="#bec6cb"/><stop offset=".5" stop-color="#dae5eb"/><stop offset="1" stop-color="#747e83"/></linearGradient><linearGradient id="g25" x1="408.6" y1="195.1" x2="361.8" y2="241.7" href="#P"><stop stop-color="#00aded"/><stop offset="1" stop-color="#005dab"/></linearGradient><linearGradient id="g26" x1="210.3" y1="78" x2="260.6" y2="49.9" href="#P"><stop stop-color="#00aded"/><stop offset="1" stop-color="#005dab"/></linearGradient><linearGradient id="g27" x1="791.1" y1="139.2" x2="911" y2="99.5" href="#P"><stop stop-color="#5e6062"/><stop offset="1" stop-color="#232020"/></linearGradient><linearGradient id="g28" x1="896.6" y1="103.7" x2="908.8" y2="116.8" href="#P"><stop stop-color="#5e6062"/><stop offset="1" stop-color="#232020"/></linearGradient><linearGradient id="g29" x1="791.1" y1="139.2" x2="905.6" y2="101.3" href="#P"><stop stop-color="#f0f8fd"/><stop offset="1" stop-color="#8f9ba1"/></linearGradient><linearGradient id="g30" x1="824.7" y1="143.9" x2="824.4" y2="156.8" href="#P"><stop stop-color="#5e6062"/><stop offset="1" stop-color="#232020"/></linearGradient><linearGradient id="g31" x1="838.6" y1="132.6" x2="845.4" y2="149.3" href="#P"><stop stop-color="#5e6062"/><stop offset="1" stop-color="#232020"/></linearGradient><linearGradient id="g32" x1="873.9" y1="112.8" x2="883.3" y2="124.3" href="#P"><stop stop-color="#5e6062"/><stop offset="1" stop-color="#232020"/></linearGradient><linearGradient id="g33" x1="815.5" y1="124.7" x2="826.4" y2="121.1" href="#P"><stop stop-color="#5e6062"/><stop offset="1" stop-color="#232020"/></linearGradient><linearGradient id="g34" x1="830.1" y1="118.8" x2="845" y2="113.9" href="#P"><stop stop-color="#5e6062"/><stop offset="1" stop-color="#232020"/></linearGradient><linearGradient id="g35" x1="874.8" y1="102.3" x2="885.6" y2="98.7" href="#P"><stop stop-color="#5e6062"/><stop offset="1" stop-color="#232020"/></linearGradient><linearGradient id="g36" x1="324.5" y1="243.1" x2="326.4" y2="251.5" href="#P"><stop stop-color="#f0f8fd"/><stop offset="1" stop-color="#99acb6"/></linearGradient><linearGradient id="g37" x1="124.6" y1="296.1" x2="123.1" y2="289.3" href="#P"><stop stop-color="#f0f8fd"/><stop offset="1" stop-color="#99acb6"/></linearGradient><linearGradient id="g38" x1="123.3" y1="290" x2="121.4" y2="281.3" href="#P"><stop stop-color="#7e8d95"/><stop offset="1" stop-color="#bcc9d0"/></linearGradient><linearGradient id="g39" x1="423.8" y1="311" x2="426.7" y2="322.6" href="#P"><stop stop-color="#f0f8fd"/><stop offset="1" stop-color="#99acb6"/></linearGradient><linearGradient id="g40" x1="-0.3" y1="431.3" x2="-2.4" y2="422.7" href="#P"><stop stop-color="#f0f8fd"/><stop offset="1" stop-color="#99acb6"/></linearGradient><linearGradient id="g41" x1="-0.3" y1="431.3" x2="-2.4" y2="422.7" href="#P"><stop stop-color="#7e8d95"/><stop offset="1" stop-color="#bcc9d0"/></linearGradient><linearGradient id="g42" x1="304.2" y1="348.7" x2="342.1" y2="336.2" href="#P"><stop stop-color="#576469"/><stop offset="1" stop-color="#8e999e"/></linearGradient><linearGradient id="g43" x1="203.9" y1="373.6" x2="238.3" y2="362.3" href="#P"><stop stop-color="#576469"/><stop offset="1" stop-color="#8e999e"/></linearGradient><linearGradient id="g44" x1="304.5" y1="348.7" x2="342.4" y2="336.1" href="#P"><stop stop-color="#7e8d95"/><stop offset="1" stop-color="#bcc9d0"/></linearGradient><linearGradient id="g45" x1="203.9" y1="373.6" x2="238.3" y2="362.3" href="#P"><stop stop-color="#7e8d95"/><stop offset="1" stop-color="#bcc9d0"/></linearGradient><linearGradient id="g46" x1="553.6" y1="200.3" x2="550.3" y2="308" href="#P"><stop stop-color="#00aded"/><stop offset="1" stop-color="#005dab"/></linearGradient><linearGradient id="g47" x1="449.1" y1="317.3" x2="402" y2="386.7" href="#P"><stop stop-color="#001821"/><stop offset="1" stop-color="#01a8e7"/></linearGradient><linearGradient id="g48" x1="462.5" y1="225.5" x2="431.2" y2="282.5" href="#P"><stop stop-color="#b2d235"/><stop offset="1" stop-color="#43b549"/></linearGradient><linearGradient id="g49" x1="482.9" y1="229.2" x2="446.6" y2="307.2" href="#P"><stop stop-color="#00aded"/><stop offset="1" stop-color="#005dab"/></linearGradient><linearGradient id="g50" x1="486.6" y1="310.5" x2="514.7" y2="334" href="#P"><stop stop-color="#8e9093"/><stop offset="1" stop-color="#5e6062"/></linearGradient><linearGradient id="g51" x1="480" y1="327.6" x2="488.5" y2="353.2" href="#P"><stop offset=".2" stop-color="#5e6062"/><stop offset=".5" stop-color="#232020"/><stop offset="1" stop-color="#5e6062"/></linearGradient><linearGradient id="g52" x1="486.6" y1="310.5" x2="514.7" y2="334" href="#P"><stop stop-color="#8e9093"/><stop offset="1" stop-color="#5e6062"/></linearGradient><linearGradient id="g53" x1="493.2" y1="304.1" x2="525.4" y2="331" href="#P"><stop stop-color="#8e9093"/><stop offset="1" stop-color="#5e6062"/></linearGradient><linearGradient id="g54" x1="470.4" y1="160.5" x2="473.5" y2="165.2" href="#P"><stop stop-color="#f0f8fd"/><stop offset="1" stop-color="#99acb6"/></linearGradient><linearGradient id="g55" x1="468.5" y1="158.2" x2="473.2" y2="164.2" href="#P"><stop stop-color="#7e8d95"/><stop offset="1" stop-color="#bcc9d0"/></linearGradient><linearGradient id="g56" x1="382.8" y1="226.3" x2="232.6" y2="20.2" href="#P"><stop stop-color="#f0f8fd"/><stop offset="1" stop-color="#99acb6"/></linearGradient><linearGradient id="g57" x1="236.2" y1="63.4" x2="268.8" y2="52.6" href="#P"><stop stop-color="#00aded"/><stop offset="1" stop-color="#001821"/></linearGradient><linearGradient id="g58" x1="508.9" y1="203.4" x2="523.6" y2="267.9" href="#P"><stop stop-color="#f0f8fd"/><stop offset=".2" stop-color="#dfe9ee"/><stop offset=".3" stop-color="#f0f8fd"/><stop offset=".9" stop-color="#8f9ba1"/><stop offset="1" stop-color="#747e83"/></linearGradient><linearGradient id="g59" x1="522.8" y1="193.2" x2="542.2" y2="270.3" href="#P"><stop stop-color="#f0f8fd"/><stop offset=".2" stop-color="#dfe9ee"/><stop offset=".3" stop-color="#f0f8fd"/><stop offset=".9" stop-color="#8f9ba1"/><stop offset="1" stop-color="#747e83"/></linearGradient><linearGradient id="g60" x1="757.1" y1="80.1" x2="778.5" y2="220" href="#P"><stop stop-color="#f0f8fd"/><stop offset="1" stop-color="#747e83"/></linearGradient><linearGradient id="g61" x1="507.6" y1="205.2" x2="521.9" y2="265.5" href="#P"><stop stop-color="#f0f8fd"/><stop offset=".5" stop-color="#f0f8fd"/><stop offset="1" stop-color="#747e83"/></linearGradient><linearGradient id="g62" x1="521.7" y1="196" x2="540.3" y2="268.1" href="#P"><stop stop-color="#f0f8fd"/><stop offset=".5" stop-color="#f0f8fd"/><stop offset="1" stop-color="#747e83"/></linearGradient><linearGradient id="g63" x1="761.9" y1="144.4" x2="788.6" y2="243" href="#P"><stop stop-color="#f0f8fd"/><stop offset=".4" stop-color="#f0f8fd"/><stop offset=".9" stop-color="#8f9ba1"/><stop offset="1" stop-color="#747e83"/></linearGradient><linearGradient id="g64" x1="685.1" y1="179.7" x2="692.8" y2="177.1" href="#P"><stop stop-color="#5e6062"/><stop offset="1" stop-color="#232020"/></linearGradient><linearGradient id="g65" x1="673.6" y1="182.2" x2="681.3" y2="179.7" href="#P"><stop stop-color="#5e6062"/><stop offset="1" stop-color="#232020"/></linearGradient><linearGradient id="g66" x1="661.8" y1="185.1" x2="669.5" y2="182.5" href="#P"><stop stop-color="#5e6062"/><stop offset="1" stop-color="#232020"/></linearGradient><linearGradient id="g67" x1="650.7" y1="187.8" x2="658.5" y2="185.3" href="#P"><stop stop-color="#5e6062"/><stop offset="1" stop-color="#232020"/></linearGradient><linearGradient id="g68" x1="640.3" y1="190.3" x2="647.3" y2="188" href="#P"><stop stop-color="#5e6062"/><stop offset="1" stop-color="#232020"/></linearGradient><linearGradient id="g69" x1="630.2" y1="192.4" x2="637.3" y2="190.1" href="#P"><stop stop-color="#5e6062"/><stop offset="1" stop-color="#232020"/></linearGradient><linearGradient id="g70" x1="620" y1="194.9" x2="627" y2="192.6" href="#P"><stop stop-color="#5e6062"/><stop offset="1" stop-color="#232020"/></linearGradient><linearGradient id="g71" x1="609.1" y1="197.7" x2="615.9" y2="195.5" href="#P"><stop stop-color="#5e6062"/><stop offset="1" stop-color="#232020"/></linearGradient><linearGradient id="g72" x1="598.7" y1="200.3" x2="605.5" y2="198.1" href="#P"><stop stop-color="#5e6062"/><stop offset="1" stop-color="#232020"/></linearGradient><linearGradient id="g73" x1="587.7" y1="202.5" x2="594.5" y2="200.3" href="#P"><stop stop-color="#5e6062"/><stop offset="1" stop-color="#232020"/></linearGradient><linearGradient id="g74" x1="576.5" y1="205.2" x2="583.3" y2="202.9" href="#P"><stop stop-color="#5e6062"/><stop offset="1" stop-color="#232020"/></linearGradient><linearGradient id="g75" x1="557.6" y1="209.3" x2="564.2" y2="207.1" href="#P"><stop stop-color="#5e6062"/><stop offset="1" stop-color="#232020"/></linearGradient><linearGradient id="g76" x1="540.4" y1="214.1" x2="546.8" y2="212" href="#P"><stop stop-color="#5e6062"/><stop offset="1" stop-color="#232020"/></linearGradient><linearGradient id="g77" x1="531.8" y1="215.7" x2="538.2" y2="213.6" href="#P"><stop stop-color="#5e6062"/><stop offset="1" stop-color="#232020"/></linearGradient><linearGradient id="g78" x1="523.8" y1="217.4" x2="530.3" y2="215.3" href="#P"><stop stop-color="#5e6062"/><stop offset="1" stop-color="#232020"/></linearGradient><linearGradient id="g79" x1="515.1" y1="219.4" x2="520.9" y2="217.5" href="#P"><stop stop-color="#5e6062"/><stop offset="1" stop-color="#232020"/></linearGradient><linearGradient id="g80" x1="499.8" y1="222.9" x2="505.3" y2="221" href="#P"><stop stop-color="#5e6062"/><stop offset="1" stop-color="#232020"/></linearGradient><linearGradient id="g81" x1="490.3" y1="225" x2="495.8" y2="223.2" href="#P"><stop stop-color="#5e6062"/><stop offset="1" stop-color="#232020"/></linearGradient><linearGradient id="g82" x1="481.1" y1="227.1" x2="486.5" y2="225.3" href="#P"><stop stop-color="#5e6062"/><stop offset="1" stop-color="#232020"/></linearGradient><linearGradient id="g83" x1="473.1" y1="229.2" x2="478.4" y2="227.5" href="#P"><stop stop-color="#5e6062"/><stop offset="1" stop-color="#232020"/></linearGradient><linearGradient id="g84" x1="465.1" y1="230.9" x2="470.4" y2="229.2" href="#P"><stop stop-color="#5e6062"/><stop offset="1" stop-color="#232020"/></linearGradient><linearGradient id="g85" x1="457.6" y1="232.9" x2="462.9" y2="231.2" href="#P"><stop stop-color="#5e6062"/><stop offset="1" stop-color="#232020"/></linearGradient><linearGradient id="g86" x1="450.3" y1="234.5" x2="455.6" y2="232.7" href="#P"><stop stop-color="#5e6062"/><stop offset="1" stop-color="#232020"/></linearGradient><linearGradient id="g87" x1="443.4" y1="236.5" x2="448.4" y2="234.9" href="#P"><stop stop-color="#5e6062"/><stop offset="1" stop-color="#232020"/></linearGradient><linearGradient id="g88" x1="436" y1="238.1" x2="441" y2="236.4" href="#P"><stop stop-color="#5e6062"/><stop offset="1" stop-color="#232020"/></linearGradient><linearGradient id="g89" x1="428.4" y1="239.9" x2="433.2" y2="238.4" href="#P"><stop stop-color="#5e6062"/><stop offset="1" stop-color="#232020"/></linearGradient><linearGradient id="g90" x1="420.7" y1="241.5" x2="425.5" y2="240" href="#P"><stop stop-color="#5e6062"/><stop offset="1" stop-color="#232020"/></linearGradient><linearGradient id="g91" x1="413.8" y1="243.2" x2="418.6" y2="241.7" href="#P"><stop stop-color="#5e6062"/><stop offset="1" stop-color="#232020"/></linearGradient><linearGradient id="g92" x1="406.2" y1="245" x2="411" y2="243.4" href="#P"><stop stop-color="#5e6062"/><stop offset="1" stop-color="#232020"/></linearGradient><linearGradient id="g93" x1="400" y1="246.6" x2="404.8" y2="245" href="#P"><stop stop-color="#5e6062"/><stop offset="1" stop-color="#232020"/></linearGradient><linearGradient id="g94" x1="393.1" y1="248" x2="397.9" y2="246.4" href="#P"><stop stop-color="#5e6062"/><stop offset="1" stop-color="#232020"/></linearGradient><linearGradient id="g95" x1="387.2" y1="250" x2="392" y2="248.5" href="#P"><stop stop-color="#5e6062"/><stop offset="1" stop-color="#232020"/></linearGradient><linearGradient id="g96" x1="380.6" y1="251.3" x2="385.4" y2="249.7" href="#P"><stop stop-color="#5e6062"/><stop offset="1" stop-color="#232020"/></linearGradient><linearGradient id="g97" x1="374.9" y1="252.8" x2="379.2" y2="251.4" href="#P"><stop stop-color="#5e6062"/><stop offset="1" stop-color="#232020"/></linearGradient><linearGradient id="g98" x1="368.8" y1="254.1" x2="373.2" y2="252.7" href="#P"><stop stop-color="#5e6062"/><stop offset="1" stop-color="#232020"/></linearGradient><linearGradient id="g99" x1="362.8" y1="255.5" x2="367.2" y2="254.1" href="#P"><stop stop-color="#5e6062"/><stop offset="1" stop-color="#232020"/></linearGradient><linearGradient id="g100" x1="357.6" y1="256.7" x2="361.6" y2="255.4" href="#P"><stop stop-color="#5e6062"/><stop offset="1" stop-color="#232020"/></linearGradient><linearGradient id="g101" x1="710.4" y1="173.1" x2="718.8" y2="170.3" href="#P"><stop stop-color="#5e6062"/><stop offset="1" stop-color="#232020"/></linearGradient><linearGradient id="g102" x1="697.9" y1="175.9" x2="706.2" y2="173.1" href="#P"><stop stop-color="#5e6062"/><stop offset="1" stop-color="#232020"/></linearGradient><linearGradient id="g103" x1="740" y1="159.7" x2="744.5" y2="158.2" href="#P"><stop stop-color="#5e6062"/><stop offset="1" stop-color="#232020"/></linearGradient><linearGradient id="g104" x1="734.7" y1="173.6" x2="747.5" y2="169.4" href="#P"><stop stop-color="#5e6062"/><stop offset="1" stop-color="#232020"/></linearGradient><linearGradient id="g105" x1="0" y1="0" x2="0" y2="0" href="#P"><stop stop-color="#f0f8fd"/><stop offset=".5" stop-color="#f0f8fd"/><stop offset=".9" stop-color="#8f9ba1"/><stop offset="1" stop-color="#747e83"/></linearGradient><linearGradient id="g106" x1="406.1" y1="290.2" x2="409.5" y2="308.6" href="#P"><stop stop-color="#7e8d95"/><stop offset="1" stop-color="#bcc9d0"/></linearGradient><linearGradient id="g107" x1="956" y1="149.3" x2="971.8" y2="235.2" href="#P"><stop stop-color="#f0f8fd"/><stop offset=".2" stop-color="#dfe9ee"/><stop offset=".3" stop-color="#f0f8fd"/><stop offset=".9" stop-color="#8f9ba1"/><stop offset="1" stop-color="#747e83"/></linearGradient><linearGradient id="g108" x1="409.9" y1="279" x2="424.9" y2="309.9" href="#P"><stop stop-color="#7e8d95"/><stop offset="1" stop-color="#bcc9d0"/></linearGradient><linearGradient id="g109" x1="322" y1="332.1" x2="312.8" y2="257.8" href="#P"><stop stop-color="#7e8d95"/><stop offset="1" stop-color="#fff"/></linearGradient><linearGradient id="g110" x1="392.6" y1="337.8" x2="368.8" y2="345.7" href="#P"><stop stop-color="#576469"/><stop offset="1" stop-color="#8e999e"/></linearGradient><linearGradient id="g111" x1="370.3" y1="320.4" x2="387.9" y2="300.4" href="#P"><stop stop-color="#7e8d95"/><stop offset="1" stop-color="#bcc9d0"/></linearGradient><linearGradient id="g112" x1="579.2" y1="293.9" x2="579.7" y2="297.3" href="#P"><stop stop-color="#7e8d95"/><stop offset="1" stop-color="#bcc9d0"/></linearGradient><linearGradient id="g113" x1="413.1" y1="418.3" x2="407.2" y2="327.1" href="#P"><stop stop-color="#7e8d95"/><stop offset="1" stop-color="#fff"/></linearGradient><linearGradient id="g114" x1="689.6" y1="214.3" x2="706.5" y2="265.4" href="#P"><stop stop-color="#f0f8fd"/><stop offset=".2" stop-color="#dfe9ee"/><stop offset=".3" stop-color="#f0f8fd"/><stop offset=".9" stop-color="#8f9ba1"/><stop offset="1" stop-color="#747e83"/></linearGradient><linearGradient id="g115" x1="515.2" y1="238.7" x2="519.3" y2="256.3" href="#P"><stop stop-color="#f0f8fd"/><stop offset=".2" stop-color="#dfe9ee"/><stop offset=".3" stop-color="#f0f8fd"/><stop offset=".9" stop-color="#8f9ba1"/><stop offset="1" stop-color="#747e83"/></linearGradient><linearGradient id="g116" x1="530.8" y1="235.3" x2="535" y2="252.9" href="#P"><stop stop-color="#f0f8fd"/><stop offset=".2" stop-color="#dfe9ee"/><stop offset=".3" stop-color="#f0f8fd"/><stop offset=".9" stop-color="#8f9ba1"/><stop offset="1" stop-color="#747e83"/></linearGradient><linearGradient id="g117" x1="765.8" y1="197.6" x2="771.4" y2="221.1" href="#P"><stop stop-color="#f0f8fd"/><stop offset=".2" stop-color="#dfe9ee"/><stop offset=".3" stop-color="#f0f8fd"/><stop offset=".9" stop-color="#8f9ba1"/><stop offset="1" stop-color="#747e83"/></linearGradient><linearGradient id="g118" x1="893.1" y1="215" x2="887.8" y2="173.1" href="#P"><stop stop-color="#7e8d95"/><stop offset="1" stop-color="#fff"/></linearGradient></defs><style>.a{fill:url(#g1)}.b{fill:#99a3b3}.c{fill:url(#g2)}.d{fill:url(#g3)}.e{fill:url(#g4)}.f{fill:#50565b}.g{fill:url(#g5)}.h{fill:url(#g6)}.i{fill:url(#g7)}.j{fill:url(#g8)}.k{fill:#6ca8ff}.l{fill:url(#g9)}.m{fill:url(#g10)}.n{fill:#6d727a}.o{fill:url(#g11)}.p{fill:url(#g12)}.q{fill:#63686e}.r{fill:url(#g13)}.s{fill:url(#g14)}.t{fill:#636464}.u{fill:url(#g15)}.v{fill:url(#g16)}.w{fill:url(#g17)}.x{fill:#818a95}.y{fill:url(#g18)}.z{fill:url(#g19)}.A{fill:url(#g20)}.B{fill:url(#g21)}.C{fill:url(#g22)}.D{fill:url(#g23)}.E{fill:url(#g24)}.F{fill:url(#g25)}.G{fill:#0e59a1}.H{fill:url(#g26)}.I{fill:url(#g27)}.J{fill:url(#g28)}.K{fill:url(#g29)}.L{fill:url(#g30)}.M{fill:url(#g31)}.N{fill:url(#g32)}.O{fill:url(#g33)}.P{fill:url(#g34)}.Q{fill:url(#g35)}.R{fill:url(#g36)}.S{fill:url(#g37)}.T{fill:url(#g38)}.U{fill:url(#g39)}.V{fill:url(#g40)}.W{fill:url(#g41)}.X{fill:url(#g42)}.Y{fill:url(#g43)}.Z{fill:url(#g44)}.a0{fill:url(#g45)}.a1{fill:url(#g46)}.a2{fill:url(#g47)}.a3{fill:#8e9093}.a4{fill:url(#g48)}.a5{fill:url(#g49)}.a6{fill:url(#g50)}.a7{fill:url(#g51)}.a8{fill:url(#g52)}.a9{fill:url(#g53)}.aa{fill:url(#g54);stroke:#99a3b3;stroke-width:.4}.ab{opacity:.4;mix-blend-mode:multiply;fill:url(#g55)}.ac{fill:url(#g56)}.ad{opacity:.7;mix-blend-mode:screen;fill:#fff}.ae{fill:url(#g57)}.af{opacity:.2;mix-blend-mode:screen;fill:#fff}.ag{fill:url(#g58)}.ah{fill:url(#g59)}.ai{fill:url(#g60)}.aj{fill:url(#g61)}.ak{fill:url(#g62)}.al{fill:url(#g63)}.am{fill:url(#g64)}.an{fill:url(#g65)}.ao{fill:url(#g66)}.ap{fill:url(#g67)}.aq{fill:url(#g68)}.ar{fill:url(#g69)}.as{fill:url(#g70)}.at{fill:url(#g71)}.au{fill:url(#g72)}.av{fill:url(#g73)}.aw{fill:url(#g74)}.ax{fill:url(#g75)}.ay{fill:url(#g76)}.az{fill:url(#g77)}.aA{fill:url(#g78)}.aB{fill:url(#g79)}.aC{fill:url(#g80)}.aD{fill:url(#g81)}.aE{fill:url(#g82)}.aF{fill:url(#g83)}.aG{fill:url(#g84)}.aH{fill:url(#g85)}.aI{fill:url(#g86)}.aJ{fill:url(#g87)}.aK{fill:url(#g88)}.aL{fill:url(#g89)}.aM{fill:url(#g90)}.aN{fill:url(#g91)}.aO{fill:url(#g92)}.aP{fill:url(#g93)}.aQ{fill:url(#g94)}.aR{fill:url(#g95)}.aS{fill:url(#g96)}.aT{fill:url(#g97)}.aU{fill:url(#g98)}.aV{fill:url(#g99)}.aW{fill:url(#g100)}.aX{fill:url(#g101)}.aY{fill:url(#g102)}.aZ{fill:url(#g103);stroke:#000;stroke-width:.4}.b0{fill:url(#g104);stroke:#000;stroke-width:.4}.b1{opacity:.5;mix-blend-mode:screen;fill:#fff}.b2{opacity:.4;mix-blend-mode:screen;fill:#fff}.b3{opacity:.8;mix-blend-mode:screen;fill:#fff}.b4{fill:url(#g105)}.b5{fill:url(#g106)}.b6{fill:url(#g107)}.b7{fill:url(#g108)}.b8{opacity:.1;mix-blend-mode:screen;fill:#fff}.b9{fill:url(#g109)}.ba{fill:url(#g110)}.bb{fill:url(#g111)}.bc{fill:url(#g112)}.bd{fill:url(#g113)}.be{fill:url(#g114)}.bf{fill:url(#g115)}.bg{fill:url(#g116)}.bh{fill:url(#g117)}.bi{opacity:.3;mix-blend-mode:multiply;fill:url(#g118)}</style><path class="a" d="m725.6 179.4c-1-2.9 6.5-5.4 10.5-11.2 3.9-5.8 11.6-10.2 11.6-10.2l351-156.9c6.1-1 10.9 0.1 8.2 1.1l-181.8 86.8-32.1 14.8-57.2 27.3-36.2 17.4-11.2 5.5c0 0-24.2 10.4-40 17.9-15.7 7.5-21.9 10.5-22.8 7.5z"/><path class="b" d="m725.5 179.4c-0.3-1.4 0.9-2.5 1.9-3.3 2.1-1.7 4.4-3.2 6.3-5.2 2.1-2.1 3.6-4.6 5.7-6.6q2.6-2.5 5.6-4.6c2.7-1.8 5.5-3 8.5-4.3q9.6-4.3 19.1-8.6 33.7-15 67.4-30.1 44.1-19.7 88.2-39.4 43.5-19.5 87-38.9 31.9-14.2 63.8-28.5 8.2-3.7 16.4-7.3 1.5-0.7 3.1-1.4c1.5-0.7 3.8-0.6 5.4-0.5 0.6 0 5.5 0.4 3 1.5q-24 11.5-48 23-43.4 20.7-86.9 41.4-23.4 11.2-46.8 22.4c-19.7 9.3-39.6 18.3-59.2 27.7q-31.9 15.3-63.8 30.5c-9.4 4.6-18.9 9-28.5 13.2-11.6 5.1-23 10.6-34.5 15.9-3.3 1.6-7 3.5-10.7 4.2-1.1 0.1-2.5 0.2-3-1.1 0 0 0.1 0 0.1 0q0.1 0.3 0.2 0.5c1.8 2.3 8.4-1.4 10.3-2.2 6-2.7 11.9-5.6 17.9-8.4 9.8-4.6 19.7-8.9 29.6-13.2 8.6-3.8 17.1-8.2 25.6-12.2q32.9-15.8 65.9-31.6c16.8-8 33.9-15.7 50.7-23.7q27.4-13.1 54.8-26.1 43.2-20.7 86.5-41.3 15.2-7.3 30.5-14.5 3.9-1.9 7.7-3.7 0.8-0.4 1.5-0.7 0.1-0.1 0.1-0.1c0.3-0.2 2.4-0.5-0.1-1.1q-1.4-0.4-2.9-0.4c-1.4 0-3.9-0.1-5.2 0.4q-15.2 6.8-30.3 13.6-35.4 15.8-70.7 31.6-44.5 19.9-89.1 39.8-42.7 19.1-85.5 38.2-30.1 13.4-60.1 26.9-6.9 3-13.7 6.1c-0.9 0.4-1.7 0.7-2.4 1.2-2.3 1.4-4.4 3-6.4 4.8-2.2 2-3.7 4.4-5.7 6.6-1.8 2-3.9 3.5-6 5.2-1.3 1-3.7 2.4-3.2 4.3 0 0-0.1 0-0.1 0z"/><path class="c" d="m725.7 178c2 0.9 7.1-1.2 10.8-2.8l369.1-174.4c2 0.3 2.8 0.9 1.3 1.4l-181.8 86.8-32.1 14.8-57.2 27.3-36.2 17.4-11.2 5.5c0 0-24.2 10.4-40 17.9-15.7 7.5-21.9 10.5-22.8 7.5q-0.3-0.7 0.1-1.4z"/><path class="b" d="m725.7 178c3.3 1 8.1-1.6 11-3q0.8-0.4 1.6-0.7 19.1-9.1 38.3-18.1 36.5-17.3 73.1-34.5 44.3-21 88.7-41.9 42.5-20.1 85-40.2 31-14.6 62-29.2 8.1-3.9 16.3-7.8 1.7-0.8 3.5-1.6c1-0.5 3.6 0.4 1.7 1.3q-24.6 11.7-49.2 23.4-43.5 20.8-86.9 41.5c-15.2 7.2-30.4 14.7-45.7 21.8-20.2 9.3-40.4 18.8-60.5 28.4q-31.5 15.1-63.1 30.2c-4.2 2-8.4 4.1-12.6 6.1-5.5 2.8-11.4 5-17 7.5-11.6 5.2-23 10.7-34.6 16-1 0.5-13.5 6.5-11.6 0.8 0 0 0 0 0 0-1.1 3.6 3.4 2.4 5.1 1.8 3.4-1.1 6.5-2.7 9.7-4.1 11-5.2 22.1-10.4 33.2-15.3 5.5-2.4 11.2-4.7 16.6-7.4 10.8-5.3 21.6-10.4 32.4-15.6q31.9-15.3 63.8-30.5c14.1-6.8 28.4-13.1 42.5-19.8q32.5-15.5 64.9-31 42.2-20.1 84.3-40.2 12.5-5.9 24.9-11.9 1.9-0.9 3.8-1.8c0.8-0.3-1-1.5-1.6-1.2q-0.7 0.3-1.3 0.6-18.8 8.9-37.6 17.8-36.4 17.1-72.8 34.3-44.3 20.9-88.6 41.9-42.6 20.1-85.1 40.2-31.3 14.7-62.5 29.5-8.4 3.9-16.7 7.9-1.9 0.9-3.7 1.7-0.3 0.1-0.5 0.3c-2.8 1.3-7.6 3.9-10.8 2.8-0.1 0 0 0 0 0z"/><g style="opacity:.7;mix-blend-mode:multiply"><path class="d" d="m725.7 178c2 0.9 7.1-1.2 10.8-2.8l369.1-174.4c2 0.3 2.8 0.9 1.3 1.4l-181.8 86.8-32.1 14.8-57.2 27.3-36.2 17.4-11.2 5.5c0 0-24.2 10.4-40 17.9-15.7 7.5-21.9 10.5-22.8 7.5q-0.3-0.7 0.1-1.4z"/></g><path class="e" d="m831.9 137.2c-3.2 4-11 7.3-20.2 10.9-9.1 3.5-12.1 0.4-12.1 0.4l36.2-17.4c0 0-0.7 2.1-3.9 6.1z"/><path class="f" d="m831.9 137.2c-2.4 2.9-5.9 4.7-9.3 6.3-4.3 2-8.8 4.2-13.4 5.5-2.6 0.7-7.4 1.8-9.7-0.5q0 0 0 0 18.1-8.7 36.2-17.4c0.1 0 0.1 0 0.1 0-0.8 2.3-2.5 4.3-3.9 6.1 0 0.1-0.1 0-0.1 0 1.5-1.8 3-3.7 3.9-5.8 0.1-0.5-0.2-0.1-0.6 0.1q-3 1.4-5.9 2.8-9.8 4.7-19.5 9.4-3.9 1.8-7.7 3.6c-0.4 0.2-2.7 1-2.1 1.4 4.6 3.2 11.8-0.6 16.2-2.4 5.4-2.2 11.9-4.5 15.7-9.1 0.1 0 0.1 0 0.1 0z"/><path class="g" d="m922.7 94.9c-2.9 4.3-12.2 7.5-19.4 10.3-7.2 2.8-10.3-1.4-10.3-1.4l32.1-14.8c0 0 0.4 1.6-2.4 5.9z"/><path class="f" d="m922.7 94.9c-2 2.8-5.3 4.5-8.4 5.9-3.8 1.7-7.8 3.5-11.8 4.7-3.1 1-7.3 1.2-9.6-1.7q0 0 0 0 16.1-7.4 32.2-14.9c0 0 0.1 0 0.1 0.1 0.3 1.9-1.5 4.5-2.5 5.9 0 0.1-0.1 0 0 0 1-1.6 2.3-3.5 2.4-5.4 0-0.6 0.1-0.6-0.3-0.3q-2.6 1.1-5.1 2.3-8.9 4.1-17.8 8.2-3.5 1.6-7 3.2c-1 0.5-2.5 0.6-1.2 1.6 4.8 3.8 11.4 0.1 16.2-1.8 4.4-1.8 9.9-3.7 12.8-7.8 0 0 0 0 0 0z"/><g style="opacity:.7;mix-blend-mode:multiply"><path class="h" d="m831.6 137.4c-3.3 4-11 7.3-20.2 10.8-9.1 3.6-12.1 0.5-12.1 0.5l36.2-17.4c0 0-0.7 2.1-3.9 6.1z"/></g><g style="opacity:.7;mix-blend-mode:multiply"><path class="i" d="m922.7 94.9c-2.9 4.3-12.2 7.5-19.4 10.3-7.2 2.8-10.3-1.4-10.3-1.4l32.1-14.8c0 0 0.4 1.6-2.4 5.9z"/></g><path class="j" d="m516.6 369.4c-27.7 21.4-84.5 21.5-99.2 1.9-6.8-9.3-7.1-16.3-5.9-24.9 0 0 6.8-29 42.3-39.1 18.4-5.2 30.9-6.2 41.2-3.9-52-0.2-50.3 61.9-31.9 72.7 18.4 10.8 53.5-6.7 53.5-6.7z"/><path class="b" d="m463.1 376.1c-10.2-6.1-12.2-21.6-11.6-32.3 0.9-15.4 8.9-30 23.4-36.5 6.3-2.9 13.2-3.9 20.1-3.9 0 0 0.1 0 0 0-10.4-2.3-21.1-0.9-31.3 1.4-11.6 2.6-22.7 6.2-32.2 13.4-9 6.7-17.2 17-20 28.1-2.5 9.7 1.3 20.9 8.4 27.7 5.7 5.5 13.8 8.2 21.3 9.8 19.4 4.2 40.9 1.9 59.2-5.3 5.8-2.3 11.3-5.3 16.3-9.1 0 0-0.1 0-0.1 0-6 2.9-12.3 5.2-18.7 7.1-10.9 3.1-24.4 5.5-34.8-0.4 0 0-0.1 0-0.1 0 7.9 4.5 17.5 4 26.2 2.5 8.1-1.5 16-4.2 23.5-7.4q1.5-0.6 2.9-1.3c1.5-0.7 0.9-0.4-0.4 0.5-4.2 3.1-8.9 5.5-13.7 7.6-10.5 4.4-21.9 6.7-33.2 7.5-10.5 0.7-21.2 0-31.4-2.8-8.5-2.3-16.1-6.3-21.1-13.8-4.6-6.9-6.4-16.2-3.8-24.2 1.7-5.2 4.5-10.1 7.7-14.5 6-8.3 14.3-14.6 23.5-19 6.8-3.1 14.1-4.9 21.3-6.5 6.2-1.4 12.6-2.4 18.9-2.4q4.2-0.1 8.3 0.5c0.8 0.1 2.2 0.6 2.7 0.6q-2.2 0-4.4 0.2c-4 0.3-8.1 1-11.9 2.4-7.1 2.4-13.3 6.8-17.8 12.7-7.1 9.3-9.7 21.5-8.8 32.9 0.7 8.7 3.6 19.7 11.5 24.5 0.1 0 0.1 0 0.1 0z"/><path class="k" d="m514.4 312.8c-5.2-4.5-11.9-7.6-18.5-9.2-3.1-0.7-6.8 0-9.9 0.5-2.5 0.4-4.9 0.9-7.3 1.7-8.2 2.8-15.4 8.1-20.1 15.4-7.4 11.8-9.2 27.4-5.1 40.7 1.6 5.1 4.2 10.5 8.7 13.6 8.7 5.9 20.9 4.5 30.5 2.3 7.6-1.8 15.1-4.4 22.3-7.7 7.2-3.3 12.2-12.2 13.1-19.9 1.6-13.2-5.2-27.5-13.7-37.4 0-0.1 0.2-0.1 0.2 0 5.9 6.9 10.6 15.7 12.7 24.6 1.7 6.7 1.8 14-1.2 20.5-2.2 4.7-5.9 9.9-10.8 12.2-6.7 3.1-13.6 5.6-20.8 7.3-8.6 2.1-18.4 3.6-27 0.7-11.5-3.9-15.5-16.5-16.1-27.7-0.8-14 3.7-29.1 14.9-38.1 6.5-5.1 14.4-7.9 22.5-8.7 1.9-0.1 4.4-0.7 6.2-0.2 2.9 0.6 5.6 1.7 8.3 2.7 4.2 1.4 8 3.9 11.3 6.7 0 0-0.1 0-0.2 0z"/><path class="k" d="m575.7 280c-1.5-7.8-7.6-14.6-15.3-16.6-8.6-2.3-17.5 0.3-25.8 3.1-8.7 3-17.3 6.6-25.7 10.3-11.6 5.2-23.2 10.7-35.5 13.9-8.6 2.2-17.2 4.6-25.9 7q-22.7 6.4-45.5 13-2.4 0.7-4.9 1.3-2.4 0.7-4.9 1.4c-0.4 0.1-0.2 0 0.1-0.1q1-0.1 1.9-0.2c2.6-0.2 5.2-0.2 7.8 0 3 0.3 5.8 1.5 8.8 1.9 3.5 0.6 7 0 10.4 0.4 1 0.2 2.4 0.3 2.9 1.3 0.9 1.8-0.6 3-2.1 3.7-3.9 1.9-8.3 2.8-12.4 3.9-12.1 3-24.1 6.1-36.1 9.4q-6.5 1.8-13 3.6-1.5 0.5-3 0.9c-0.7 0.2 3.2 3.2 3.8 3.5 7.4 3.9 17.1 2.5 24.7 0 1.1-0.3 2.6 0.9 3.5 1.4q5.4 2.6 10.9 5.2c2.2 1 4 0.9 6.3 0.1q2.4-0.9 4.7-2c0.3-0.2 0.7-2.3 0.8-2.6 5.2-14.5 17-26.3 30.9-32.6 6.1-2.7 12.4-4.5 18.9-6 5.8-1.4 11.7-2.5 17.6-2.9 4.7-0.2 9.4-0.1 14 0.8 2.1 0.4 4.2 0.9 6.3 1.6 1.6 0.6 2.9 1.5 4.6 0.9 7.2-2.3 15.1-2.8 22.6-3.5 9.6-0.9 19.1-1.5 28.7-2q4.9-0.2 9.8-0.5c4.1-0.3 8.9-1.1 10.8-5.3 0.1-0.3 0.3-1.5 0.5-1.7 1.5-0.9 3-2 4.1-3.4 1.9-2.5 0.1-4.3-1.8-6.2q-1.7-1.6-3.5-3c0 0 0.1 0 0.2 0 1.9 1.5 5.7 4 6.2 6.6 0.4 1.7-1.3 3.1-2.4 4.1-0.4 0.4-2.6 1.6-2.7 2-0.8 5.6-7.3 6.7-11.9 7-16.4 0.9-32.8 1.5-49 3.7-3.6 0.5-7.3 1-10.9 2.1-0.4 0.1-1.6 0.8-2 0.6-2.1-0.9-4.2-1.7-6.5-2.2-12.2-3.2-25.2-1.1-37.3 2-11.9 3-23.1 7.6-32.2 16-5.4 5.1-10 11.1-13.1 17.8-0.8 1.8-1.6 3.7-2.2 5.6-0.4 1.3-0.4 1.2-1.8 1.8-1.9 0.8-5.8 3.2-8 2.1q-4.6-2.2-9.3-4.4-2.6-1.3-5.1-2.5c-0.5-0.2-1.2-0.7-1.4-0.6-2.5 0.8-5.1 1.4-7.6 1.8-7.4 1.2-16.5 1.2-21.7-5.2q0-0.1 0.1-0.1c16.8-4.8 33.8-9.3 50.8-13.6 4.4-1.1 9.2-2 13.3-3.9 1.4-0.7 5.2-3.4 1.9-4.7-3-1.3-6.7-0.3-9.8-0.6-2.9-0.2-5.4-1.3-8.2-1.8-4.3-0.7-8.8-0.8-13.2-0.1 0 0-0.2-0.1-0.1-0.1 26.5-7.3 52.9-15.3 79.5-22.2 12.2-3.2 23.6-8.2 35.1-13.4 12.5-5.6 25.5-11.8 39.1-14.5 7.8-1.6 16.7-1.3 23.1 4.3 3.6 3.2 6.4 7.6 7.3 12.4 0 0-0.2 0-0.2 0z"/><path class="l" d="m582 286.6c0.8 2.4-5.1 6.1-5.1 6.1 0 0-0.6 6.1-9.6 6.8-9 0.7-53.6 2.2-64 6.6q-0.9-0.4-1.9-0.7-0.1-0.1-0.2-0.1-0.9-0.4-1.8-0.7-0.1 0-0.3-0.1-0.9-0.3-1.9-0.6-0.1 0-0.2 0-1.8-0.5-3.8-0.9-0.1 0-0.3 0-0.9-0.2-1.8-0.3-0.1 0-0.2 0-0.4-0.1-0.9-0.1-0.4-0.1-0.9-0.1-0.1 0-0.2 0-1-0.1-2-0.2-0.1 0-0.3 0-0.9 0-1.9-0.1 0 0-0.1 0-1 0-2.1 0.1-0.2 0-0.4 0-2.1 0-4.4 0.2-0.2 0.1-0.5 0.1-1.1 0.1-2.2 0.2-0.2 0-0.3 0.1-1 0.1-2.2 0.3c-15.2-0.7-71.2 7.7-71.2 7.7 0 0 51.6-15 72.5-20.3 20.8-5.4 42.5-19.3 68.5-26.5 26.1-7.2 32.6 11.2 33.5 15.9 0 0 5.4 4.2 6.2 6.6z"/><path class="b" d="m575.8 280c-0.8-3.9-2.8-7.8-5.6-10.7-5.8-6.2-14.3-7.7-22.4-6.4-11.9 2-23.4 7.1-34.3 11.9-9.9 4.3-19.6 9-29.8 12.7-8.9 3.2-18.3 5.3-27.5 7.8q-14.7 4.1-29.3 8.2-11 3.2-21.9 6.3-1.9 0.5-3.7 1.1c0.8-0.3 2.3-0.4 3.3-0.5 16.3-2.4 32.6-4.6 49-6.2 7.4-0.7 14.8-0.7 22.1-1.5 5.5-0.6 10.9-0.7 16.3 0.1 2.4 0.4 4.8 0.9 7.1 1.7 1.9 0.6 3.5 1.7 5.5 1.1 7.3-2.3 15.5-2.8 23.1-3.5 9.4-0.9 18.7-1.5 28.1-2q4.9-0.2 9.8-0.5c4.1-0.3 9-1.1 10.8-5.3 0.1-0.3 0.3-1.5 0.5-1.7 1.4-0.8 2.7-1.8 3.8-3 2.2-2.5 1-4.2-1.1-6.2q-1.8-1.8-3.8-3.4c-0.1 0 0 0 0 0 2.5 1.9 8.3 5.8 5.3 9.2-1.2 1.4-2.6 2.5-4.1 3.5-0.2 0.1-0.5 1.5-0.6 1.9-1.8 3.3-5.5 4.7-9.1 4.9-7 0.5-14 0.8-21.1 1.2-9.9 0.6-19.8 1.3-29.6 2.6-3.7 0.5-7.5 1-11.1 2.1-0.4 0.1-1.9 0.9-2.2 0.7-2.6-0.8-5.1-2-7.8-2.6-6.5-1.4-13.2-1.5-19.8-0.7-3.2 0.3-6.4 0.3-9.7 0.5-8.7 0.4-17.5 1.4-26.2 2.4q-19.3 2.3-38.5 5.2c0 0-0.1-0.1 0-0.1 23.1-6.7 46.3-13.4 69.6-19.5 12.1-3.2 23.4-8 34.8-13.1 12.8-5.7 26-12.1 39.8-14.9 7.7-1.5 16.4-1.3 22.7 4 3.8 3.2 6.7 7.8 7.6 12.7 0 0 0 0 0 0z"/><path class="m" d="m575.8 280c0 0 5.4 4.2 6.2 6.6 0.8 2.4-5.1 6.1-5.1 6.1 0 0-0.6 6.1-9.6 6.8-9 0.7-53.6 2.2-64 6.6q-0.9-0.4-1.9-0.7-0.1-0.1-0.2-0.1-0.9-0.4-1.8-0.7-0.1 0-0.3-0.1-0.9-0.3-1.9-0.6-0.1 0-0.2 0-1.8-0.5-3.8-0.9-0.1 0-0.3 0-0.9-0.2-1.8-0.3-0.1 0-0.2 0-0.4-0.1-0.9-0.1c0 0 69.4-16.4 78.3-18 8.9-1.6 7.5-4.6 7.5-4.6z"/><path class="n" d="m568.3 284.6c-8.2 1.5-16.4 3.6-24.5 5.4q-23.4 5.4-46.7 10.9-2.9 0.7-5.8 1.4-0.6 0.1-1.2 0.3c1.3-0.3 4 0.5 5.4 0.9 2.5 0.6 4.9 1.3 7.2 2.3 1.1 0.5 3-0.5 4.1-0.8 3.5-0.9 7.2-1.4 10.8-1.9 9.7-1.2 19.4-1.9 29.2-2.4 7-0.5 14.3-0.3 21.3-1.3 3.7-0.5 8-2.4 8.8-6.5 0.1-0.7 1.4-1.2 1.9-1.6 1.3-1 4.1-3.1 3-5.1-1.2-2.2-3.3-4-5.2-5.6-0.7-0.5-0.6-0.8-0.7-0.1-0.1 2.9-5.5 3.7-7.6 4.1 0 0 0 0 0 0 1.4-0.3 8.7-1.6 7.5-4.6 0 0 0 0 0 0 2.2 1.7 4.4 3.5 5.9 5.8 1.5 2.3-1.6 4.7-3.2 5.8-0.9 0.7-1.4 0.8-1.7 1.8-0.3 1.1-0.9 2.1-1.6 2.9-2.7 2.7-6.3 3.1-9.8 3.4-8 0.4-15.9 0.8-23.8 1.3-9.5 0.7-19.1 1.3-28.5 2.8-3.2 0.5-6.5 1-9.5 2.2-0.5 0.2-0.3 0.1-0.9-0.1-1.4-0.6-2.8-1.1-4.2-1.6q-4.2-1.2-8.5-1.7c0 0 0 0 0 0q0.5-0.2 1-0.3 19.5-4.6 39-9.1c12.7-3 25.4-6.3 38.3-8.6 0 0 0.1 0 0 0z"/><g style="opacity:.7;mix-blend-mode:multiply"><path class="o" d="m575.8 280c0 0 5.4 4.2 6.2 6.6 0.8 2.4-5.1 6.1-5.1 6.1 0 0-0.6 6.1-9.6 6.8-9 0.7-53.6 2.2-64 6.6q-0.9-0.4-1.9-0.7-0.1-0.1-0.2-0.1-0.9-0.4-1.8-0.7-0.1 0-0.3-0.1-0.9-0.3-1.9-0.6-0.1 0-0.2 0-1.8-0.5-3.8-0.9-0.1 0-0.3 0-0.9-0.2-1.8-0.3-0.1 0-0.2 0-0.4-0.1-0.9-0.1c0 0 69.4-16.4 78.3-18 8.9-1.6 7.5-4.6 7.5-4.6z"/></g><path class="p" d="m401.3 310.9c0 0 56-8.4 71.2-7.7q-0.2 0-0.5 0-1.2 0.2-2.4 0.4-0.2 0.1-0.4 0.1-1.2 0.2-2.3 0.4-0.2 0.1-0.5 0.1-1.3 0.3-2.6 0.6-0.3 0.1-0.6 0.1-1.2 0.3-2.5 0.6-0.2 0.1-0.4 0.1-1.4 0.4-2.8 0.7-0.3 0.1-0.7 0.2-1.5 0.4-3 0.8c-35.5 10.1-42.3 39.1-42.3 39.1 0 0-7.4 3.7-9.3 2.8-1.9-0.9-15.8-7.6-15.8-7.6 0 0-21.1 7.3-29.3-3.3 0 0 26.3-7.6 43.9-11.9 17.6-4.3 24.5-6 23.2-9.3-1.3-3.3-8.9-0.3-16.1-2.7-7.1-2.4-16.2-1-16.2-1z"/><path class="q" d="m391.9 313.4c3.6-0.5 7.3-0.6 10.9-0.2 3.8 0.5 7.4 2.1 11.3 2.2 2.5 0.1 5.2-0.4 7.7 0.1 1.8 0.4 3.5 2 1.9 3.7-1.7 1.9-5.3 2.6-7.6 3.3-11.9 3.5-24 6.1-35.9 9.3q-11.5 3.1-22.9 6.4c-0.2 0.1 2 2.2 2.2 2.4 1 0.7 2.1 1.4 3.2 1.8 2.4 1 4.9 1.5 7.5 1.6 4.5 0.2 9-0.4 13.3-1.6 0.7-0.1 2.4-1 3.1-0.7q4.6 2.2 9.2 4.4 2.6 1.2 5.2 2.5c2.3 1.1 4.5 0.3 6.8-0.6 1.4-0.6 3.4-0.9 3.9-2.4 1.3-4.5 3.5-8.9 6.1-12.8 4.8-7.3 11.3-13.6 18.8-18.1 10-6 21.6-9.1 33-11.1 0.6-0.1 3.9-0.4 1.8-0.5q-1.2 0-2.3 0.1-2.4 0-4.7 0.2c-4.3 0.2-8.6 0.6-12.9 1-9.3 1-18.6 2.1-27.9 3.4q-10 1.3-19.9 2.7c-4 0.6-7.9 1.9-11.8 2.9 0 0-0.1 0 0 0q0.1 0 0.2-0.1c3.9-1 7.8-2.3 11.8-2.8q10.1-1.5 20.2-2.8c9.3-1.3 18.6-2.4 28-3.3 6.7-0.7 13.6-1.5 20.4-1.3q0.1 0.1 0 0.1c-14.5 2.1-29.7 6.2-41.4 15.4-7.2 5.6-13.2 12.8-17 21.1-0.9 1.7-1.6 3.6-2.2 5.4-0.4 1.3-0.2 1.2-1.5 1.8-2.1 1-5.8 3.1-8.2 2.3-3.1-1-6-2.9-8.9-4.2q-2.6-1.3-5.3-2.6c-0.4-0.1-1.4-0.8-1.7-0.7-2.3 0.7-4.8 1.3-7.2 1.7-7.5 1.2-16.8 1.4-22-5.1q0 0 0 0c16.9-4.9 33.8-9.4 50.9-13.7 4.4-1.1 9.1-2 13.3-3.9 1.6-0.8 5.3-3.8 1.4-4.9-3-0.9-6.3-0.2-9.4-0.4-2.9-0.3-5.4-1.3-8.2-1.8-4.3-0.8-8.9-0.8-13.2-0.2 0 0-0.1 0 0 0z"/><path class="r" d="m516.6 369.4c-27.7 21.4-84.5 21.5-99.2 1.9-6.8-9.3-7.1-16.3-5.9-24.9 0 0 6.8-29 42.3-39.1q1.5-0.4 3-0.8 0.4-0.1 0.7-0.2 1.4-0.3 2.8-0.7 0.2 0 0.4-0.1 1.3-0.3 2.5-0.6 0.3 0 0.6-0.1 1.3-0.3 2.6-0.6 0.3 0 0.5-0.1 1.1-0.2 2.3-0.4 0.2 0 0.4-0.1 1.2-0.2 2.4-0.4 0.3 0 0.5 0 1.2-0.2 2.2-0.3 0.1-0.1 0.3-0.1 1.1-0.1 2.2-0.2 0.3 0 0.5-0.1 2.3-0.2 4.4-0.2 0.2 0 0.4 0 1.1-0.1 2.1-0.1 0.1 0 0.1 0 1 0.1 1.9 0.1 0.2 0 0.3 0 1 0.1 2 0.2 0.1 0 0.2 0 0.9 0.1 1.8 0.2 0.1 0 0.2 0 0.9 0.1 1.8 0.3 0.2 0 0.3 0 0.9 0.2 1.8 0.4c-52-0.2-50.3 61.9-31.9 72.7 18.4 10.8 53.5-6.7 53.5-6.7z"/><path class="b" d="m463.1 376.1c-10.4-6.2-12.4-22.3-11.5-33.1 1.1-15.2 9.1-29.4 23.3-35.7 6.3-2.9 13.3-3.9 20.1-3.9 0.1 0 0 0 0 0-10.9-2.3-21.9-0.8-32.7 1.7-11.4 2.7-22.4 6.5-31.8 13.8-8.5 6.7-16.4 16.7-19 27.4-2.4 10 1.3 21.6 9 28.3 5.9 5.2 13.7 7.8 21.3 9.3 19.6 4.1 41.4 1.7 59.8-5.9 5.3-2.2 10.4-5.1 15.1-8.6 0 0-0.1 0-0.1 0-5.8 2.9-12 5.1-18.2 6.9-11 3.2-24.8 5.8-35.3-0.2 0 0-0.1 0-0.1 0 7.7 4.4 17.1 4 25.6 2.6 8.3-1.5 16.4-4.2 24.1-7.5q1.5-0.6 2.9-1.3c1-0.5 1.4-0.8 0.1 0.2-4.2 3.1-8.8 5.6-13.6 7.6-10.1 4.4-21 6.7-31.9 7.6-10.8 0.9-21.8 0.4-32.2-2.3-8.9-2.3-17-6.3-22.2-14.1-4.6-6.9-6.4-16.2-3.8-24.2 1.8-5.3 4.6-10.3 7.9-14.8 5.9-8 13.8-14.1 22.7-18.4 5.8-2.7 11.9-4.5 18.1-6 6.2-1.4 12.5-2.6 18.8-3.1 3.2-0.2 6.4-0.2 9.6 0.1q2.1 0.2 4.1 0.5c2.6 0.5 0.4 0.4-0.1 0.4q-0.9 0-1.9 0.1c-4.4 0.2-8.9 1-13.1 2.5-7.2 2.4-13.5 7-18.1 13.1-7 9.3-9.4 21.5-8.5 32.9 0.8 8.6 3.7 19.4 11.5 24.1 0.1 0 0.1 0 0.1 0z"/><path class="s" d="m514.5 312.8c2.5 2.9 30.4 35.6 2.1 56.6 0 0-35.1 17.5-53.5 6.7-18.4-10.8-20.1-72.9 31.9-72.7q1 0.2 2 0.5 0.1 0 0.2 0 1 0.3 1.9 0.6 0.2 0.1 0.3 0.1 0.9 0.3 1.8 0.7 0.1 0 0.2 0.1 1 0.3 1.9 0.7c0 0 8.2 3.2 11.2 6.7z"/><path class="t" d="m503.3 306.1c-3.2-1.3-6.7-2.8-10.2-2.7-2.8 0.1-5.5 0.3-8.2 0.8-4.9 0.9-9.6 2.5-13.9 5-7.1 4.3-12.6 10.8-15.8 18.5-5.1 12.2-5.5 27.7 0.5 39.7 3.1 6.1 7.7 10 14.6 11.4 10.3 2.2 21.4-0.2 31.3-3.5q5.6-1.8 11.1-4.1c1.8-0.8 3.6-1.5 5.2-2.8 8.6-7.1 12.8-17.2 10.7-28.3-1.6-8.2-5.6-15.9-10.4-22.6-1.2-1.6-2.4-3.3-3.7-4.7-2.9-3.2-7.3-5.1-11.2-6.7-0.1 0 0 0 0 0 4.5 1.8 9.1 4 12.2 7.8 3.2 3.9 6 8.2 8.3 12.6 3.1 6.1 5.5 12.8 5.4 19.7 0 7.8-3.3 14.9-9 20.2-4.2 3.9-9.2 5.7-14.6 7.6-8.5 3.1-17.6 5.6-26.7 5.6-6.8 0.1-14.7-1.1-19.5-6.5-3.7-4.1-5.8-9.5-6.9-14.9-2.9-13.2-0.7-28.5 7.8-39.5 4.4-5.8 10.4-10.2 17.3-12.6 4-1.4 8.2-2.2 12.4-2.5 2.2-0.2 4.3-0.4 6.4 0.1q3.5 0.9 6.9 2.4c0 0 0 0 0 0z"/><g style="opacity:.7;mix-blend-mode:multiply"><path class="u" d="m514.5 312.8c2.5 2.9 30.4 35.6 2.1 56.6 0 0-35.1 17.5-53.5 6.7-18.4-10.8-20.1-72.9 31.9-72.7q1 0.2 2 0.5 0.1 0 0.2 0 1 0.3 1.9 0.6 0.2 0.1 0.3 0.1 0.9 0.3 1.8 0.7 0.1 0 0.2 0.1 1 0.3 1.9 0.7c0 0 8.2 3.2 11.2 6.7z"/><path class="t" d="m503.3 306.1c-3.2-1.3-6.7-2.8-10.2-2.7-2.8 0.1-5.5 0.3-8.2 0.8-4.9 0.9-9.6 2.5-13.9 5-7.1 4.3-12.6 10.8-15.8 18.5-5.1 12.2-5.5 27.7 0.5 39.7 3.1 6.1 7.7 10 14.6 11.4 10.3 2.2 21.4-0.2 31.3-3.5q5.6-1.8 11.1-4.1c1.8-0.8 3.6-1.5 5.2-2.8 8.6-7.1 12.8-17.2 10.7-28.3-1.6-8.2-5.6-15.9-10.4-22.6-1.2-1.6-2.4-3.3-3.7-4.7-2.9-3.2-7.3-5.1-11.2-6.7-0.1 0 0 0 0 0 4.5 1.8 9.1 4 12.2 7.8 3.2 3.9 6 8.2 8.3 12.6 3.1 6.1 5.5 12.8 5.4 19.7 0 7.8-3.3 14.9-9 20.2-4.2 3.9-9.2 5.7-14.6 7.6-8.5 3.1-17.6 5.6-26.7 5.6-6.8 0.1-14.7-1.1-19.5-6.5-3.7-4.1-5.8-9.5-6.9-14.9-2.9-13.2-0.7-28.5 7.8-39.5 4.4-5.8 10.4-10.2 17.3-12.6 4-1.4 8.2-2.2 12.4-2.5 2.2-0.2 4.3-0.4 6.4 0.1q3.5 0.9 6.9 2.4c0 0 0 0 0 0z"/></g><g style="opacity:.5;mix-blend-mode:multiply"><path class="v" d="m472.1 320.5c9.1-10.6 37.4-16.1 49 9.4 13.6 30.2-38.7 55.6-54.7 26.6-5.7-10.4-3.4-25.4 5.7-36z"/><path class="t" d="m472.1 320.6c5.4-6.2 14.3-8.9 22.3-8.9 10.7 0 19.8 5.9 25 15 4.6 7.9 5.1 16.7 0.8 24.7-4 7.4-11.3 12.6-19 15.5-10.5 4-23.1 3.2-31.1-5.4-10.9-11.5-7.4-29.8 2-40.9 0-0.1 0-0.1-0.1-0.1-7.5 9-11.1 21.7-7 33 2.7 7.5 9.3 13.1 17 15 14.3 3.5 31.1-4.5 38.2-17 7.7-13.6-0.4-30.9-13.8-37.2-10.7-5.2-26.3-2.9-34.4 6.2 0 0.1 0.1 0.1 0.1 0.1z"/></g><path class="k" d="m913 123.6c-6.7 2.6-13.5 5.3-20.2 7.8-12.7 4.9-25.3 9.7-38 14.5-3 1.1-6.1 2.1-8.6 4.2-1.5 1.3-3.2 2.3-4.8 3.4q-4.8 3.4-9.6 6.8-1.8 1.3-3.5 2.5c-1.5 1 0.5 0 1.2-0.3 9.3-3.4 18.6-6.7 28.1-9.4 6.2-1.7 12.5-3.3 18.9-4.4 1.2-0.2 4.8-0.1 5.6-1.1q0.6-0.7 1.2-1.5c4.6-5.1 10.6-9 17.1-11.3 4.9-1.8 10.1-2.8 15.4-2.9 0.5 0 4.8 0 4.8 0q0-1.1 0.1-2.3c0-0.8-2.8-2.4-3.5-2.9q-2.1-1.6-4.3-3.1c-0.1-0.1 0.1-0.1 0.1-0.1q4 2.9 7.9 5.8c0.2 0.2-0.1 2.3-0.2 2.7 0 0.1 0 0.1-0.1 0.1-10.4-0.6-20.9 1.7-29.6 7.6-3.3 2.2-6.7 4.9-9 8.2 0 0.1-1.4 0.2-1.5 0.2q-2.4 0.4-4.7 0.8-4.4 0.8-8.7 1.8-8.9 2.1-17.5 4.9c-7.4 2.4-14.7 5.3-22.1 7.7 0 0-0.2 0-0.1 0q4.6-3.3 9.3-6.6c2.9-2 6.2-3.9 8.9-6.3 4.4-3.8 11.1-5.3 16.4-7.3q11.6-4.4 23.1-8.9c9.3-3.5 18.5-7.1 27.8-10.7 0 0 0.2 0 0.1 0.1z"/><path class="w" d="m947.3 195.2c-4.6 5.9-10.4 14.8-19.6 24.5-11.5 3.2-20.5-3-28.9-10.4-10.3-9.1-17.4-30.1-19.3-36.2-4.8-16.1 2.5-25.2 2.5-25.2 0 0 12-17.4 38.6-15.9l0.2-2.7c16.4 12.4 26.5 22.5 29.2 25.4 9.5 10 10.5 23.4-2.7 40.5z"/><path class="x" d="m950 154.7c-3.6-3.8-7.5-7.4-11.5-10.9q-5.4-4.7-11-9.2-1.8-1.5-3.7-2.9c-0.3-0.3-3-2-3-2.3q-0.1 1.3-0.1 2.6 0 0-0.1 0c-13.8-0.7-28.4 3.8-37.6 14.6-6.6 7.8-5.8 19.2-2.8 28.3 3.1 9.7 7 19.5 13 27.8 3.5 5 8.1 9.2 13.2 12.6 6.1 4 17.3 8.8 23.2 2.3 4.8-5.3 9.1-10.8 13.3-16.5 3.7-5.1 7.9-10 10.6-15.7 2.6-5.3 4.3-11.2 3.4-17-0.8-5.3-3.3-9.8-6.9-13.7 0 0 0.1 0 0.1 0 7 7.6 8.8 17.5 5 27.1-2.4 6.2-6.3 11.3-10.2 16.7-3.6 4.8-7.1 9.7-11 14.3q-1.8 2.1-3.6 4.1c-0.6 0.6-1.9 2.6-2.6 2.8-2.4 0.6-4.8 1-7.3 0.9-5.4-0.4-10.3-2.6-14.7-5.8-4.4-3.1-8.6-6.6-11.8-11-3.2-4.3-5.8-9.1-8.1-14-5.5-12.3-13.1-30.2-3.5-42.4 3.5-4.5 8.3-8.1 13.4-10.6 4.2-2.1 8.8-3.6 13.5-4.3 2.7-0.4 5.5-0.6 8.2-0.6 1 0 3.2 0.6 3.2-0.6q0.1-1 0.1-2c0 0 0.1 0 0.1 0 10.3 7.8 20.4 16.1 29.3 25.4 0 0-0.1 0.1-0.1 0z"/><path class="y" d="m415.1 300.8c1.7 1.7 3.5 3.2 5.4 4.5-5.2 1.5-9.7 2.8-12.9 3.7-3.3-2-5.7-4-7.1-5.3-3.5-3.3-2.5-3.9-0.4-4.5 2-0.5 2.6-0.6 6.5-1.3 3.9-0.8 4.5-1.3 8.5 2.9z"/><path class="x" d="m406.6 297.9c-1 0.2-9.1 1.1-8.3 3 0.8 1.9 2.9 3.5 4.5 4.7 1.5 1.3 3.9 3.7 5.9 3.1q3.3-1 6.6-1.9 1.7-0.5 3.4-1c1.9-0.5 0.6-1.2-0.3-2-2-1.6-3.6-3.6-5.5-5.1-2-1.6-4-1.3-6.3-0.8 0 0 0 0 0-0.1 1.6-0.3 3.5-0.9 5 0 1.1 0.6 2.1 1.5 2.9 2.4 1.9 1.9 3.8 3.6 6 5.1q0 0 0 0-3.8 1.1-7.6 2.2c-1.7 0.5-3.5 1.3-5.3 1.5-0.5 0.1-2-1.2-2.3-1.5-1.4-0.9-2.8-2-4-3.1-0.6-0.5-4.6-3.6-2.6-4.7 2.2-1.2 5.4-1.4 7.9-1.9 0 0 0.1 0.1 0 0.1z"/><g style="opacity:.3;mix-blend-mode:multiply"><path class="z" d="m415.1 300.8c1.7 1.7 3.5 3.2 5.4 4.5-5.2 1.5-9.7 2.8-12.9 3.7-3.3-2-5.7-4-7.1-5.3-3.5-3.3-2.5-3.9-0.4-4.5 2-0.5 2.6-0.6 6.5-1.3 3.9-0.8 4.5-1.3 8.5 2.9z"/></g><path class="A" d="m928.3 219.5c-17.4 18.2-47.1 39-103.8 47.8-28.6 4.4-58.6 8.8-86 12.7 0 0-28-5.8-44.5-23.1-7.4-7.8-6.6-7.5-13.8-6.2-7.2 1.4-8.3 1.5-12.1 2.6-3.9 1.1-5.6 2.2 0.8 8.2 6.3 5.9 21.6 18.3 46.7 21.8-45 6.3-78.4 10.7-78.4 10.7 0 0-35.7 9.2-53.1 11.1-17.4 1.9-69 7.5-69 7.5-5.4-4.8-11.2-6.7-11.2-6.7 10.5-4.4 55.1-5.9 64.1-6.6 8.9-0.7 9.6-6.8 9.6-6.8 0 0 5.9-3.7 5.1-6.1-0.8-2.5-6.2-6.6-6.2-6.6-0.9-4.7-7.5-23.1-33.5-15.9-26 7.2-47.7 21.1-68.6 26.4-12.8 3.3-37 10.2-54 15-1.9-1.3-3.7-2.8-5.3-4.4-4-4.2-4.6-3.8-8.5-3-3.9 0.7-4.5 0.8-6.6 1.4-2.1 0.5-3 1.2 0.4 4.4 1.5 1.3 3.9 3.3 7.1 5.3-3.5 1-5.6 1.6-5.6 1.6 0 0-58.6-13.2-83.6-56.2 0 0 8.5-1.7 6.9-8-1.8-7.2-8.5-6-8.5-6l-3.6 0.7c0 0-4.3-9.9 9.5-14.3 0 0 37-19.2 87.1-35.2 0 0 132.3-39.7 194.3-56.6 61.9-17 211.4-65.4 264.9-38.6 8.4 4.2 16.2 8.6 23.4 12.9l-16.3 7-41.7 14.9-30 6.7c0 0-4.9 0.7-6.1 5.3-1.2 4.6-1.1 12.9-1.1 12.9 0 0-0.5 4.7 7.1 5.7 7.6 0.9 19.1 1.7 19.1 1.7 0 0 0.6 1.1 6.3-0.9 5.6-2.1 31.6-12.2 53-14.9 0 0-7.2 9.1-2.4 25.2 1.8 6.1 9 27.1 19.3 36.2 8.3 7.4 17.4 13.6 28.8 10.4z"/><path class="x" d="m899.4 209.1c-8-7.3-12.8-18.3-16.6-28.3-3.4-9.3-6.3-19.4-2.4-29 0.5-1.2 1-2.5 1.8-3.6 0.6-0.9 0.7-0.6-1.4-0.2q-2.4 0.3-4.8 0.7c-7.1 1.4-14 3.1-20.9 5.2q-8.8 2.6-17.4 5.7c-3.6 1.3-7.2 3-10.9 3.9-1.9 0.4-3 0-4.8-0.1-6.2-0.4-12.8-0.4-18.8-1.8-2.8-0.6-6.2-2.1-6.2-5.4 0.1-4.3-0.4-9.8 1.4-13.8 1.3-2.9 3.7-4 6.6-4.7q5.4-1.2 10.8-2.4 6.9-1.5 13.8-3c1.7-0.4 3.5-0.6 5.1-1.2q20.6-7.4 41.3-14.8c2.9-1.1 5.8-2.5 8.7-3.7q3.1-1.4 6.1-2.7 0.7-0.3 1.4-0.5c-0.3 0.1-3.9-2.4-4.5-2.8-11.2-6.5-22.4-13-35.1-15.6-22.6-4.6-46.6-2.5-69.2 0.6-27 3.7-53.6 9.5-80 16.1-44.6 11.1-88.8 24.1-133 36.7-46.5 13.3-92.9 27-139.2 40.8-36.7 11-73 23.7-107.4 41-3 1.5-6.4 2.3-8.7 4.9-2.4 2.7-3.3 6.3-2.1 9.7 0.1 0.2 5.3-0.6 6.3-0.4 3.6 0.8 7.1 4.7 6 8.6-0.6 2.1-2.2 3.6-4.2 4.5q-1 0.4-1.9 0.7c-1.2 0.4-0.6 0.7 0 1.7 3.7 6 8.1 11.6 13.1 16.7 9.2 9.4 20.1 17.1 31.7 23.2 8.8 4.7 17.9 8.6 27.4 11.8 3.7 1.2 8.4 3.6 12.3 2.5 0.3-0.1 3.9-0.9 2.8-1.7q-1.2-0.8-2.5-1.7-1.6-1.2-3.1-2.6c-0.9-0.8-3.6-2.8-2.5-4.2 0.9-1.1 4-1.3 5.4-1.5 2.1-0.4 4.5-1.3 6.7-1 1.9 0.3 3.5 2.3 4.6 3.5 1.3 1.2 4.2 4.7 6.1 4.2q2.6-0.8 5.2-1.5 11.7-3.3 23.5-6.6c14.1-4 28.5-7.1 42.1-12.8 16.2-6.7 31.9-14.8 48.8-19.7 9.6-2.8 21.3-4.1 29.1 3.6 2.4 2.2 4.3 5 5.5 8.1 0.4 1.1 0.8 2.2 1 3.4 0.2 0.5 1.3 1.1 1.7 1.5q1.5 1.3 2.9 2.8c1.5 1.6 2.3 2.9 1 4.8-1 1.5-2.8 2.8-4.3 3.7-0.5 0.3-0.9 2.5-1.4 3.1-1.2 1.5-2.9 2.7-4.9 3.2-3.6 1-7.7 0.9-11.4 1.1q-8.1 0.4-16.2 0.9c-11.4 0.7-23.1 1.3-34.3 3.7-1.8 0.3-3.6 0.7-5.3 1.4-0.5 0.2 0.9 0.5 1.3 0.7q1.6 0.7 3.1 1.5 2.5 1.4 4.9 3.1c0.3 0.3 1.4 1.5 1.8 1.4q1-0.1 2.1-0.2 30.7-3.3 61.4-6.7c11.7-1.2 23.1-3.4 34.6-5.9q8.3-1.9 16.7-3.9c2.3-0.6 4.7-1.5 7.1-1.8 21.8-2.9 43.6-5.9 65.4-8.9q4.1-0.6 8.2-1.2 1.8-0.2 3.6-0.5c1-0.1-2.1-0.6-2-0.6q-5.5-1-10.9-2.6c-6-1.8-11.9-4.3-17.3-7.5-4.4-2.5-8.6-5.3-12.4-8.6-1.7-1.4-8.9-6.6-7-9.1 0.9-1.4 3-1.7 4.4-2.1 2.3-0.6 4.6-1 7-1.4 3-0.6 8.4-2.8 11.4-0.8 2.5 1.6 4.4 4.1 6.4 6.2 2.7 2.7 5.6 5.3 8.7 7.5 6 4.2 12.6 7.7 19.4 10.4 4.5 1.8 9.1 3.4 13.8 4.6 4.8 1.2 10-0.5 14.9-1.2q29.3-4.2 58.5-8.6c31.6-4.8 63.1-10.9 90.8-27.7 8.8-5.3 17.1-11.5 24.5-18.7q1.3-1.3 2.6-2.6c1.5-1.5-0.8-0.6-1.9-0.5-3.1 0.4-6.1 0.2-9.2-0.6-6.3-1.7-11.8-6.1-16.7-10.4 0 0 0.1 0 0.1 0 8.2 7.1 17.5 13.3 28.8 10.4 0-0.1 0 0 0 0-3.8 4-7.9 7.8-12.2 11.3-20.5 16.6-45.5 26.7-71 32.6-18.7 4.3-37.9 6.6-56.9 9.4q-14.6 2.2-29.3 4.3-7.4 1.1-14.8 2.2c-1.7 0.2-4.2 1.1-5.8 0.7-8.3-1.8-16.4-4.9-24-8.7-5.8-2.9-11.5-6.4-16.5-10.7-2.9-2.6-5.4-5.6-8.2-8.2-2.8-2.6-5.1-2.5-8.6-1.8-3.2 0.6-6.5 1.1-9.7 1.9-1.7 0.4-4.7 0.7-6.1 2-2.9 2.9 6.4 9.4 8.7 11.2 12.1 9.5 26.5 15.3 41.7 17.6 0 0 0.1 0 0.1 0q-34.6 4.8-69.2 9.5c-3 0.4-6.4 0.5-9.4 1.3q-8.1 2-16.3 3.9c-11.9 2.8-24 5.7-36.1 7-10.4 1.2-20.7 2.3-31.1 3.4q-15.9 1.7-31.8 3.5-3.3 0.3-6.5 0.7-0.1 0-0.2 0c-1.5-0.8-2.7-2.3-4.2-3.2-2.2-1.4-4.5-2.6-7-3.5 0 0 0 0 0 0 2.6-1.1 5.4-1.6 8.1-2.1 11.2-1.9 22.6-2.6 33.9-3.3q7.8-0.4 15.6-0.8c4.3-0.3 9.9 0.2 13.4-2.8 1.2-1.1 2.3-2.6 2.6-4.2 0.2-0.8 2.1-1.7 2.7-2.2 0.9-0.8 3.1-2.6 2.4-4.1-0.6-1.6-1.9-2.9-3.1-4-0.7-0.6-2.9-1.9-3.1-2.8-1.7-8.1-8.2-15-16.3-16.7-8.4-1.8-16.7 0.7-24.6 3.3-8.8 2.9-17.4 6.6-25.9 10.4-7.3 3.2-14.5 6.6-22 9.4-6.6 2.6-13.3 4.4-20.2 6.2-15.1 4.1-30.2 8.4-45.3 12.7-2.4 0.7-2.9-0.2-4.8-2-1.5-1.3-2.8-2.8-4.3-4-2.6-2.2-4.7-1.3-7.5-0.8-1 0.2-7.9 1-7.3 2.7 1.3 3.4 6.4 6.4 9.3 8.2q0.1 0 0 0c-2 0.6-4.3 2-6.5 1.4q-2.8-0.7-5.5-1.5c-7.9-2.4-15.6-5.3-23.1-8.8-21.6-10.1-41.8-24.8-54.1-45.7q0 0 0 0c4.1-0.9 8.5-4.1 6.6-8.9-2.2-5.8-6.9-5.4-11.8-4.4q0 0-0.1 0c-1.2-3.1-0.6-7.1 1.6-9.6 2.8-3.1 6.8-4.2 10.4-6 11.6-5.7 23.3-10.9 35.2-15.8 36.1-14.8 73.5-25.3 110.9-36.4q69.9-20.6 140-40.3c48.4-13.6 96.7-28.1 146.2-37.3 24.1-4.4 48.7-8 73.2-7.2 9.3 0.4 18.8 1.3 27.8 3.8 12.1 3.5 23.3 10.6 34 17q0 0 0 0.1c-5.4 2.3-10.8 5-16.4 7q-9.8 3.5-19.5 7-10.7 3.8-21.4 7.6c-5.1 1.9-10.9 2.5-16.2 3.7q-6.2 1.4-12.4 2.8c-2.9 0.6-6.3 1.2-7.6 4.3-1.9 4.1-1.9 10-1.7 14.5 0.3 6.9 13.3 6.2 18.3 6.6q3.8 0.3 7.6 0.5c0.6 0.1 1.2 0.4 1.9 0.4 4.7-0.6 9.6-3.1 14.1-4.7 14.1-5 28.7-9.5 43.6-11.4 0 0 0 0 0 0-6 7.8-4.3 19.4-1.5 28 3.9 11.7 9 24.9 18.4 33.4 0 0 0 0-0.1 0z"/><path class="B" d="m737.8 280.2c-7.8 1.2-15.5 2.3-22.8 3.3-25.1-3.5-40.4-15.9-46.8-21.8-6.4-6-4.6-7.1-0.8-8.2 3.9-1.1 4.9-1.2 12.2-2.6 7.2-1.3 6.3-1.6 13.8 6.2 16.5 17.3 44.4 23.1 44.4 23.1z"/><path class="x" d="m693.4 257.1c-2.2-2.2-4.8-6.1-8.1-6.8-1.3-0.3-2.7 0.1-4 0.3q-4 0.7-8 1.5c-2.6 0.5-7.1 0.8-9 2.9-2 2.1 3.6 6.5 4.9 7.6 6.3 5.7 13.5 10.3 21.3 13.9 5.4 2.4 11 4.2 16.8 5.6 2.6 0.6 5.9 1.7 8.6 1.3q6.1-0.9 12.3-1.8 4.8-0.6 9.7-1.3c0 0-0.1-0.1-0.1-0.1-5.3-1.1-10.6-2.9-15.7-4.9-10.6-4.2-20.7-10-28.7-18.2 0 0-0.1 0-0.1 0 11.6 11.9 28.3 19.6 44.4 23.1-0.1 0-2.2 0.4-2.8 0.4q-2.9 0.5-5.8 0.9-6.2 0.8-12.3 1.7c-3.9 0.6-8.2-0.8-12-1.7-3.5-0.9-6.9-2.1-10.3-3.4-9.1-3.5-17.5-8.6-24.8-15.1-1.6-1.4-6.8-5.1-5.5-7.8 0.9-1.9 5.6-2.3 7.4-2.7 3.9-0.8 7.8-1.6 11.6-2.2 4.5-0.6 7.5 4 10.1 6.8 0.1 0 0.1 0 0.1 0z"/><g style="opacity:.4;mix-blend-mode:multiply"><path class="C" d="m737.8 280.2c-7.8 1.2-15.5 2.3-22.8 3.3-25.1-3.5-40.4-15.9-46.8-21.8-6.4-6-4.6-7.1-0.8-8.2 3.9-1.1 4.9-1.2 12.2-2.6 7.2-1.3 6.3-1.6 13.8 6.2 16.5 17.3 44.4 23.1 44.4 23.1z"/></g><path class="D" d="m617.7 298.7q0 0 0 0c-11.2 2.6-24.8 5.4-33.6 6.4-17.4 1.9-69 7.5-69 7.5-5.4-4.8-11.2-6.7-11.2-6.7 10.5-4.4 55.1-5.9 64.1-6.6 8.9-0.7 9.6-6.8 9.6-6.8 0 0 5.9-3.7 5.1-6.1-0.8-2.5-6.2-6.6-6.2-6.6-0.9-4.7-7.5-23.1-33.5-15.9-26 7.2-47.7 21.1-68.6 26.4q-2 0.6-4.3 1.2c0.2-3.8 0.6-8.9 1-10.5 0.7-2.5 0-11.5 23.9-17.1 23.9-5.6 57.5-11.8 65.7-12.6 8.2-0.8 16.4 1.9 30.6 11.4 14.3 9.5 31 20.4 38.8 23.2 0 0-2.7 4.4-8.2 7.7 0 0-1.6 2.4-4.2 5.1z"/><path class="x" d="m622 293.6c3.1-2 6.1-4.5 8.2-7.7q0 0-0.1 0c-5-1.8-9.6-4.7-14.2-7.4-6.1-3.7-12-7.6-18-11.5-9.3-6.2-19.1-13.7-30.5-15.5-6.9-1.1-14.4 0.9-21.3 2-12.1 2.1-24.3 4.5-36.4 7.1-7.4 1.5-14.9 3-22.1 5.3-4.6 1.6-9.2 3.6-12.7 7-4.7 4.7-4.5 12.5-4.9 18.6 0 0 0.1 0 0.1 0 12.6-3.3 24.4-8.2 36.3-13.5 13.2-5.9 26.9-12.5 41.3-15.1 9.7-1.8 19.8 0.6 25.4 9.1 1.4 2 2.4 4.2 3 6.5 0.2 0.8 0.2 1.2 0.8 1.7 1.9 1.5 3.7 3.1 5.1 5 1.4 1.9 0 3.6-1.4 4.9-0.4 0.4-3 1.9-3 2.3-0.4 2.7-2.7 4.8-5 5.8-3 1.4-6.8 1.2-10 1.4q-5.6 0.3-11.3 0.6c-9.2 0.5-18.4 1.2-27.6 2.1-6.5 0.7-13.7 1.1-19.8 3.6q0 0 0 0c1.5 0.5 3 1.3 4.5 2 1.3 0.7 2.6 1.6 3.9 2.4 0.3 0.2 2.3 2.2 2.8 2.3 1 0.1 2.2-0.3 3.2-0.4q10.9-1.1 21.9-2.3c18.5-2 37.3-3.3 55.7-6.6 5.6-1 11.2-2.2 16.9-3.5 1.8-0.4 4.2-0.3 5.6-1.8 1.3-1.4 2.5-2.8 3.6-4.4 0 0-0.1 0-0.1 0-1.3 1.8-2.7 3.5-4.2 5.1-0.4 0.3-2 0.4-2.5 0.6q-1.2 0.2-2.5 0.5-3 0.7-5.9 1.3c-6.9 1.4-13.8 2.8-20.8 3.7-8.2 1.1-16.4 1.9-24.6 2.7q-22.9 2.5-45.8 5c-1 0.1-1.7-1.1-2.5-1.7q-3.5-2.4-7.3-4.2-0.8-0.3-1.7-0.7c-0.1 0 1.2-0.5 1.4-0.6 1.6-0.4 3.1-0.8 4.7-1.1 9.1-1.8 18.5-2.4 27.8-3.1 8.6-0.6 17.2-1.1 25.7-1.5 5.1-0.3 12.9-0.7 13.9-7.1 0.1-0.5 2.3-1.7 2.7-2 1.1-1 2.7-2.5 2.4-4.1-0.3-1.7-2.5-3.4-3.6-4.4-0.9-0.9-2.5-1.6-2.8-2.9-1.1-5-4.2-9.8-8.4-12.8-7.4-5.1-16.6-4.6-24.9-2.4-13.8 3.7-26.7 9.6-39.7 15.4-6 2.7-12.1 5.4-18.3 7.7q-4.5 1.7-9.2 3c-1.6 0.4-3.2 0.8-4.8 1.2-1.4 0.4-0.6-4.3-0.5-5 0.4-5 1-9.8 4.8-13.5 3.5-3.5 8.4-5.4 13.1-7 6.2-2 12.7-3.2 19.1-4.6q18.3-4 36.8-7.2c6.3-1.1 12.9-2.7 19.3-2.7 9.8 0 19 5.8 26.9 10.9 9.5 6.2 18.8 12.6 28.6 18.3 3.3 1.9 6.7 3.8 10.2 5.2 0.6 0.3 0.9 0.2 0.5 0.7q-0.6 0.8-1.2 1.6c-1.9 2.3-4.2 4.1-6.7 5.7 0 0 0 0 0.1 0z"/><g style="opacity:.1;mix-blend-mode:multiply"><path class="E" d="m617.7 298.7q0 0 0 0c-11.2 2.6-24.8 5.4-33.6 6.4-17.4 1.9-69 7.5-69 7.5-5.4-4.8-11.2-6.7-11.2-6.7 10.5-4.4 55.1-5.9 64.1-6.6 8.9-0.7 9.6-6.8 9.6-6.8 0 0 5.9-3.7 5.1-6.1-0.8-2.5-6.2-6.6-6.2-6.6-0.9-4.7-7.5-23.1-33.5-15.9-26 7.2-47.7 21.1-68.6 26.4q-2 0.6-4.3 1.2c0.2-3.8 0.6-8.9 1-10.5 0.7-2.5 0-11.5 23.9-17.1 23.9-5.6 57.5-11.8 65.7-12.6 8.2-0.8 16.4 1.9 30.6 11.4 14.3 9.5 31 20.4 38.8 23.2 0 0-2.7 4.4-8.2 7.7 0 0-1.6 2.4-4.2 5.1z"/><path class="x" d="m622 293.6c3.1-2 6.1-4.5 8.2-7.7q0 0-0.1 0c-5-1.8-9.6-4.7-14.2-7.4-6.1-3.7-12-7.6-18-11.5-9.3-6.2-19.1-13.7-30.5-15.5-6.9-1.1-14.4 0.9-21.3 2-12.1 2.1-24.3 4.5-36.4 7.1-7.4 1.5-14.9 3-22.1 5.3-4.6 1.6-9.2 3.6-12.7 7-4.7 4.7-4.5 12.5-4.9 18.6 0 0 0.1 0 0.1 0 12.6-3.3 24.4-8.2 36.3-13.5 13.2-5.9 26.9-12.5 41.3-15.1 9.7-1.8 19.8 0.6 25.4 9.1 1.4 2 2.4 4.2 3 6.5 0.2 0.8 0.2 1.2 0.8 1.7 1.9 1.5 3.7 3.1 5.1 5 1.4 1.9 0 3.6-1.4 4.9-0.4 0.4-3 1.9-3 2.3-0.4 2.7-2.7 4.8-5 5.8-3 1.4-6.8 1.2-10 1.4q-5.6 0.3-11.3 0.6c-9.2 0.5-18.4 1.2-27.6 2.1-6.5 0.7-13.7 1.1-19.8 3.6q0 0 0 0c1.5 0.5 3 1.3 4.5 2 1.3 0.7 2.6 1.6 3.9 2.4 0.3 0.2 2.3 2.2 2.8 2.3 1 0.1 2.2-0.3 3.2-0.4q10.9-1.1 21.9-2.3c18.5-2 37.3-3.3 55.7-6.6 5.6-1 11.2-2.2 16.9-3.5 1.8-0.4 4.2-0.3 5.6-1.8 1.3-1.4 2.5-2.8 3.6-4.4 0 0-0.1 0-0.1 0-1.3 1.8-2.7 3.5-4.2 5.1-0.4 0.3-2 0.4-2.5 0.6q-1.2 0.2-2.5 0.5-3 0.7-5.9 1.3c-6.9 1.4-13.8 2.8-20.8 3.7-8.2 1.1-16.4 1.9-24.6 2.7q-22.9 2.5-45.8 5c-1 0.1-1.7-1.1-2.5-1.7q-3.5-2.4-7.3-4.2-0.8-0.3-1.7-0.7c-0.1 0 1.2-0.5 1.4-0.6 1.6-0.4 3.1-0.8 4.7-1.1 9.1-1.8 18.5-2.4 27.8-3.1 8.6-0.6 17.2-1.1 25.7-1.5 5.1-0.3 12.9-0.7 13.9-7.1 0.1-0.5 2.3-1.7 2.7-2 1.1-1 2.7-2.5 2.4-4.1-0.3-1.7-2.5-3.4-3.6-4.4-0.9-0.9-2.5-1.6-2.8-2.9-1.1-5-4.2-9.8-8.4-12.8-7.4-5.1-16.6-4.6-24.9-2.4-13.8 3.7-26.7 9.6-39.7 15.4-6 2.7-12.1 5.4-18.3 7.7q-4.5 1.7-9.2 3c-1.6 0.4-3.2 0.8-4.8 1.2-1.4 0.4-0.6-4.3-0.5-5 0.4-5 1-9.8 4.8-13.5 3.5-3.5 8.4-5.4 13.1-7 6.2-2 12.7-3.2 19.1-4.6q18.3-4 36.8-7.2c6.3-1.1 12.9-2.7 19.3-2.7 9.8 0 19 5.8 26.9 10.9 9.5 6.2 18.8 12.6 28.6 18.3 3.3 1.9 6.7 3.8 10.2 5.2 0.6 0.3 0.9 0.2 0.5 0.7q-0.6 0.8-1.2 1.6c-1.9 2.3-4.2 4.1-6.7 5.7 0 0 0 0 0.1 0z"/></g><path class="F" d="m321.9 227l-75.1-165.7 4.7-4.1-5.5 1.8-2.1-4.4 11.7-7.2c0 0 2.3-1.2 5.2 2.6 2.9 3.7 86.3 113.8 86.3 113.8 2.7 3.3 7.1 9 15.7 12.1 8.7 3 46.2 16 46.2 16-50 16-87.1 35.1-87.1 35.1z"/><path class="G" d="m409 191.9q-7.2-2.5-14.4-5-12.6-4.4-25.2-8.7c-3.2-1.2-6.6-2.1-9.6-3.6-4.3-2.1-8-5.1-11-8.7-4.4-5.3-8.4-11-12.6-16.5q-28.2-37.2-56.4-74.4-9-11.8-18-23.7c-1.4-1.8-3.3-4.8-5.9-3.9-2.4 0.7-4.8 2.8-6.9 4.1q-2.2 1.4-4.4 2.7c-1.1 0.7-0.2 1.4 0.3 2.4q0.5 1.2 1.1 2.4c0 0 1.3-0.4 1.4-0.5q2-0.6 4.1-1.3c0 0 0.1 0 0.1 0-0.9 0.7-5.1 3.5-4.7 4.5q0.7 1.4 1.3 2.8 3.1 6.7 6.1 13.4 18.5 40.9 37.1 81.7 14.7 32.5 29.5 65 0.4 1 0.9 2.1c0.2 0.4 0.2 0.2 0.7 0 4.6-2.4 9.3-4.6 14-6.8 23.6-10.8 47.8-20.2 72.5-28.1 0 0 0.1 0.1 0.1 0.1-21.1 6.7-41.8 14.6-62.1 23.4-8.4 3.7-16.9 7.5-25 11.7q-0.1 0-0.1 0-6.6-14.6-13.3-29.2-19.5-43-39-86.1-11.4-25.2-22.9-50.4 0 0 0 0 2.4-2 4.8-4.1c-1.1 0.9-4 1.4-5.5 1.9q0 0 0-0.1-1.1-2.2-2.1-4.4 0 0 0 0 4.3-2.7 8.6-5.3c1.2-0.8 2.9-2.3 4.4-2 2 0.3 3.2 1.8 4.4 3.3q2.8 3.7 5.7 7.5 12.1 16 24.3 32 26.1 34.4 52.1 68.8 1.9 2.4 3.8 4.9c2.7 3.6 6 7 9.9 9.3 3.7 2.2 7.8 3.5 11.8 4.9q20.1 6.9 40.1 13.8 0.1 0.1 0 0.1z"/><path class="H" d="m357 211c-21.6 9-35.1 16-35.1 16l-75.1-165.7 4.7-4.1c0 0 69.2 114.2 75.7 122.6 7.3 9.5 29.8 31.2 29.8 31.2z"/><path class="I" d="m875.4 116.5l16.2-7c11.3 6.8 21 13.6 29.2 19.8l-0.2 2.7c-26.6-1.5-38.6 15.9-38.6 15.9-21.4 2.7-47.4 12.8-53.1 14.9-5.6 2.1-6.2 0.9-6.2 0.9 0 0-11.6-0.8-19.2-1.7-7.6-0.9-7.1-5.7-7.1-5.7 0 0 0-8.3 1.2-12.9 1.1-4.6 6.1-5.3 6.1-5.3l30-6.6z"/><path  d="m833.7 131.5q-2.8 0.6-5.7 1.2-10.8 2.5-21.7 4.9c-1.5 0.3-3.2 0.5-4.6 1.2-5.3 2.5-5 9.3-5.2 14.3 0 2.3-0.5 5 1.5 6.7 2.8 2.4 6.9 2.4 10.4 2.7q4.3 0.4 8.5 0.8 2.8 0.2 5.5 0.4c0.5 0 0.6 0.3 1.2 0.3 3.7 0.1 8-2.2 11.5-3.5 11.2-4.1 22.6-7.8 34.3-10.4 3.1-0.7 6.3-1.3 9.5-1.8 1.1-0.1 2.6 0.1 3.3-0.8 1.3-1.7 2.8-3.2 4.4-4.5 6.3-5.6 14.3-9.2 22.6-10.5 3-0.4 6-0.6 9-0.6 0.9 0 2.4 0.5 2.4-0.6 0.1-1 0.4-1.8-0.5-2.5q-8.4-6.3-17.3-12.1-3.1-2.1-6.2-4.1c-0.7-0.4-4.4-3.3-4.9-3q-1.2 0.5-2.4 1-5.2 2.2-10.4 4.4c-3.3 1.4-6.6 2.6-9.9 3.8q-17.6 6.3-35.3 12.7c0 0-0.1 0 0-0.1q5.5-1.9 11.1-3.9c10.9-4 22.2-7.4 32.9-12q5.3-2.3 10.5-4.5 1.6-0.7 3.3-1.4c0.6-0.3 1.4 0.7 1.8 1 6.3 3.8 12.4 7.8 18.4 12q4.3 3 8.5 6.2c1 0.8 0.5 2 0.5 3.2q0 0-0.1 0c-3.8-0.2-7.6-0.1-11.4 0.6-8.9 1.4-17.5 5.4-24.1 11.8-1.1 1.1-2.2 2.2-3.1 3.5-0.4 0.6-4.6 0.7-5.5 0.8q-5.1 1-10.2 2.2c-11.2 2.7-22.2 6.3-33 10.3-3 1.1-6.2 2.7-9.5 2.8-1.1 0.1-2.4-0.4-3.6-0.5-5.6-0.4-11.1-0.8-16.7-1.5-2.7-0.3-6.4-1.5-7-4.7-0.5-2.8 0-6 0.2-8.7 0.4-4.2 1.1-8.6 5.6-10.1 4.7-1.6 9.8-2.3 14.7-3.3q8.3-1.9 16.7-3.8c0 0 0.1 0.1 0 0.1z"/><path class="J" d="m878.9 118.3l16.3-6.6c5.9 3.7 11.3 7.3 16.3 10.8l-19.7 7.5z"/><path  d="m891.7 130q8.2-3.1 16.4-6.2 1.5-0.6 3.1-1.1c0.8-0.4-0.8-0.9-1.1-1.2q-2.3-1.5-4.5-3-4.7-3.2-9.6-6.2c-1.1-0.7-1.4-0.3-2.6 0.2q-5.1 2-10.1 4-1.9 0.8-3.8 1.6c-0.7 0.2-0.6 0.1-0.1 0.6q6.2 5.6 12.4 11.3c0 0-0.1 0-0.1 0q-6.4-5.9-12.9-11.7 0 0 0 0 7-2.8 13.9-5.6c1.5-0.6 2-1.3 3.4-0.5q7.8 5 15.5 10.3 0 0.1-0.1 0.1-9.8 3.7-19.7 7.4c0 0-0.1 0-0.1 0z"/><path fill-rule="evenodd" class="K" d="m911.5 122.5q0.7 0.6 1.4 1l-20 7.8c0 0-37.5 14.4-41.3 15.7-3.8 1.4-6 3.5-6 3.5l-18.1 12.8c-4.3 1.3-4.8 0.4-4.8 0.4 0 0-11.6-0.8-19.2-1.7-7.6-0.9-7.1-5.7-7.1-5.7 0 0 0-8.3 1.2-12.9 1.1-4.6 6.1-5.3 6.1-5.3l30-6.6 41.7-15 16.2-7q1.8 1.1 3.6 2.2l-16.3 6.6 12.9 11.7zm-95.8 16.2l-13.3 2.8c0 0-3.2 0.5-3.7 4.6-0.4 4.2-0.4 8-0.4 8 0 0-1 3.9 4.6 4.7 5.7 0.9 19.4 1.7 19.4 1.7zm27.2 10l-9-13.8-14.4 3 6.6 21.4zm43.5-17.4l-12.2-11-36.3 13.3 8.8 12.8z"/><path class="b" d="m891.7 130q-6.4-5.9-12.9-11.7 0 0 0 0 7.7-3.1 15.4-6.2 0.4-0.2 0.9-0.3c-0.2 0-2.4-1.6-2.8-1.8-0.9-0.6-1.3-0.1-2.4 0.3q-4.5 1.9-9 3.9c-8.7 3.7-17.7 6.7-26.6 9.9q-9.4 3.4-18.9 6.8c-3.5 1.2-7.2 1.8-10.8 2.6q-10 2.2-20.1 4.5c-2.4 0.5-5 1.3-6.2 3.7-2.1 4.1-1.8 9.9-1.8 14.4 0 4.5 4.7 5.6 8.4 6 5.3 0.6 10.8 1.1 16.2 1.5 2.3 0.1 4.8 0.8 6.9-0.7q3.9-2.8 7.9-5.6 4.3-3 8.6-6c2.3-1.6 4.4-3.3 7.1-4.3 5.7-2 11.3-4.2 16.9-6.4 10.9-4.1 21.9-8.3 32.8-12.5q5-2 10.1-4 0.6-0.2 1.3-0.5c0.8-0.3-1.4-0.9-1.2-1q-1.2 0.4-2.4 0.9-8.6 3.2-17.3 6.5c0 0-0.1 0-0.1 0q6.1-2.3 12.2-4.6 3.3-1.2 6.5-2.5c1.5-0.5 1.1-0.4 2.6 0.6q0 0.1 0 0.1c-8.8 3.4-17.5 6.8-26.3 10.1q-11.4 4.4-22.8 8.7-4.7 1.8-9.4 3.6c-3.1 1.1-6.3 2.2-8.7 4.4-1.4 1.3-3.2 2.3-4.8 3.4q-4.8 3.4-9.6 6.8c-2.1 1.4-3.7 2.9-6.2 3.3-1.5 0.2-2.7-0.2-4.1-0.3-5.4-0.4-10.9-0.8-16.3-1.4-3-0.4-7.4-1.1-8.3-4.7-0.5-2.3-0.1-5.2 0.1-7.6 0.4-4.5 0.6-9.3 5.4-11.3 1.2-0.5 2.7-0.7 4-1q5-1.1 10-2.2 8.8-2 17.6-3.9c4.2-1 8.4-3.1 12.4-4.5q11.1-4 22.2-8c3.6-1.2 7.1-2.5 10.6-4q5.2-2.2 10.4-4.4 1.2-0.6 2.4-1.1c0.5-0.2 3.1 1.9 3.6 2.2q0 0 0 0-4.2 1.7-8.4 3.4-2.7 1.1-5.4 2.2c-0.2 0.1-2.4 1.1-2.5 1q6.4 5.8 12.9 11.7c0 0-0.1 0-0.1 0z"/><path class="b" d="m822.4 160.6q-4.7-0.3-9.4-0.7-3.6-0.3-7.1-0.7c-2.7-0.2-6.2-0.3-7.4-3.1-0.3-0.8-0.1-1.7-0.1-2.5 0-2.9 0-6 0.7-8.8 0.8-3.1 4-3.4 6.6-3.9q4.9-1 9.8-2c0.7-0.2 1.5 4 1.7 4.7q2.6 8.5 5.1 17c0 0 0.1 0 0.1 0q-3.3-10.9-6.6-21.8c0 0 0 0 0 0q-6.3 1.3-12.6 2.6c-5.6 1.1-4.8 7.9-4.9 12.5 0 4.5 3.7 4.9 7.5 5.4 5.5 0.6 11.1 1 16.6 1.3q0 0 0 0z"/><path class="b" d="m826.1 159.3q-3.3-10.7-6.5-21.4 0 0 0 0 7.2-1.5 14.3-3 0.1 0 0.1 0.1 4.5 6.8 9 13.7 0 0 0 0-8.4 5.3-16.8 10.6c0 0.1-0.1 0-0.1 0q2.2-1.4 4.4-2.7 4.9-3.1 9.8-6.2 1.3-0.8 2.6-1.7c0.1 0-1-1.5-1.1-1.7q-3-4.7-6.1-9.4-0.9-1.3-1.8-2.6c0-0.1-2.2 0.4-2.4 0.5q-5.4 1.1-10.7 2.2c-0.7 0.1-1.3-0.1-1 0.7q0.5 1.6 1 3.2 2.7 8.9 5.4 17.7c0 0.1-0.1 0.1-0.1 0z"/><path class="b" d="m846.8 146.4q-4.4-6.4-8.8-12.8 0 0 0 0 18.1-6.6 36.3-13.3 0.1 0 0.1 0 6.1 5.5 12.2 11.1 0 0-0.1 0-19.8 7.5-39.6 15c0 0-0.1 0-0.1 0q11.3-4.3 22.6-8.6 6.9-2.6 13.7-5.2 1.6-0.6 3.1-1.1c0.6-0.2-1.2-1.4-1.5-1.7q-4.2-3.8-8.3-7.6c-0.3-0.2-1.9-1.9-2-1.8q-0.7 0.2-1.3 0.4-9.5 3.5-19 7-8 2.9-15.9 5.8c-0.1 0 3.5 5.3 3.8 5.8q2.5 3.5 4.9 7c0 0-0.1 0-0.1 0z"/><path class="L" d="m802.5 141.5l13.3-2.7 6.6 21.8c0 0-13.8-0.9-19.4-1.7-5.6-0.8-4.6-4.7-4.6-4.7 0 0 0-3.9 0.4-8 0.4-4.1 3.7-4.7 3.7-4.7z"/><path  d="m798.8 146.2c-0.2 2.6-0.4 5.3-0.4 7.9 0 1-0.1 2 0.7 2.9 1.9 2.2 5.7 2.1 8.4 2.4q3.9 0.4 7.9 0.7 2.8 0.2 5.6 0.4c0.5 0 1.4 0.4 1.2-0.2q-1.1-3.8-2.2-7.6-1.6-5.3-3.2-10.6-0.5-1.5-0.9-3c-0.2-0.5-0.5-0.2-1.1-0.1q-5.2 1.1-10.3 2.1c-3 0.7-5.1 1.6-5.7 5.1 0 0 0 0 0 0 0.5-3.8 2.9-4.5 6-5.2q5.5-1.1 11-2.2 0 0 0 0 3.3 10.9 6.6 21.8 0 0 0 0c-6.3-0.4-12.7-0.7-19-1.6-2.3-0.4-4.8-1.2-5.1-3.8-0.4-2.8 0.2-6.2 0.5-9 0 0 0 0 0 0z"/><path class="M" d="m834 135l9 13.7-16.8 10.6-6.6-21.4z"/><path  d="m819.6 137.9q0.7 2.3 1.4 4.5 1.7 5.6 3.5 11.2c0.1 0.6 1.8 5.6 1.8 5.6q8-5 16-10.1c0.8-0.5 0.7-0.4 0.2-1.1q-1.2-1.9-2.5-3.7-2.8-4.4-5.7-8.8c-0.8-1.2-4.9 0.4-6.3 0.7q-4.2 0.9-8.4 1.7c0 0-0.1 0 0 0q7.2-1.5 14.3-3 0.1 0 0.1 0.1 4.5 6.8 9 13.7 0 0 0 0-8.4 5.3-16.8 10.6c0 0.1-0.1 0.1-0.1 0q-3.3-10.7-6.5-21.4c0 0 0 0 0 0z"/><path class="N" d="m874.3 120.3l12.2 11.1-39.7 15-8.8-12.8z"/><path  d="m838 133.6q3.7 5.4 7.4 10.7c0.5 0.7 1.1 2.2 1.8 2q1.6-0.7 3.3-1.3 14.3-5.4 28.7-10.9 3.3-1.2 6.6-2.5c0.4-0.1 0.8-0.1 0.5-0.4q-1.4-1.3-2.8-2.5-4.1-3.7-8.1-7.4c-1.3-1.2-1.4-0.8-3.1-0.2q-17.1 6.3-34.3 12.5c0 0-0.1 0 0 0q18.1-6.6 36.3-13.3 0 0 0.1 0 6.1 5.5 12.2 11.1 0 0-0.1 0-19.8 7.5-39.6 15-0.1 0-0.1 0-4.4-6.4-8.8-12.8c0 0 0 0 0 0z"/><path class="O" d="m818.8 125.3c1-0.2 4.8-0.9 6.9-1.4 2.2-0.5 2.1 0.8 3.3 3.2 0.9 1.7-0.6 2.2-1.1 2.3-0.5 0.1-5.4 1.3-7.6 1.8-2.2 0.6-2.7 0.4-2.9-0.8-0.2-1.1-0.5-3.6-0.5-3.6-0.1-0.9 0.8-1.2 1.9-1.5z"/><path  d="m816.9 126.8q0.2 1.3 0.3 2.6c0.1 0.4 0.1 1 0.3 1.4 0.5 1.1 2.7 0.4 3.7 0.2q3.1-0.8 6.3-1.5c2-0.5 1.8-1.5 1.1-3.1-0.2-0.6-0.5-1.4-0.9-2-0.9-0.9-2.2-0.4-3.1-0.2-1.4 0.3-7.5 0.7-7.7 2.6 0 0-0.1 0-0.1 0 0.2-1.2 1.6-1.4 2.7-1.6 2.2-0.5 4.5-1 6.8-1.4 1-0.2 1.5 0.7 1.9 1.5 0.5 1.1 1.8 2.8 0.6 3.8-0.7 0.6-2.2 0.6-3 0.8-2.1 0.5-4.2 1-6.3 1.5-2.8 0.6-2.4-2.5-2.7-4.6 0 0 0.1 0 0.1 0z"/><path class="P" d="m832.1 120.9c0.9-0.4 3.2-1.5 5.5-2.5 2.4-1 3.2-1.3 4-0.9 0.8 0.3 3 1.6 4.9 2.6 1.8 1.1 1.8 1.7 0.1 2.5-1.6 0.9-8.8 3.9-10.9 4.8-2.1 1-2.3-0.4-2.6-0.9-0.4-0.5-1.5-2.6-2-3.6-0.8-1.3 0.2-1.6 1-2z"/><path  d="m831.1 122.9q1 1.8 2 3.6c1 1.6 2.7 0.8 4 0.3 2.6-1.2 5.3-2.2 7.9-3.4q0.7-0.3 1.4-0.7c2.2-1.1 1.1-2-0.7-3-1.6-0.8-4-2.8-5.9-2.1-1.9 0.6-3.7 1.4-5.5 2.3-1.3 0.6-3.9 1.2-3.2 3 0 0-0.1 0-0.1 0-0.8-2 1.9-2.4 3.3-3.1 1.7-0.8 3.5-1.7 5.4-2.3 0.4-0.1 0.9-0.3 1.3-0.2 1.9 0.2 3.9 1.9 5.5 2.8 1.6 0.9 1.8 1.6 0.2 2.5-3.3 2-7.4 3.5-11 4.9-2.8 1-3.5-2.5-4.7-4.6 0 0 0.1 0 0.1 0z"/><path class="Q" d="m888.4 107.3c0 0-2.3 0.7-4.5 1.5-2.3 0.9-3.2-0.5-4.8-1.5-1.6-1.1-4.7-2.6-4.1-3.1 0.7-0.5 5.8-1.4 5.8-1.4 0.9 0.6 7.6 4.5 7.6 4.5z"/><path  d="m880.8 102.8q-1.3 0.3-2.6 0.5c-0.4 0.1-3.9 0.8-2.9 1.5 1.2 1 2.6 1.6 3.9 2.5 1.4 0.9 2.3 2.4 4.6 1.5q1.2-0.4 2.5-0.8c0.3-0.2 2.4-0.5 1.8-0.8q-1.2-0.7-2.3-1.4-2.5-1.5-5.1-3c0 0 0.1 0 0.1 0q3.8 2.3 7.6 4.5 0.1 0 0 0-1.8 0.6-3.7 1.2c-0.6 0.3-1.6 0.8-2.3 0.6-0.9-0.1-1.5-0.5-2.2-1-1.3-1.1-2.8-1.8-4.2-2.7-1.1-0.7-1.5-1.1-0.2-1.5 1.6-0.5 3.3-0.8 5-1.1 0 0 0 0 0 0z"/><path class="R" d="m324.6 246.6c1.6 6.3-6.9 8.1-6.9 8.1l-189 35.1c0 0-3 0.2-3.7-1.1l-0.2-0.5c-0.1-1 1.5-1.7 6-2.9 5.1-1.5 181.6-44 181.6-44l3.7-0.7c0 0 4.5-0.8 7.1 3 0.6 0.8 1.1 1.8 1.4 3z"/><path class="b" d="m323.2 243.6c-3.2-4.2-7.6-3-11.9-2q-3.9 0.9-7.7 1.9-16.1 3.8-32.1 7.7-47.1 11.4-94.2 22.8-17.8 4.2-35.5 8.6-4.6 1.1-9.2 2.2-0.9 0.3-1.8 0.5c-1.6 0.5-3.6 0.8-5 1.8-1.7 1-0.9 2.6 1.8 2.7 0.4 0 0.8 0 1.2 0q28.4-5.3 56.7-10.6 46.9-8.7 93.8-17.4 15.7-2.9 31.3-5.8c6.2-1.2 18.6-2.9 12.6-12.4 0-0.1 0.1 0 0.1 0 1.6 2.6 2.3 6-0.2 8.3-1.5 1.4-3.4 2.3-5.3 2.8-4.8 1.1-9.8 1.8-14.6 2.7q-18.5 3.4-37 6.8-47.1 8.8-94.2 17.6-16.8 3.1-33.6 6.2-4.2 0.8-8.3 1.6c-1.8 0.3-4.6 0.7-5.3-1.4-0.7-2 17.5-5.8 19-6.2q18.5-4.5 36.9-8.9 47-11.4 94.1-22.7 15.6-3.8 31.3-7.6c5.4-1.3 13.1-4.6 17.2 0.8 0 0-0.1 0-0.1 0z"/><path class="S" d="m323.2 243.6c0.6 0.8 1.1 1.8 1.4 3 1.6 6.3-6.9 8.1-6.9 8.1l-189 35.1c0 0-3 0.2-3.7-1.1 0 0 150.3-33.1 183-40.6 7.7-1.8 12.5-3.3 15.2-4.5z"/><path class="b" d="m308 248.1c-28.9 6.6-57.9 12.9-86.9 19.4q-44.3 9.8-88.6 19.6-3.8 0.8-7.5 1.6 0 0 0 0c1.3 1.7 3.8 1.1 5.6 0.8q4.5-0.9 9-1.7 17.2-3.2 34.5-6.4 47.1-8.8 94.3-17.6 18.1-3.3 36.1-6.7c4.6-0.8 9.5-1.3 14-2.6 5.2-1.6 8-5.9 4.8-10.9q0 0-0.1 0c-4.8 2.1-10.1 3.3-15.2 4.5-0.1 0 0 0 0 0 5-1.2 10.2-2.3 14.9-4.4 1-0.4 1.7 3.3 1.8 4 0.2 1.1-0.2 2.2-0.8 3.2-1.1 1.8-3.3 2.8-5.2 3.5-1.4 0.4-2.8 0.6-4.2 0.8q-13.1 2.5-26.3 4.9-46 8.6-92 17.1-32.8 6.1-65.7 12.3-0.9 0.1-1.7 0.3c-0.7 0.1-4.9-0.8-3.4-1.2q3.8-0.8 7.6-1.6 18.4-4.1 36.8-8.2 52.1-11.4 104.1-23c11.3-2.6 22.7-5.1 34.1-7.7 0 0 0 0 0 0z"/><g style="opacity:.4;mix-blend-mode:multiply"><path class="T" d="m323.2 243.6c0.6 0.8 1.1 1.8 1.4 3 1.6 6.3-6.9 8.1-6.9 8.1l-189 35.1c0 0-3 0.2-3.7-1.1 0 0 150.3-33.1 183-40.6 7.7-1.8 12.5-3.3 15.2-4.5z"/></g><path class="U" d="m401 326.4c-17.6 4.3-43.9 11.9-43.9 11.9l-12.6 2.9-40.5 9.8-63.9 15.5-35.6 9.3-203.1 49.6c-2.8 0.9 0.1-3.4 5.7-6.8l384.8-105.2c0 0 9.1-1.4 16.2 1 7.2 2.4 14.8-0.6 16.1 2.7 1.3 3.3-5.6 5-23.2 9.3z"/><path class="b" d="m424.2 317.1c-1.4-2.7-6.7-1.6-9.3-1.6-2.9-0.1-5.4-0.8-8.3-1.5-4.4-1.1-10.2-1.8-14.7-0.6q-0.8 0.3-1.7 0.5-20.3 5.6-40.7 11.1-39.2 10.8-78.5 21.5-47.4 12.9-94.8 25.9-44.8 12.3-89.6 24.5-31.5 8.6-62.9 17.2-7.3 2-14.7 4c-0.9 0.3-1.8 0.4-2.6 1-1.7 1.1-3.3 2.2-4.6 3.7-0.4 0.5-1.5 1.5-1.5 2.3 0.1 0.5 0.9 0.3 1.2 0.2q0.8-0.2 1.7-0.4 31.1-7.6 62.2-15.2 46.7-11.4 93.3-22.8c15.4-3.7 30.9-7.3 46.2-11.3 21.9-5.6 43.7-11.2 65.7-16.5q34.4-8.4 68.8-16.7c9.5-2.3 19.1-4.6 28.5-7.2 11-3.1 22-6.1 33.1-8.8 6-1.5 12.1-2.8 18-4.8 1.7-0.6 6.1-1.9 5.2-4.5 0 0 0 0 0 0 1 2.9-4.2 4.2-6.1 4.8-7.5 2.4-15.4 4-23.1 6-12.6 3.2-25.1 6.7-37.6 10.3-4.3 1.2-8.7 2-13 3q-8.2 2-16.3 4-13.9 3.3-27.8 6.7c-22.3 5.4-44.7 10.6-67 16.4-16 4.2-32.1 8.3-48.2 12.2q-42.5 10.4-85.1 20.8-41.3 10.1-82.7 20.2-7.9 1.9-15.8 3.9c-0.7 0.1-1.6 0.2-1.1-0.8 1.1-2.1 4.4-5.4 6.7-6q1.3-0.4 2.6-0.7 21.8-6 43.6-11.9 40-11 80.1-21.9 47.6-13 95.1-26 44.3-12.2 88.6-24.3 30.3-8.2 60.6-16.5 6.5-1.8 13-3.6c1.3-0.3 2.6-0.5 4-0.6 2.4-0.2 4.9-0.2 7.3 0 3.3 0.4 6.3 1.7 9.6 2.1 3.2 0.4 6.5-0.1 9.6 0.3 1.3 0.1 2.4 0.4 3 1.6 0 0 0 0 0 0z"/><path class="V" d="m424.2 317.1c1.3 3.3-5.6 5-23.2 9.3-17.6 4.3-43.9 11.9-43.9 11.9l-12.6 2.9-40.5 9.8-63.9 15.5-35.6 9.3-203.1 49.6c-1.6 0.5-1.4-0.6 0-2.2l411.3-102.3c4-1.1 9.4-2.8 10.4-5q0.8 0.4 1.1 1.2z"/><path class="b" d="m423.1 315.9c-1.7 3.2-7.3 4.2-10.5 5q-0.7 0.2-1.4 0.4-3.6 0.9-7.2 1.8-26.4 6.5-52.7 13.1-42 10.4-83.9 20.8-48 12-96.1 23.9-44.4 11.1-88.9 22.2-31.3 7.8-62.6 15.5-7.8 2-15.5 3.9-1.4 0.3-2.7 0.7c-1 0.2-1.3 2.4-0.1 2.1q0.9-0.2 1.8-0.4 31.3-7.7 62.6-15.3 46.6-11.4 93.2-22.8c15.3-3.7 30.7-7.2 45.9-11.2 22-5.7 44-11.3 66.1-16.6q34.3-8.4 68.6-16.7c9.5-2.3 18.9-4.5 28.2-7.1 11.3-3.2 22.6-6.3 34-9.1 5.9-1.4 11.9-2.6 17.5-4.7 1.9-0.7 7.5-3.1 3.7-5.5-0.1 0 0 0 0 0 4.2 2.6-2.7 5.2-4.5 5.8-8.6 2.9-17.6 4.6-26.4 6.9q-13 3.4-25.9 7.1c-3.4 0.9-6.8 2-10.2 2.8-19.9 4.6-39.7 9.5-59.5 14.3-22.9 5.6-46 11-68.9 16.9q-23.3 6.1-46.7 11.8-43.6 10.7-87.3 21.3-39.9 9.8-79.8 19.5-4.8 1.2-9.5 2.3c-1.2 0.3-2.8 1-3.9 0.8-0.7-0.1 0.6-2.1 1-2.2q0.5-0.2 0.9-0.3 2.2-0.5 4.4-1.1 23.8-5.9 47.6-11.8 40.6-10.1 81.2-20.2 47.8-11.9 95.6-23.8 45.4-11.3 90.8-22.6 33.4-8.3 66.8-16.6 9.3-2.3 18.5-4.6 2.2-0.5 4.4-1.1 0.4-0.1 0.9-0.2c3.1-0.8 8.8-1.9 10.5-5 0 0 0 0 0 0z"/><g style="opacity:.7;mix-blend-mode:multiply"><path class="W" d="m424.2 317.1c1.3 3.3-5.6 5-23.2 9.3-17.6 4.3-43.9 11.9-43.9 11.9l-12.6 2.9-40.5 9.8-63.9 15.5-35.6 9.3-203.1 49.6c-1.6 0.5-1.4-0.6 0-2.2l411.3-102.3c4-1.1 9.4-2.8 10.4-5q0.8 0.4 1.1 1.2z"/></g><path class="X" d="m304 351l40.5-9.8c0 0-0.1 4.9-9.8 8.1-9.7 3.2-18.1 5.7-23.4 4.4-5.3-1.3-7.3-2.7-7.3-2.7z"/><path class="f" d="m311.3 353.7c7 1.5 15-1.7 21.5-3.8 4-1.3 10.1-3.3 11.5-8 0.4-1.4-0.9-0.4-2-0.2q-4.1 1-8.2 2-11.2 2.7-22.4 5.4-3.5 0.9-6.9 1.7c-0.3 0.1-0.9 0.1-0.6 0.3 2.2 1.3 4.7 2 7.1 2.6 0.1 0 0 0 0 0-2.4-0.6-5.2-1.3-7.3-2.7q0 0 0 0 20.3-4.9 40.5-9.9c0 0 0.1 0 0.1 0.1-0.3 4.3-6.6 7-9.9 8.1-7.1 2.3-15.8 6.1-23.4 4.4 0 0 0 0 0 0z"/><path class="Y" d="m204.5 375.8l35.6-9.3c0 0 0.4 6-7.2 8.5-7.6 2.6-17.1 6.2-22.3 4.4-5.3-1.9-6.1-3.6-6.1-3.6z"/><path class="f" d="m210.6 379.4c5.8 1.8 12.9-1.2 18.5-3.1 4.2-1.4 9.5-2.8 10.7-7.8 0.1-0.2 0.3-1.9 0.3-1.9q-0.7 0.1-1.3 0.3-3.6 0.9-7.1 1.8-10 2.6-20 5.2-3.2 0.8-6.4 1.7c-0.2 0-0.9 0-0.7 0.3 1.4 1.8 3.9 2.7 6 3.5 0 0 0 0-0.1 0-1.8-0.7-5-1.7-6-3.6q0-0.1 0-0.1 17.8-4.6 35.6-9.2c0 0 0 0 0 0 0.3 4.7-4.1 7.5-7.9 8.8-4.4 1.5-8.7 3-13.2 4-2.8 0.6-5.7 0.9-8.4 0.1q-0.1 0 0 0z"/><g style="opacity:.7;mix-blend-mode:multiply"><path class="Z" d="m304.4 350.9l40.5-9.8c0 0-0.2 4.9-9.9 8.1-9.6 3.2-18 5.8-23.3 4.4-5.3-1.3-7.3-2.7-7.3-2.7z"/></g><g style="opacity:.7;mix-blend-mode:multiply"><path class="a0" d="m204.5 375.8l35.6-9.3c0 0 0.4 6-7.2 8.5-7.6 2.6-17.1 6.2-22.3 4.4-5.3-1.9-6.1-3.6-6.1-3.6z"/></g><path class="a1" d="m394.8 309.1c-13.1-3.7-55.9-17.9-77.1-54.4 0 0 8.5-1.8 6.9-8.1-1.9-7.2-8.5-6-8.5-6l-3.7 0.7c0 0-4.2-9.9 9.5-14.3 0 0 37.1-19.1 87.1-35.1 0 0 79.6-23.9 144.2-42.5-3.6 1-133.5 40.2-158.4 159.7z"/><path class="G" d="m553.2 149.3c-45.2 13.1-90.3 26.4-135.4 39.9-32.6 9.8-64.9 22.1-95.3 37.5-3.6 1.8-7.6 2.8-9.6 6.7-1.2 2.4-1.6 5.4-0.5 7.9q0 0 0.1 0c4.4-0.9 8.8-1.5 11.3 3.4 2.7 5-1.4 8.9-6.2 9.9q0 0 0 0.1c16.4 27.9 46.6 45.8 77.2 54.4 0 0 0.1 0 0.1 0 8.4-40.4 30.6-76 61-103.6 22.2-20.2 48.3-36.3 75.9-48.1 7-3 14.1-5.9 21.4-8 0.1 0 0-0.1 0-0.1-15.7 4.6-30.9 11.8-45.2 19.6-30.2 16.3-57.7 37.9-78.7 65.2-12.4 16.2-22.1 34.3-28.7 53.6-1.8 5.3-3.3 10.6-4.6 16q-0.5 2-0.9 4c-0.3 1.3-0.4 1.3-1.5 1q-2-0.5-3.9-1.2c-7.6-2.4-15.1-5.4-22.3-9-9.8-4.8-19.1-10.8-27.5-17.8-4.5-3.8-8.6-7.9-12.4-12.3q-3.1-3.6-5.8-7.5-1.3-1.8-2.4-3.7c-0.4-0.5-2-2.4-1.2-2.6 2.6-0.7 5.4-2.2 6.5-4.9 1.2-3.3-1.5-7.6-4.6-8.7-1.8-0.6-3.5-0.5-5.3-0.2-0.7 0.2-2.1 0.9-2.4 0.1-0.3-1-0.5-2.1-0.5-3.2 0.1-7 6.8-9 12-11.6 5.8-2.9 11.8-5.7 17.7-8.3 22.1-10 44.8-19.1 68-26.1q56.3-16.9 112.7-33.3 15.5-4.6 31-9c0.1 0 0-0.1 0-0.1z"/><path class="a2" d="m356.7 292.3c-6.1-3.6-11.7-7.9-11.7-7.9 24.5-82.1 104-104.5 104.4-104.6 7.2-2.1 15.1-4.5 23.5-7-0.1 0.1-87.1 30.6-116.2 119.5z"/><path class="a3" d="m472.9 172.9c-9.7 2.8-19.7 5.3-29.2 8.8-8.4 3.2-16.6 7-24.4 11.5-34.5 19.7-61.7 50.9-73.6 89.1-0.4 1.2-1 1.9 0 2.7q1.3 0.9 2.6 1.8 2.2 1.6 4.6 3.1c1.1 0.7 3.5 3 4.2 1 2-5.8 4.2-11.4 6.7-17 4.6-10.1 10.1-19.7 16.5-28.8 11.4-16.1 25.2-30.3 40.8-42.4 11.3-8.8 23.3-16.5 36.1-22.9 5.1-2.6 10.3-5.1 15.7-7 0 0 0.1 0 0 0.1-14.6 5.1-28.5 13.3-41.2 22.1-34.5 23.8-61.8 57.2-75 97.3 0 0 0 0 0 0-4.1-2.4-8-5-11.8-7.9q0 0 0 0c10.3-33.9 32.1-62.9 61.1-82.9 10.6-7.3 22-13.6 33.9-18.3 10.7-4.3 22-7.1 33-10.4 0 0 0.1 0 0 0.1z"/><path class="a4" d="m368 298.5c-3.7-1.9-7.5-3.9-11.3-6.2 29.1-88.9 116.1-119.4 116.2-119.5 6.3-1.8 12.8-3.7 19.5-5.7 0 0-113.7 45.3-124.4 131.4z"/><path class="a3" d="m492.4 167.1c-10.2 3-20.1 5.6-29.6 10-11.8 5.4-23 12.1-33.5 19.5-33.5 23.6-59.8 56.6-72.7 95.7q0 0 0.1 0 5.5 3.3 11.3 6.2c0 0 0.1 0 0.1 0 4.9-39 31.1-70.7 61.1-94.2 18.9-14.7 40-27.4 62.1-36.7q0.5-0.3 1.1-0.5c0 0 0 0 0 0-18.4 7.3-35.9 17.7-52 28.9-29.9 20.9-57.6 48.8-68.5 84.4-1.5 4.7-2.6 9.6-3.4 14.5-0.1 0.6-0.1 3.7-1.2 3.2q-2.5-1.3-4.9-2.6c-0.8-0.4-5.9-2.7-5.4-3.9q0.8-2.5 1.7-4.9c4-11.3 9.3-22 15.5-32.2 10.8-17.6 24.6-33.1 40.3-46.4 11.8-10 24.6-18.6 38.2-25.9 6.4-3.5 13.1-6.7 19.9-9.2 6.4-2.4 13.2-4 19.8-5.9 0 0 0 0 0 0z"/><path class="a5" d="m379.5 303.6c-2.5-1.1-8.7-3.8-11.5-5.1 10.7-86.1 124.4-131.4 124.4-131.4 6.5-1.9 13.2-3.9 19.9-5.9-0.4 0.2-119.2 45-132.8 142.4z"/><path class="a3" d="m512.3 161.3c-7.7 2.2-15.8 4-23.3 7.2q-7.7 3.4-15.1 7.3c-29.2 15.3-57.3 35.1-78.1 60.9-12.1 15.1-21.8 32.6-26 51.7q-0.8 3.8-1.4 7.7c-0.2 1.4-0.5 2.3 1 3q1.8 0.8 3.5 1.6 2.1 1 4.3 1.9c1.1 0.5 2.2 1.5 2.4-0.2q0.6-3.8 1.4-7.5c2.1-9.9 5.3-19.6 9.6-28.8 15.4-33.1 42.9-59.3 73.1-79.2 10.9-7.1 22.2-13.6 33.9-19.2 4.8-2.3 9.7-4.8 14.7-6.5 0 0 0.1 0 0 0.1-1.9 0.6-3.8 1.5-5.6 2.3-24.5 10.6-47.8 24.8-68.1 42.1-29.8 25.3-53.5 58.5-59.1 97.9 0 0.1 0 0 0 0-3.9-1.6-7.7-3.3-11.5-5.1q0 0 0 0c1.3-10.4 4.1-20.5 8.3-30.1 14.6-33.5 43.2-59.3 73.4-78.6 10.6-6.8 21.6-13 32.9-18.3q4.2-2.1 8.4-3.9 0.7-0.3 1.3-0.5c3.2-1.3 6.7-2 9.9-2.9q5.1-1.5 10.1-3c0 0 0.1 0 0 0.1z"/><g style="opacity:.5;mix-blend-mode:multiply"><path class="a6" d="m487 368.9c-8.3-0.4-16-4.1-20.6-12.4-5.7-10.4-3.4-25.4 5.7-36 1.9-2.1 4.5-4.1 7.5-5.7 8.2 1.5 19.4 6 23.8 19.4 5.3 16.1-4.1 31.6-16.4 34.7z"/></g><path fill-rule="evenodd" class="a7" d="m483.9 341.7c1.6 5-0.7 10.3-5.2 11.8-4.6 1.5-9.6-1.4-11.2-6.4-1.7-5 0.6-10.3 5.1-11.8 4.6-1.5 9.6 1.4 11.3 6.4zm-2.1 0.7c-1.3-3.8-5-5.9-8.4-4.8-3.4 1.1-5.1 5.1-3.9 8.8 1.3 3.8 5 5.9 8.4 4.8 3.4-1.1 5.1-5.1 3.9-8.8z"/><g style="opacity:.5;mix-blend-mode:multiply"><path class="a8" d="m487 368.9c-8.3-0.4-16-4.1-20.6-12.4-5.7-10.4-3.4-25.4 5.7-36 1.9-2.1 4.5-4.1 7.5-5.7 8.2 1.5 19.4 6 23.8 19.4 5.3 16.1-4.1 31.6-16.4 34.7z"/></g><g style="opacity:.7;mix-blend-mode:multiply"><path class="a9" d="m487 368.9c-8.3-0.4-16-4.1-20.6-12.4-5.7-10.4-3.4-25.4 5.7-36 1.9-2.1 4.5-4.1 7.5-5.7 0 0-5.7 3.1 0 0 7.1-3.8 28.5-2.5 35.7 16.5 9.6 25.3-13.1 37.5-28.3 37.6z"/></g><path class="aa" d="m430.5 185.4c0 0 29.4-16 31.6-17.5 2.2-1.5 9.2-3.3 10.5-2.2 1.1 1-16.7 12.2-16.7 12.2z"/><path class="ab" d="m456 177.8l-5.9 1.8 21.2-13.4c0 0 0.6-0.3 0.6-0.8 0.4 0 0.6 0.2 0.7 0.3 0.9 1.1-16.6 12.1-16.6 12.1z"/><path class="ac" d="m409 191.9q-2.7 0.8-5.3 1.7c-8.1-2.8-26.2-9.1-40.1-14.1-16.4-5.8-18.2-10.3-22.3-15.6-3.7-4.7-70.8-96.3-85.6-116.5 0.5-0.2 2.6-0.7 5.1 2.6 2.9 3.7 86.3 113.8 86.3 113.8 2.7 3.3 7.1 9 15.7 12.1 8.7 3 46.2 16 46.2 16z"/><path class="ad" d="m245.3 54.4c0 0 6.2-3.7 8-4.8 1.8-1 2.4-0.7 3.8 0.9 1.3 1.7 88.2 121.2 88.2 121.2 0 0-19.9-22.7-86.8-115-2.6-3.7-3.9-5.7-13.2-2.3z"/><g style="opacity:.5;mix-blend-mode:multiply"><path class="ae" d="m319.3 221.1l-72-158.5 2.2-1.5c0 0 81.1 146.2 83.2 149.3 2 3 0.7 3.8-13.4 10.7z"/></g><path class="af" d="m328.8 245.9c0 0 89.7 17.4 284.9-33.7 72.2-18.9-259.1 98.4-284.9 33.7z"/><g style="opacity:.4;mix-blend-mode:multiply"><path class="ag" d="m517.3 251.2c0.4 1.8-1.2 3.9-3.6 4.7l-2 0.6c-2.4 0.8-4.4-0.1-5.1-1.9 0 0-4.3-10.4-6.2-18-1.9-7.7-1.8-18.3-1.8-18.3 0.1-2.3 1.4-3.9 3.8-4.7l2-0.5c2.5-0.8 4.7 0.1 5.1 1.9 0 0-0.5 10.1 2 19.4 2.4 9.4 5.8 16.8 5.8 16.8z"/></g><g style="opacity:.4;mix-blend-mode:multiply"><path class="ah" d="m533.1 247.4c0.4 1.8-1.3 3.9-3.7 4.7l-2 0.6c-2.4 0.8-4.4-0.1-5.1-1.8 0 0-4.3-10.4-6.2-18.1-1.9-7.6-1.7-18.3-1.7-18.3 0-2.2 1.3-3.9 3.7-4.6l2.1-0.6c2.4-0.7 4.7 0.1 5 2 0 0-0.4 10 2 19.4 2.4 9.4 5.9 16.7 5.9 16.7z"/></g><g style="opacity:.4;mix-blend-mode:multiply"><path class="ai" d="m770.5 213.8c2.4 3.1 2.2 6.7-6.5 9.5l-5.5 1.4c-8.6 2.8-11.7 1.2-13.6-3.2 0 0-9.8-16.3-14-38.7-3.2-16.7 3.1-41.6 3.1-41.6 1.3-5.1 2.3-8 9.6-10.4l8.9-2.4c8.7-2.7 10.5-0.5 9.4 4.8 0 0-7.2 23.6-2.6 44 4.6 20.4 11.2 36.6 11.2 36.6z"/></g><path class="aj" d="m516 249.8c0.5 1.7-0.9 3.6-2.9 4.3l-1.6 0.5c-2 0.6-3.7-0.3-4.4-1.9 0 0-3.9-9.7-5.7-16.9-1.8-7.2-2-17-2-17-0.1-2.1 1-3.6 3-4.2l1.7-0.4c2-0.7 3.9 0.2 4.3 1.9 0 0-0.1 9.3 2.2 18 2.3 8.8 5.4 15.7 5.4 15.7z"/><path class="x" d="m516.1 249.8c0.4 3.5-3.8 5.3-6.7 4.9-2.5-0.3-3.4-4.7-4-6.6-2-5.4-3.9-10.9-4.9-16.7-0.7-4-1-8.2-1.1-12.4-0.1-3.6 3-4.9 6.2-5 2.8-0.2 2.8 2.5 2.9 4.5 0.4 10.8 3.2 21.4 7.6 31.3 0 0.1-0.1 0.1-0.1 0-3.2-7.2-5.8-15-6.8-22.8-0.5-3.6-0.9-7.2-0.8-10.8 0-2.6-4.9-2.3-6.6-1.4-1.7 1-2.4 2.4-2.4 4.3 0.3 8.1 1.6 16 4.2 23.8q1.6 4.7 3.4 9.4c1.7 4.2 9.6 2 9-2.5 0 0 0.1 0 0.1 0z"/><path class="ak" d="m531.8 246.6c0.4 1.7-0.9 3.6-2.9 4.2l-1.6 0.5c-2 0.7-3.7-0.2-4.4-1.8 0 0-3.9-9.8-5.7-16.9-1.8-7.2-2-17.1-2-17.1-0.1-2 1-3.5 3-4.1l1.7-0.5c2-0.6 3.9 0.3 4.3 2 0 0-0.1 9.3 2.2 18 2.3 8.8 5.4 15.7 5.4 15.7z"/><path class="x" d="m531.9 246.6c0.4 3.4-3.8 5.3-6.7 4.9-2.5-0.4-3.4-4.7-4.1-6.6-2-5.4-3.9-11-4.8-16.7-0.7-4.1-1-8.3-1.2-12.4 0-3.6 3.1-4.9 6.2-5.1 2.9-0.1 2.9 2.6 2.9 4.6 0.5 10.8 3.2 21.4 7.7 31.3 0 0-0.1 0-0.1 0-3.2-7.2-5.8-15-6.9-22.9-0.4-3.5-0.8-7.1-0.8-10.7 0-2.6-4.8-2.3-6.5-1.4-1.7 0.9-2.4 2.3-2.4 4.2 0.3 8.2 1.5 16.1 4.2 23.9q1.5 4.7 3.4 9.3c1.6 4.3 9.6 2.1 9-2.4 0 0 0.1 0 0.1 0z"/><path class="al" d="m766.7 210.1c1.9 2.8 1.8 6-5.1 8.2l-4.3 1.1c-6.9 2.2-9.4 0.7-11-3.2 0 0-8.3-14.5-12.3-34.2-2.9-14.8 1.5-36.4 1.5-36.4 0.9-4.4 1.7-6.9 7.5-8.9l7.1-1.8c6.9-2.2 8.4-0.2 7.6 4.4 0 0-5.2 20.5-1 38.4 4.2 18 10 32.4 10 32.4z"/><path class="x" d="m766.6 210.1c3.4 5-2.5 7.5-6.7 8.6-2.1 0.5-4.2 1.2-6.4 1.6-3.8 0.6-5.5-1.2-7.2-4.1-4.1-7.2-7-15.2-9.4-23.1-2.1-6.6-3.5-13.3-3.8-20.2-0.2-5.8 0.2-11.7 0.9-17.4q0.6-4.9 1.5-9.7c0.9-4.5 2.7-7.8 7.5-9q3.5-1 6.9-1.9c2.2-0.5 6.2-2.1 7.7 0.6 0.5 1 0.4 2.7 0.1 3.8-1.6 6.5-2.4 13.3-2.6 19.9-0.4 11.6 2.3 22.4 5.6 33.4 1.7 5.9 3.6 11.8 5.9 17.5 0 0 0.1 0 0.1 0-3.4-8.4-6-17.2-8.3-25.9-2-7.5-3.3-14.8-3.3-22.5 0-5.7 0.6-11.5 1.6-17.1 0.4-2.5 1.3-5.1 1.2-7.7 0-2.6-2.3-3.1-4.4-2.8-3.3 0.3-6.8 1.6-10 2.5-4 1-6.6 3.2-7.6 7.3-2 7.7-2.7 15.9-2.9 23.8-0.4 12.7 3.1 25 7.8 36.7q2.1 5.4 4.8 10.6c1 1.9 1.8 3.9 3.8 4.9 2.9 1.5 6.7-0.2 9.6-0.9 3.2-0.9 8.5-1.9 8.8-5.9 0.1-1.1-0.5-2.2-1.1-3 0 0-0.1-0.1-0.1 0z"/><path class="am" d="m696.3 192.7c0.3 1.5-0.7 3.2-2.2 3.6l-1.1 0.4c-1.5 0.5-2.9-0.3-3.1-1.8l-2-11.6c-0.2-1.5 0.7-3.1 2.2-3.6l1.1-0.4c1.5-0.5 2.9 0.4 3.1 1.9z"/><path  d="m696.3 192.7c0.1 1.7-0.7 3.1-2.4 3.7-1.5 0.5-3.7 0.3-4-1.6q-0.3-1.7-0.6-3.4-0.7-4-1.4-8.1c-0.5-3.4 5.7-5.9 6.4-2q0.3 1.6 0.6 3.3 0.7 4.1 1.4 8.1c0 0.1 0 0.1 0 0q-0.9-5.6-1.9-11.3c-0.7-4.3-6.7-1.6-6.5 1.9 0.2 3.8 1.3 7.6 1.9 11.3 0.7 4.3 6.7 1.7 6.5-1.9 0 0 0 0 0 0z"/><path class="an" d="m684.8 195.3c0.3 1.5-0.7 3.1-2.1 3.6l-1.2 0.4c-1.5 0.4-2.8-0.4-3.1-1.9l-2-11.6c-0.2-1.5 0.7-3.1 2.2-3.6l1.2-0.3c1.4-0.5 2.8 0.3 3 1.8z"/><path  d="m684.8 195.3c0.1 1.6-0.6 3.1-2.4 3.6-1.6 0.6-3.6 0.4-4-1.6q-0.3-1.7-0.6-3.3-0.6-4.1-1.3-8.2c-0.6-3.4 5.7-5.8 6.3-2q0.3 1.7 0.6 3.4 0.7 4 1.4 8.1c0 0 0 0 0 0q-0.9-5.7-1.9-11.3c-0.7-4.4-6.7-1.7-6.5 1.8 0.2 3.8 1.3 7.7 1.9 11.4 0.8 4.3 6.7 1.6 6.5-1.9 0 0 0 0 0 0z"/><path class="ao" d="m673 198.2c0.2 1.5-0.7 3.1-2.2 3.6l-1.2 0.4c-1.4 0.4-2.8-0.4-3-1.9l-2-11.6c-0.3-1.5 0.7-3.1 2.1-3.6l1.2-0.3c1.5-0.5 2.8 0.3 3.1 1.8z"/><path  d="m672.9 198.2c0.1 1.9-0.9 3.1-2.7 3.8-1.8 0.6-3.3-0.2-3.6-1.9q-0.4-1.9-0.7-3.7-0.6-3.8-1.3-7.7c-0.6-3.6 5.7-5.8 6.4-1.8q0.3 1.8 0.6 3.6 0.7 3.8 1.3 7.7c0 0 0.1 0 0.1 0q-1-5.7-1.9-11.4c-0.8-4.3-6.8-1.6-6.5 1.9 0.2 3.8 1.3 7.7 1.9 11.4 0.7 4.3 6.7 1.6 6.5-1.9 0-0.1-0.1 0-0.1 0z"/><path class="ap" d="m662 200.9c0.2 1.5-0.7 3.1-2.2 3.6l-1.2 0.4c-1.4 0.5-2.8-0.4-3-1.9l-2-11.5c-0.3-1.5 0.7-3.1 2.1-3.6l1.2-0.4c1.4-0.5 2.8 0.3 3.1 1.8z"/><path  d="m661.9 200.9c0.1 1.9-0.8 3.1-2.7 3.8-1.6 0.5-3.3 0-3.6-1.8q-0.3-1.6-0.6-3.3-0.7-4.1-1.4-8.1c-0.6-3.5 5.7-5.9 6.4-2q0.3 1.6 0.5 3.3 0.7 4 1.4 8.1c0 0 0.1 0 0.1 0q-1-5.7-1.9-11.3c-0.8-4.4-6.8-1.6-6.6 1.9 0.3 3.7 1.3 7.6 2 11.3 0.7 4.3 6.7 1.6 6.5-1.9 0 0-0.1 0-0.1 0z"/><path class="aq" d="m650.7 203.4c0.3 1.4-0.7 3-2.1 3.5l-0.6 0.2c-1.4 0.5-2.8-0.4-3-1.9l-2-11.3c-0.2-1.5 0.7-3.1 2.1-3.5l0.6-0.2c1.5-0.5 2.8 0.3 3.1 1.8z"/><path  d="m650.7 203.4c0.3 3.5-5.1 5.6-5.8 1.4-0.6-3.5-1.7-7.3-1.9-10.9-0.2-3.6 5.2-5.7 5.9-1.5q0.9 5.5 1.8 11c0 0 0 0 0 0q-0.7-3.7-1.3-7.4-0.3-1.9-0.6-3.8c-0.7-3.8-6.3-1.7-5.7 1.7q0.6 3.7 1.2 7.4 0.4 1.8 0.7 3.7c0.7 4 5.9 1.6 5.7-1.6 0-0.1 0-0.1 0 0z"/><path class="ar" d="m640.7 205.5c0.2 1.5-0.7 3-2.1 3.5l-0.6 0.2c-1.5 0.5-2.8-0.3-3.1-1.8l-1.9-11.4c-0.3-1.5 0.7-3 2.1-3.5l0.6-0.2c1.4-0.5 2.8 0.4 3 1.8z"/><path  d="m640.7 205.5c0.2 3.6-5.2 5.7-5.9 1.5-0.6-3.6-1.6-7.4-1.8-11-0.3-3.6 5.1-5.7 5.8-1.5q1 5.5 1.9 11c0 0-0.1 0-0.1 0q-0.6-3.7-1.2-7.4-0.3-1.8-0.6-3.6c-0.7-3.8-6.4-2-5.8 1.5q0.7 3.7 1.3 7.4 0.3 1.8 0.6 3.6c0.7 4 5.9 1.9 5.7-1.5 0 0 0.1 0 0.1 0z"/><path class="as" d="m630.4 208c0.3 1.4-0.7 3-2.1 3.5l-0.6 0.2c-1.4 0.5-2.7-0.4-3-1.8l-1.9-11.4c-0.3-1.5 0.6-3.1 2.1-3.5l0.6-0.2c1.4-0.5 2.7 0.3 3 1.8z"/><path  d="m630.4 208c0.1 1.7-0.7 3-2.4 3.6-1.6 0.5-3.1-0.5-3.3-2q-0.3-1.9-0.6-3.7-0.7-3.7-1.3-7.4c-0.6-3.3 5-5.6 5.7-1.7q0.3 1.9 0.6 3.8 0.7 3.7 1.3 7.4c0 0 0.1 0 0.1 0q-1-5.5-1.9-11c-0.7-4.2-6.1-2.1-5.9 1.5 0.2 3.6 1.3 7.4 1.9 10.9 0.7 4.2 6.1 2.2 5.9-1.4 0-0.1-0.1-0.1-0.1 0z"/><path class="at" d="m619.2 210.3c0.3 1.5-0.6 3-2 3.4l-0.6 0.2c-1.3 0.5-2.6-0.3-2.9-1.7l-1.9-11c-0.2-1.4 0.7-2.9 2.1-3.4l0.6-0.2c1.3-0.4 2.6 0.4 2.9 1.8z"/><path  d="m619.2 210.3c0.1 1.7-0.6 3-2.3 3.5-2.8 1-3-0.8-3.2-2q-0.3-1.9-0.6-3.7-0.6-3.4-1.2-6.9c-0.6-3.2 4.8-5.3 5.5-1.4q0.3 1.8 0.6 3.6 0.6 3.5 1.2 6.9c0 0.1 0.1 0.1 0.1 0q-0.9-5.2-1.8-10.5c-0.7-4-5.9-2.1-5.7 1.4 0.2 3.5 1.2 7.1 1.8 10.6 0.7 4 5.9 2 5.7-1.5 0 0-0.1 0-0.1 0z"/><path class="au" d="m608.8 212.9c0.2 1.5-0.7 3-2.1 3.4l-0.5 0.2c-1.4 0.5-2.7-0.3-2.9-1.7l-1.9-11c-0.3-1.4 0.7-2.9 2-3.4l0.6-0.2c1.4-0.4 2.7 0.4 2.9 1.8z"/><path  d="m608.8 212.9c0.2 3.5-5 5.5-5.6 1.5-0.6-3.5-1.6-7.1-1.8-10.6-0.2-3.4 4.9-5.5 5.6-1.4q0.9 5.3 1.8 10.5c0 0.1-0.1 0.1-0.1 0q-0.5-3.4-1.1-6.9-0.3-1.8-0.7-3.6c-0.6-3.7-6.1-2-5.5 1.4q0.6 3.5 1.2 6.9 0.3 1.8 0.6 3.6c0.7 3.8 5.7 2 5.5-1.4 0 0 0.1 0 0.1 0z"/><path class="av" d="m597.8 215.2c0.2 1.4-0.7 2.9-2 3.4l-0.6 0.2c-1.4 0.4-2.7-0.4-2.9-1.8l-1.9-11c-0.2-1.4 0.7-2.9 2-3.4l0.6-0.1c1.4-0.5 2.7 0.3 2.9 1.7z"/><path  d="m597.8 215.2c0.1 1.6-0.6 2.9-2.3 3.4-2.8 1-3-0.8-3.3-2q-0.3-1.8-0.6-3.7-0.6-3.4-1.2-6.9c-0.5-3.2 4.9-5.1 5.6-1.4q0.3 1.8 0.6 3.7 0.6 3.4 1.2 6.9c0 0 0 0 0 0q-0.9-5.3-1.8-10.6c-0.7-4-5.8-2-5.6 1.4 0.2 3.5 1.2 7.1 1.8 10.6 0.7 4 5.8 2 5.6-1.4 0-0.1 0-0.1 0 0z"/><path class="aw" d="m586.6 217.8c0.2 1.5-0.7 3-2.1 3.4l-0.5 0.2c-1.4 0.5-2.7-0.3-2.9-1.7l-1.9-11c-0.3-1.4 0.7-2.9 2-3.4l0.6-0.2c1.4-0.4 2.7 0.4 2.9 1.8z"/><path  d="m586.5 217.8c0.1 1.6-0.5 2.8-2 3.4-1.4 0.7-3.2-0.2-3.4-1.7q-0.3-1.5-0.5-3-0.7-3.9-1.4-7.8c-0.5-3.1 4.9-5.4 5.5-1.7q0.3 1.7 0.6 3.5 0.6 3.6 1.2 7.3c0 0 0.1 0.1 0.1 0q-0.9-5.2-1.8-10.5c-0.7-4.1-5.8-2.1-5.6 1.4 0.2 3.4 1.1 6.9 1.7 10.3 0.7 4.2 5.9 2.6 5.7-1.2 0 0-0.1 0-0.1 0z"/><path class="ax" d="m567.5 221.7c0.2 1.3-0.7 2.8-2 3.3l-0.6 0.2c-1.3 0.4-2.6-0.4-2.8-1.8l-1.9-10.6c-0.2-1.4 0.7-2.9 2-3.4l0.6-0.1c1.3-0.5 2.6 0.3 2.8 1.7z"/><path  d="m567.5 221.7c0.1 3.4-4.9 5.3-5.5 1.3-0.6-3.3-1.7-6.9-1.8-10.2-0.1-3.5 4.9-5.4 5.5-1.4q0.9 5.1 1.8 10.3c0 0-0.1 0-0.1-0.1q-0.5-3.2-1.1-6.5-0.3-1.8-0.6-3.7c-0.7-3.7-6-1.9-5.4 1.4q0.5 3.2 1.1 6.5 0.3 1.9 0.6 3.7c0.7 4 5.5 1.6 5.4-1.4 0 0 0.1 0 0.1 0.1z"/><path class="ay" d="m550 226.1c0.2 1.4-0.7 2.8-2 3.2l-0.5 0.2c-1.3 0.4-2.5-0.3-2.8-1.7l-1.7-10.3c-0.3-1.3 0.6-2.8 1.9-3.2l0.5-0.2c1.3-0.4 2.6 0.4 2.8 1.7z"/><path  d="m550 226.1c0.1 3.1-4.7 5.3-5.3 1.5-0.6-3.3-1.6-6.8-1.8-10.1-0.1-3.1 4.7-5.3 5.4-1.4q0.8 5 1.7 10c0 0-0.1 0-0.1 0q-0.5-3.3-1.1-6.6-0.3-1.6-0.6-3.3c-0.6-3.4-5.8-2-5.2 1.3q0.6 3.3 1.1 6.6 0.3 1.7 0.6 3.3c0.6 3.6 5.3 2 5.2-1.3 0 0 0.1 0 0.1 0z"/><path class="az" d="m541.3 227.7c0.3 1.4-0.6 2.8-1.9 3.2l-0.5 0.2c-1.3 0.4-2.5-0.3-2.8-1.6l-1.7-10.4c-0.3-1.3 0.6-2.8 1.9-3.2l0.5-0.2c1.3-0.4 2.5 0.4 2.8 1.7z"/><path  d="m541.4 227.7c0.1 3.1-4.7 5.3-5.4 1.5-0.5-3.3-1.5-6.8-1.7-10.1-0.1-3.1 4.7-5.3 5.3-1.4q0.9 5 1.8 10c0 0-0.1 0-0.1 0q-0.6-3.3-1.1-6.6-0.3-1.6-0.6-3.3c-0.6-3.4-5.8-2-5.2 1.3q0.6 3.3 1.1 6.6 0.3 1.7 0.6 3.3c0.6 3.6 5.3 1.9 5.2-1.3 0 0 0.1 0 0.1 0z"/><path class="aA" d="m533.4 229.4c0.2 1.4-0.6 2.8-1.9 3.3l-0.6 0.1c-1.2 0.5-2.5-0.3-2.7-1.6l-1.8-10.4c-0.2-1.3 0.7-2.7 1.9-3.2l0.6-0.2c1.3-0.4 2.5 0.4 2.7 1.7z"/><path  d="m533.4 229.4c0.2 3.1-4.6 5.3-5.3 1.5-0.5-3.3-1.6-6.7-1.7-10.1-0.1-3.1 4.7-5.2 5.3-1.4q0.9 5 1.7 10c0 0.1 0 0.1 0 0q-0.6-3.3-1.2-6.6-0.2-1.6-0.5-3.2c-0.6-3.4-5.8-2.1-5.2 1.2q0.5 3.3 1.1 6.6 0.3 1.7 0.6 3.3c0.6 3.6 5.3 1.9 5.2-1.3 0 0 0 0 0 0z"/><path class="aB" d="m524.4 231.3c0.3 1.3-0.5 2.7-1.8 3.1l-0.5 0.2c-1.3 0.4-2.5-0.3-2.8-1.6l-2.1-10.1c-0.3-1.3 0.5-2.7 1.8-3.1l0.5-0.2c1.3-0.4 2.5 0.3 2.8 1.7z"/><path  d="m524.5 231.3c0.2 3.1-4.5 5-5.3 1.4-0.7-3.2-1.8-6.5-2.1-9.8-0.2-3.1 4.5-5 5.3-1.4q1 4.9 2.1 9.8c0 0-0.1 0-0.1 0q-0.7-3.1-1.3-6.2-0.4-1.7-0.7-3.4c-0.7-3.3-5.9-2.1-5.2 1.3q0.7 3.1 1.3 6.2 0.4 1.6 0.7 3.3c0.8 3.4 5.4 2 5.2-1.2 0-0.1 0.1-0.1 0.1 0z"/><path class="aC" d="m508.9 234.8c0.3 1.3-0.5 2.7-1.6 3.1l-0.5 0.2c-1.2 0.4-2.4-0.4-2.7-1.7l-2.2-10c-0.3-1.3 0.4-2.6 1.6-3l0.5-0.2c1.2-0.4 2.4 0.3 2.7 1.6z"/><path  d="m508.9 234.8c0.3 3.2-4.1 4.9-4.9 1.4-0.7-3.2-1.8-6.5-2.1-9.8-0.3-3.1 4.1-4.9 4.9-1.3q1 4.9 2.1 9.7c0 0.1 0 0.1-0.1 0q-0.6-3.1-1.3-6.2-0.4-1.6-0.8-3.3c-0.7-3.3-5.5-2.2-4.8 1.1q0.7 3.1 1.4 6.2 0.4 1.7 0.7 3.4c0.8 3.4 5.2 2.1 4.8-1.2 0 0 0.1 0 0.1 0z"/><path class="aD" d="m499.3 237c0.3 1.3-0.4 2.7-1.6 3.1l-0.5 0.2c-1.2 0.3-2.4-0.4-2.7-1.7l-2.2-10c-0.2-1.3 0.5-2.7 1.7-3.1l0.5-0.1c1.1-0.4 2.3 0.3 2.6 1.6z"/><path  d="m499.4 237c0.3 3.1-4.2 4.9-5 1.3-0.7-3.1-1.8-6.5-2.1-9.7-0.3-3.1 4.1-4.9 4.9-1.3q1.1 4.8 2.2 9.7c0 0-0.1 0-0.1 0q-0.7-3.1-1.4-6.2-0.3-1.6-0.7-3.3c-0.7-3.3-5.5-2.2-4.8 1.1q0.7 3.1 1.3 6.2 0.4 1.7 0.8 3.3c0.7 3.3 5.1 2.2 4.8-1.1 0 0 0.1 0 0.1 0z"/><path class="aE" d="m490.1 239.1c0.3 1.3-0.4 2.7-1.6 3.1l-0.5 0.1c-1.2 0.4-2.4-0.3-2.7-1.6l-2.2-10c-0.3-1.3 0.4-2.7 1.6-3.1l0.5-0.2c1.2-0.4 2.4 0.4 2.7 1.7z"/><path  d="m490.1 239.1c0.4 3.4-4.1 4.7-4.9 1.1-0.7-3.1-1.8-6.4-2.1-9.5-0.3-3.2 4.1-4.9 4.9-1.3q1.1 4.8 2.1 9.7c0 0 0 0 0 0q-0.8-3.4-1.5-6.7-0.4-1.6-0.7-3.2c-0.7-3.3-5.4-1.4-4.8 1.5q0.8 3.5 1.6 7.1 0.3 1.4 0.6 2.7c0.8 3.5 5 1.4 4.8-1.4 0 0 0 0 0 0z"/><path class="aF" d="m481.9 240.8c0.2 1.3-0.5 2.6-1.6 3l-0.5 0.2c-1.1 0.4-2.3-0.4-2.6-1.6l-2.1-9.7c-0.3-1.2 0.4-2.6 1.6-2.9l0.5-0.2c1.1-0.4 2.3 0.3 2.5 1.6z"/><path  d="m481.9 240.9c0.3 2.9-4 4.7-4.7 1.4-0.7-3.1-1.8-6.4-2.1-9.6-0.3-2.9 4-4.8 4.7-1.4q1.1 4.8 2.1 9.6c0 0-0.1 0-0.1-0.1q-0.7-3.1-1.3-6.2-0.4-1.6-0.7-3.1c-0.7-3.2-5.3-1.7-4.6 1.2q0.6 3.2 1.3 6.3 0.4 1.6 0.7 3.1c0.7 3.3 4.9 1.6 4.6-1.3 0 0 0.1 0 0.1 0.1z"/><path class="aG" d="m473.9 242.6c0.3 1.2-0.4 2.6-1.6 2.9l-0.5 0.2c-1.1 0.4-2.3-0.3-2.5-1.6l-2.2-9.6c-0.2-1.3 0.5-2.6 1.6-3l0.5-0.2c1.1-0.4 2.3 0.4 2.6 1.6z"/><path  d="m473.8 242.6c0.2 1.4-0.3 2.5-1.8 3-2.3 0.8-2.5-0.7-2.8-1.8q-0.3-1.5-0.7-3.1-0.7-3.1-1.3-6.2c-0.6-2.8 3.8-4.8 4.6-1.3q0.3 1.5 0.7 3.1 0.7 3.1 1.3 6.3c0 0 0.1 0 0.1 0q-1-4.8-2.1-9.5c-0.7-3.4-5-1.6-4.7 1.3 0.3 3.2 1.4 6.5 2.1 9.6 0.7 3.3 5 1.5 4.7-1.4 0 0-0.1-0.1-0.1 0z"/><path class="aH" d="m466.4 244.5c0.3 1.3-0.4 2.6-1.6 3l-0.5 0.2c-1.1 0.3-2.3-0.4-2.6-1.6l-2.1-9.7c-0.3-1.2 0.4-2.6 1.6-2.9l0.5-0.2c1.1-0.4 2.3 0.3 2.5 1.6z"/><path  d="m466.3 244.5c0.2 1.4-0.3 2.6-1.8 3.1-1.8 0.6-2.5-0.5-2.7-1.7q-0.4-1.4-0.7-2.8-0.7-3.3-1.4-6.6c-0.7-3 3.9-4.5 4.6-1.3q0.3 1.5 0.7 3.1 0.7 3.1 1.3 6.2c0 0.1 0.1 0.1 0.1 0q-1-4.6-2.1-9.3c-0.7-3.5-5-1.9-4.7 1.2 0.3 3.1 1.4 6.3 2.1 9.4 0.7 3.4 5 1.8 4.7-1.3 0 0-0.1 0-0.1 0z"/><path class="aI" d="m459 246.1c0.3 1.3-0.4 2.6-1.5 3l-0.5 0.1c-1.2 0.4-2.3-0.3-2.6-1.6l-2.1-9.6c-0.3-1.3 0.4-2.6 1.5-3l0.5-0.1c1.2-0.4 2.3 0.3 2.6 1.6z"/><path  d="m459.1 246.1c0.2 3-4 4.8-4.8 1.4-0.6-3.1-1.8-6.3-2.1-9.5-0.2-3 4-4.8 4.8-1.4q1 4.8 2.1 9.5c0 0-0.1 0-0.1 0q-0.7-3.1-1.4-6.2-0.3-1.6-0.7-3.2c-0.7-3.4-5.2-1.5-4.6 1.3q0.7 3.1 1.4 6.3 0.3 1.5 0.7 3.1c0.8 3.8 4.8 1.2 4.6-1.3 0 0 0.1 0 0.1 0z"/><path class="aJ" d="m451.7 247.7c0.3 1.2-0.4 2.4-1.5 2.8l-0.5 0.1c-1 0.4-2.1-0.3-2.4-1.5l-2-9.1c-0.3-1.2 0.4-2.5 1.5-2.8l0.4-0.2c1.1-0.4 2.2 0.3 2.5 1.5z"/><path  d="m451.7 247.7c0.2 2.9-3.8 4.5-4.5 1.1-0.6-2.8-1.7-5.9-1.9-8.8-0.2-2.9 3.7-4.5 4.5-1.2q1 4.4 1.9 8.9c0 0 0 0 0 0q-0.7-2.9-1.3-5.8-0.3-1.4-0.7-2.9c-0.6-2.9-5.1-2.1-4.4 1q0.7 2.8 1.3 5.7 0.3 1.5 0.6 2.9c0.7 3.1 4.7 2.1 4.5-0.9 0-0.1 0-0.1 0 0z"/><path class="aK" d="m444.3 249.2c0.3 1.2-0.4 2.5-1.5 2.8l-0.4 0.2c-1.1 0.3-2.2-0.3-2.5-1.5l-2-9.2c-0.3-1.2 0.4-2.4 1.5-2.8l0.4-0.1c1.1-0.4 2.2 0.3 2.5 1.5z"/><path  d="m444.3 249.2c0.2 2.9-3.7 4.5-4.5 1.2-0.6-2.9-1.7-6-1.9-8.9-0.2-2.9 3.8-4.5 4.5-1.2q1 4.5 1.9 8.9c0 0 0 0 0 0q-0.6-2.6-1.2-5.3-0.3-1.5-0.7-3.1c-0.6-2.7-5.2-2.8-4.5 0.7q0.6 2.7 1.2 5.3 0.4 1.6 0.7 3.1c0.6 2.8 4.7 2.9 4.5-0.7 0 0 0 0 0 0z"/><path class="aL" d="m436.4 251.3c0.2 1.2-0.4 2.4-1.4 2.7l-0.4 0.1c-1 0.3-2-0.4-2.2-1.6l-1.9-9.2c-0.3-1.2 0.3-2.4 1.3-2.7l0.5-0.1c1-0.3 2 0.4 2.2 1.6z"/><path  d="m436.4 251.3c0.2 3-3.5 4.1-4.1 0.9-0.6-2.9-1.7-5.9-1.9-8.9-0.2-3 3.5-4.1 4.2-0.9q0.9 4.4 1.8 8.9c0 0 0 0-0.1 0q-0.5-2.9-1.1-5.8-0.3-1.5-0.6-2.9c-0.6-2.9-4.7-2.4-4.1 0.7q0.6 2.9 1.2 5.8 0.3 1.5 0.6 2.9c0.6 3.1 4.2 2.3 4-0.7 0-0.1 0.1 0 0.1 0z"/><path class="aM" d="m428.7 252.9c0.2 1.2-0.4 2.4-1.4 2.7l-0.4 0.1c-1 0.3-2-0.4-2.3-1.6l-1.8-9.2c-0.3-1.2 0.3-2.4 1.3-2.7l0.4-0.1c1-0.3 2 0.4 2.3 1.6z"/><path  d="m428.7 252.9c0.2 2.9-3.5 4.2-4.2 0.9-0.6-2.9-1.6-5.9-1.8-8.9-0.2-2.9 3.5-4.2 4.2-0.9q0.9 4.4 1.8 8.9c0 0-0.1 0-0.1 0q-0.6-2.9-1.2-5.8-0.3-1.5-0.6-2.9c-0.5-2.9-4.6-2.4-4 0.7q0.6 2.9 1.2 5.8 0.3 1.5 0.6 2.9c0.6 2.9 4.2 2.3 4-0.7 0 0 0.1-0.1 0.1 0z"/><path class="aN" d="m421.8 254.6c0.2 1.2-0.4 2.4-1.4 2.7l-0.4 0.1c-1 0.3-2-0.4-2.2-1.6l-1.9-9.2c-0.3-1.2 0.3-2.4 1.3-2.7l0.5-0.1c1-0.3 2 0.4 2.2 1.6z"/><path  d="m421.8 254.6c0.2 2.9-3.5 4.1-4.1 0.9-0.6-2.9-1.7-5.9-1.9-8.9-0.2-2.9 3.5-4.1 4.2-0.9q0.9 4.4 1.8 8.9c0 0 0 0-0.1 0q-0.5-2.9-1.1-5.8-0.3-1.5-0.6-2.9c-0.6-3-4.7-2.4-4.1 0.7q0.6 2.9 1.2 5.8 0.3 1.5 0.6 2.9c0.6 3.1 4.3 2.3 4-0.7 0-0.1 0.1 0 0.1 0z"/><path class="aO" d="m414.1 256.3c0.3 1.2-0.3 2.4-1.3 2.7l-0.4 0.1c-1 0.3-2-0.4-2.3-1.6l-1.9-9.2c-0.2-1.2 0.4-2.4 1.4-2.7l0.4-0.1c1-0.3 2 0.4 2.3 1.6z"/><path  d="m414.2 256.3c0.2 2.9-3.5 4.2-4.2 0.9-0.6-2.8-1.6-5.9-1.8-8.9-0.2-2.9 3.5-4.2 4.2-0.9q0.9 4.4 1.8 8.9c0 0-0.1 0-0.1 0q-0.5-2.7-1.1-5.3-0.3-1.6-0.6-3.2c-0.6-2.6-4.8-3-4.1 0.5q0.5 2.7 1.1 5.3 0.3 1.6 0.6 3.2c0.5 2.6 4.4 3.1 4.1-0.5 0 0 0.1 0 0.1 0z"/><path class="aP" d="m408 257.9c0.2 1.2-0.4 2.4-1.4 2.7l-0.4 0.1c-1 0.4-2-0.4-2.3-1.6l-1.8-9.1c-0.3-1.2 0.3-2.5 1.3-2.8l0.4-0.1c1-0.3 2 0.4 2.3 1.6z"/><path  d="m407.9 257.9c0.1 1.2-0.1 2.3-1.5 2.8-2.1 0.6-2.3-0.9-2.5-1.8q-0.3-1.4-0.5-2.7-0.7-3.1-1.3-6.2c-0.5-2.5 3.3-4.4 4-1q0.3 1.6 0.7 3.1 0.5 2.9 1.1 5.8c0 0 0.1 0 0.1 0q-0.9-4.4-1.8-8.9c-0.7-3.2-4.4-2-4.2 0.9 0.2 2.9 1.2 5.9 1.8 8.7 0.7 3.3 4.4 2.6 4.2-0.7 0 0-0.1 0-0.1 0z"/><path class="aQ" d="m401.1 259.3c0.2 1.2-0.4 2.4-1.4 2.7l-0.4 0.2c-1 0.3-2-0.5-2.3-1.7l-1.8-9.1c-0.3-1.2 0.3-2.4 1.3-2.7l0.5-0.2c0.9-0.3 2 0.4 2.2 1.6z"/><path  d="m401.1 259.3c0.2 2.9-3.5 4.2-4.1 1-0.6-2.9-1.7-6-1.9-8.9-0.2-2.9 3.5-4.3 4.2-1q0.9 4.5 1.8 8.9c0 0-0.1 0-0.1 0q-0.5-2.9-1.1-5.7-0.3-1.5-0.6-3c-0.6-2.9-4.7-2.3-4.1 0.8q0.6 2.8 1.2 5.7 0.3 1.5 0.6 3c0.6 2.9 4.3 2.4 4-0.8 0 0 0.1 0 0.1 0z"/><path class="aR" d="m395 260.8c0.2 1.1-0.4 2.3-1.4 2.6l-0.4 0.1c-1 0.3-2-0.3-2.3-1.5l-1.7-8.8c-0.2-1.1 0.4-2.3 1.4-2.6l0.4-0.1c1-0.3 2 0.4 2.2 1.5z"/><path  d="m395 260.8c0.2 2.8-3.5 4-4.2 0.9-0.5-2.7-1.5-5.7-1.6-8.5-0.2-2.6 3.5-4.1 4.1-1q0.8 4.3 1.7 8.6c0 0-0.1 0-0.1 0q-0.5-2.8-1.1-5.6-0.3-1.4-0.6-2.9c-0.5-2.7-4.5-1.8-4 1q0.6 3 1.2 6 0.3 1.3 0.6 2.6c0.5 2.9 4.1 1.4 3.9-1.1 0 0 0.1 0 0.1 0z"/><path class="aS" d="m388.5 262.2c0.2 1.2-0.4 2.4-1.4 2.7l-0.4 0.1c-1 0.3-2-0.4-2.2-1.6l-1.8-8.8c-0.3-1.2 0.4-2.4 1.4-2.7l0.4-0.1c1-0.3 2 0.4 2.2 1.5z"/><path  d="m388.5 262.2c0.2 2.7-3.5 4.2-4.1 1.1-0.6-2.8-1.6-5.9-1.8-8.7-0.1-2.7 3.5-4.2 4.2-1.1q0.8 4.3 1.7 8.7c0 0 0 0-0.1 0q-0.5-2.7-1-5.4-0.3-1.5-0.6-3c-0.6-2.8-4.7-2.3-4.1 0.8q0.5 2.7 1.1 5.4 0.3 1.4 0.6 3c0.6 2.9 4.2 2.2 4-0.8 0 0 0.1 0 0.1 0z"/><path class="aT" d="m382.2 263.3c0.2 1.1-0.3 2.2-1.2 2.5l-0.4 0.1c-0.9 0.3-1.8-0.4-2.1-1.5l-1.7-8.3c-0.2-1.1 0.4-2.3 1.3-2.5l0.3-0.1c1-0.3 1.9 0.3 2.1 1.4z"/><path  d="m382.2 263.3c0.2 2.4-3.1 4-3.7 1.1-0.6-2.7-1.5-5.6-1.7-8.3-0.2-2.5 3.1-4 3.7-1.1q0.9 4.1 1.7 8.3c0.1 0 0 0 0 0q-0.6-2.6-1.1-5.1-0.3-1.5-0.6-3c-0.5-2.6-4.2-1.8-3.6 0.9q0.5 2.5 1 5.1 0.3 1.5 0.6 2.9c0.6 2.8 3.9 1.8 3.7-0.8 0 0 0 0 0 0z"/><path class="aU" d="m376.1 264.7c0.3 1.1-0.3 2.2-1.2 2.4l-0.4 0.2c-0.9 0.2-1.8-0.4-2-1.5l-1.8-8.4c-0.2-1.1 0.4-2.2 1.3-2.5l0.4-0.1c0.9-0.3 1.8 0.4 2 1.5z"/><path  d="m376.2 264.7c0.1 2.4-3.2 4-3.8 1-0.5-2.7-1.5-5.6-1.7-8.3-0.2-2.4 3.2-4 3.8-1.1q0.8 4.2 1.7 8.4c0 0-0.1 0-0.1 0q-0.5-2.6-1-5.2-0.3-1.5-0.6-2.9c-0.6-2.7-4.3-1.9-3.7 0.8q0.5 2.6 1 5.1 0.3 1.5 0.6 3c0.6 2.7 3.9 1.8 3.7-0.8 0-0.1 0.1-0.1 0.1 0z"/><path class="aV" d="m370.2 266.1c0.2 1.1-0.4 2.2-1.3 2.4l-0.4 0.2c-0.9 0.2-1.8-0.4-2-1.5l-1.7-8.4c-0.2-1.1 0.3-2.2 1.2-2.5l0.4-0.1c0.9-0.3 1.8 0.4 2.1 1.5z"/><path  d="m370.2 266.1c0.2 2.5-3.2 3.9-3.8 0.9-0.5-2.6-1.5-5.5-1.7-8.2-0.1-2.6 3.2-3.9 3.8-1q0.9 4.1 1.7 8.3c0 0-0.1 0-0.1 0q-0.5-2.9-1.1-5.7-0.3-1.3-0.5-2.6c-0.6-2.6-4.2-1.5-3.7 1q0.6 2.8 1.2 5.6 0.2 1.3 0.5 2.6c0.6 2.8 3.8 1.5 3.6-1 0 0 0.1 0 0.1 0.1z"/><path class="aW" d="m364.6 267.3c0.2 1.1-0.2 2.2-1.1 2.5l-0.3 0.1c-0.8 0.2-1.7-0.5-1.9-1.6l-1.8-8.3c-0.2-1.1 0.2-2.2 1.1-2.5l0.3-0.1c0.8-0.2 1.7 0.5 1.9 1.6z"/><path  d="m364.6 267.3c0.3 2.6-2.8 3.7-3.4 0.9-0.6-2.7-1.5-5.5-1.7-8.2-0.3-2.6 2.8-3.7 3.4-0.9q0.8 4.1 1.7 8.2c0 0.1 0 0 0 0q-0.6-2.8-1.2-5.6-0.3-1.3-0.6-2.6c-0.6-2.7-3.8-1.4-3.3 0.9q0.6 2.8 1.2 5.6 0.3 1.3 0.6 2.6c0.6 2.7 3.5 1.4 3.3-0.9 0 0 0 0 0 0z"/><path class="aX" d="m722.2 185.9c0.3 1.5-0.7 3.2-2.1 3.6l-1.8 0.6c-1.5 0.5-2.8-0.3-3.1-1.8l-2-11.6c-0.2-1.5 0.7-3.1 2.2-3.6l1.8-0.6c1.4-0.5 2.8 0.4 3.1 1.9z"/><path  d="m722.3 185.9c0.1 2.7-1.7 3.5-3.9 4.2-1.5 0.5-3-0.3-3.3-1.9-0.6-3.8-1.7-7.7-1.9-11.5-0.2-2.7 1.7-3.4 3.8-4.2 1.6-0.5 3 0.3 3.3 2q1 5.7 2 11.4c0 0.1-0.1 0.1-0.1 0q-0.7-4-1.4-8.1-0.3-1.7-0.6-3.4c-0.6-3.7-7.6-1.3-6.9 2.3q0.7 4.1 1.3 8.1 0.3 1.7 0.6 3.4c0.4 2.2 2.8 2 4.4 1.5 1.8-0.6 2.7-1.9 2.6-3.8 0 0 0.1 0 0.1 0z"/><path class="aY" d="m709.7 188.7c0.3 1.5-0.7 3.1-2.1 3.6l-1.9 0.6c-1.4 0.5-2.8-0.3-3-1.9l-2-11.5c-0.3-1.5 0.7-3.1 2.1-3.6l1.9-0.6c1.4-0.5 2.8 0.4 3 1.9z"/><path  d="m709.7 188.7c0.2 2.9-2.1 3.9-4.5 4.4-1.4 0.2-2.4-1.1-2.6-2.3-0.6-3.7-1.7-7.6-1.9-11.3-0.2-2.9 2.1-3.8 4.5-4.3 1.4-0.3 2.4 1 2.6 2.2q1 5.7 1.9 11.3c0 0 0 0 0 0q-0.8-4.3-1.5-8.5c-0.2-1-0.2-2.1-0.5-3-1.1-3.9-7.5-1.1-7 2.3q0.8 4.5 1.6 9c0.1 0.9 0.1 2.3 0.6 3.2 1 1.7 3.2 1.2 4.6 0.6 1.6-0.7 2.3-2 2.2-3.6 0 0 0 0 0 0z"/><path class="aZ" d="m746.4 164c0.1 1.9-0.9 3.4-2.3 3.5-1.3 0.1-2.5-1.4-2.5-3.2-0.1-1.9 0.9-3.4 2.2-3.5 1.3-0.1 2.5 1.4 2.6 3.2z"/><path class="b0" d="m735.6 176.5l5.9-3.1 7.2-0.2 1 3-6.6 2.7-6.4 0.7z"/><path class="af" d="m518.3 162.7c-39.2 19-67.1 46.4-80.5 61.4-80.6 15.6-122.4 17.8-111.9 10.7 7.1-4.8 29.3-12.6 79.9-24.1 48.5-11.1 55.7-13.8 3.8-3.7-16.3 3.2-38.5 5.1-28.1-1.8 10.4-6.9 49.3-16.1 90.9-28.6 12.3-3.7 28-8.5 45.9-13.9z"/><path class="b1" d="m847.6 111.6c-15.3 9.2-100.3 36.3-260.4 78.1-58.5 15.2-108.9 26.5-149.4 34.4 13.4-15 41.3-42.4 80.5-61.4 88.7-26.8 231.3-69 279.9-69 60.4-0.1 64.8 8.7 49.4 17.9z"/><path class="b2" d="m526.9 159.5c-22.5 10.2-40.6 22.2-51.5 30.1-49.8 10.4-82.4 15.9-69 9.4 13.5-6.5 61.2-22.3 120.5-39.5z"/><path class="b3" d="m677.2 143c-59.3 14.9-142.6 34.3-201.8 46.6 10.9-7.9 29-19.9 51.5-30.1 100.2-29 233.7-62.1 292.5-61.4 30.4 0.4-33 17.4-142.2 44.9z"/><path class="b4" d=""/><path class="x" d="m320.2 258.7c0 0 0.1-0.1 0-0.1 0 0-0.1 0.1 0 0.1z"/><g style="opacity:.7;mix-blend-mode:multiply"><path class="b5" d="m368.2 298.7c8.6 2.4 18.9 3.4 30.5 3.1 0.3 0.6 0.9 1.2 1.9 2.1 1.4 1.4 3.8 3.4 7 5.4-3.5 1-5.5 1.6-5.5 1.6 0 0-15.6-3.1-33.9-12.2z"/></g><g style="opacity:.4;mix-blend-mode:multiply"><path class="b6" d="m947.5 195.4c-4.6 5.9-10.4 14.8-19.7 24.5-17.4 18.2-47 39.1-103.7 47.8-28.6 4.5-58.6 8.9-86.1 12.8 0 0-27.9-5.9-44.4-23.2-7.5-7.7-6.6-7.5-13.8-6.1-7.3 1.3-8.3 1.4-12.2 2.5-3.8 1.1-5.6 2.3 0.8 8.2 6.4 6 21.7 18.3 46.8 21.8-45 6.3-78.4 10.8-78.4 10.8 0 0-35.8 9.1-53.2 11-17.4 2-68.9 7.5-68.9 7.5-5.4-4.7-11.2-6.7-11.2-6.7 10.4-4.4 55-5.9 64-6.6 9-0.6 9.6-6.8 9.6-6.8 0 0 5.9-3.7 5.1-6.1-0.8-2.4-6.2-6.6-6.2-6.6-0.9-4.7-7.4-23-33.5-15.9-26 7.2-47.7 21.1-68.5 26.5-12.8 3.3-36.4 9.9-53.3 14.7-1.9-1.3-3.7-2.7-5.4-4.4q-0.3-0.4-0.6-0.6c8.9-1.3 18.1-2.2 28.6-5.4 10.1-3 25.9-6.9 27.4-9.7 74.1-25.3 85.1-41.7 111-14.6 22.2 23.2 38.4 17.8 62.1 13.4 19-3.5 36.7-6 23.9-17.1-16.4-14.1-5.7-12.3 9.9-17.7 15.6-5.5 15.8 5.4 27.4 14.6 11.7 9.1 44.9-0.3 77.3-6 32.4-5.7 76.1-9.3 120.7-36 37.4-22.4 52.5-48.3 49.8-64 6.9 9.6 6.6 22.1-5.3 37.4z"/></g><g style="opacity:.7;mix-blend-mode:multiply"><path class="b7" d="m415.3 301c1.7 1.7 3.3 3 5.2 4.3-5.2 1.5-9.7 2.8-12.9 3.7-3.3-2-5.5-3.8-6.9-5.1-1-0.9-1.6-1.6-1.9-2.1 0 0 10.3-0.5 16-1.4q0.2 0.3 0.5 0.6z"/></g><path class="b8" d="m325.7 170.7c-7.7-12.7-30.6-48.2-27.9-50.3 2.7-2 10.2 14.7 45 55.8 4.8 5.7 42.4 18 42.4 18l-24.3 11.6c0 0-21.4-18.6-25.3-21.9-3.8-3.3-4.7-4.7-9.9-13.2z"/><g style="opacity:.3;mix-blend-mode:multiply"><path class="b9" d="m701.9 241.2c53-9.3 146.9-29.1 190.7-40.4 2.1 3.2 4.4 6.1 6.9 8.3 8.3 7.4 17.4 13.6 28.8 10.4-17.4 18.2-47.1 39-103.8 47.8-28.6 4.4-58.6 8.8-86 12.7 0 0-28-5.8-44.5-23.1-7.4-7.8-6.6-7.5-13.8-6.2-7.2 1.4-8.3 1.5-12.1 2.6-3.9 1.1-5.6 2.2 0.8 8.2 6.3 5.9 21.6 18.3 46.7 21.8-45 6.3-78.4 10.7-78.4 10.7 0 0-35.7 9.2-53.1 11.1-17.4 1.9-69 7.5-69 7.5-5.4-4.8-11.2-6.7-11.2-6.7 10.5-4.4 55.1-5.9 64.1-6.6 8.9-0.7 9.6-6.8 9.6-6.8 0 0 5.9-3.7 5.1-6.1-0.8-2.5-6.2-6.6-6.2-6.6-0.9-4.7-7.5-23.1-33.5-15.9-26 7.2-47.7 21.1-68.6 26.4-12.8 3.3-37 10.2-54 15-1.9-1.3-3.7-2.8-5.3-4.4-4-4.2-4.6-3.8-8.5-3-3.9 0.7-4.5 0.8-6.6 1.4-2.1 0.5-3 1.2 0.4 4.4 1.5 1.3 3.9 3.3 7.1 5.3-3.5 1-5.6 1.6-5.6 1.6 0 0-58.6-13.2-83.6-56.2 0 0 8.5-1.7 6.9-8-1.8-7.2-8.5-6-8.5-6l-3.6 0.7c0 0-0.6-1.3-0.6-3.2 6.5 0.9 17.8 3.8 13.8 13.9-1.4 3.7 5.1 43.1 130.6 17.4 125.5-25.7 142.4-34.1 159.6-21.7 13.3 9.6 21.8 4.9 85.4-6.3z"/></g><path class="b2" d="m159.2 378.1l220.8-60.3c0 0 13.5-4.1 21-1 7.5 3.2-3.1 4.8-22.7 9.9-19.6 5-203.3 50.6-218.1 54.4-14.8 3.7-18.3 1.7-1-3z"/><path class="ba" d="m386.4 341.6c0 0-21.1 7.3-29.3-3.3 0 0 23.5-6.8 41-11.2-1 9.2-11.7 14.5-11.7 14.5z"/><path class="f" d="m398 327.1c-13.7 3.4-27.3 7.2-40.9 11.1q0 0.1 0 0.1c6.1 7.6 17.7 6.3 26.2 4.2 7.1-1.7 13.9-7.9 14.8-15.4 0 0-0.1 0-0.1 0-0.6 4.6-3.3 8.2-6.7 11.2-1.4 1.2-3.3 2.8-5 3.3-6.2 2.1-13.1 3.1-19.4 2-2.7-0.4-5.2-1.4-7.4-3-0.7-0.5-3.1-2.1-1.7-2.5q4.2-1.2 8.4-2.4c10.6-3 21.2-5.9 31.9-8.6 0 0 0 0-0.1 0z"/><g style="opacity:.4;mix-blend-mode:multiply"><path class="bb" d="m423.3 319.6l-0.8 7.1c-8.7 10.1-11 19.7-11 19.7 0 0-7.4 3.7-9.3 2.8-1.9-0.9-15.8-7.6-15.8-7.6 0 0-21.1 7.3-29.3-3.3 0 0 26.3-7.6 43.9-11.9 12.6-3.1 19.8-4.9 22.3-6.8z"/></g><path class="b2" d="m439.6 306.4c5.9-0.6 13.8-0.5 6.9 2.3-7 2.7-14.6 3.5-22.3 4.2-7.8 0.8-17-0.1-19.7-0.8-5.9-1.4 29.3-5.1 35.1-5.7z"/><path class="b2" d="m446.1 300.1c9.2-2.9 45.7-12.6 65.9-23 28.6-14.6 41.6-14.1 51.1-11.6 3.9 1 6.6 6.4-15.1 10.6-21.6 4.1-65 19.5-81.1 23.4-16 3.9-39.6 6.5-20.8 0.6z"/><g style="opacity:.9;mix-blend-mode:multiply"><path class="bc" d="m551.8 296.4c15.9-1.4 23.2-3.2 25.2-3.8q-0.1 0.1-0.1 0.1c0 0-0.6 6.1-9.6 6.8-9 0.7-53.6 2.2-64 6.6q-0.9-0.4-1.9-0.7 0-0.1-0.1-0.1c9.4-5 33.5-7.4 50.5-8.9z"/></g><g style="mix-blend-mode:multiply"><path class="bd" d="m516.6 369.4c-27.7 21.4-84.5 21.5-99.2 1.9-6.8-9.3-7.1-16.3-5.9-24.9 0 0 3.8-15.9 20.1-28.2-9.7 9.4-13.5 17.1-9.4 29.9 4.8 14.4 17.3 20.5 32.5 17.3 1 0.9 2.2 7 8.4 10.7 18.2 11.1 53.5-6.7 53.5-6.7z"/></g><path class="b1" d="m440.2 326.9c-5 6-17.2 6.4-12.5-0.7 11.9-18 45.6-21.1 45.6-21.1-20.6 6-28 15.8-33.1 21.8z"/><g style="opacity:.4;mix-blend-mode:multiply"><path class="be" d="m669.3 262.7q-0.6-0.6-1.1-1c-6.4-6-4.6-7.1-0.8-8.2 3.9-1.1 4.9-1.2 12.2-2.6 7.2-1.3 6.3-1.6 13.8 6.2 3.4 3.6 7.4 6.8 11.5 9.4-4.3-1.3-6.2-2-11.7-6-7.4-5.5-9.5-7.1-20-4-4.7 1.3-5 3.8-3.9 6.2z"/></g><g style="opacity:.4;mix-blend-mode:multiply"><path class="bf" d="m512.9 241.8c1.7 4.8 3.1 8 3.1 8 0.5 1.7-0.9 3.6-2.9 4.3l-1.6 0.5c-2 0.6-3.7-0.3-4.4-1.9 0 0-1.4-3.5-2.9-7.9 0.8 2.2 3.2 7.5 6.4 6.6 4-1.1 3.4-6.3 2.3-9.6z"/></g><g style="opacity:.4;mix-blend-mode:multiply"><path class="bg" d="m528.6 238.3c1.7 4.9 3.1 8.1 3.1 8.1 0.4 1.7-0.9 3.6-2.9 4.2l-1.6 0.5c-2 0.7-3.7-0.2-4.4-1.9 0 0-1.4-3.5-2.9-7.9 0.8 2.2 3.2 7.5 6.3 6.6 4-1 3.5-6.2 2.4-9.6z"/></g><g style="opacity:.4;mix-blend-mode:multiply"><path class="bh" d="m763.5 201.5c2 5.5 4.1 10.8 4.1 10.8 0.4 3.7-3.1 4.8-7.5 6.3l-3.7 1.1c-4.4 1.5-7.7 0.9-8.6-0.9 0 0-2.9-4.4-4.7-9.4 1 2.5 5.4 8.8 12.4 6.7 8.8-2.7 9.3-10.8 8-14.6z"/></g><path class="bi" d="m892.6 200.8c0 0 68.3-19.7 57.4-46.1 0 0 15.9 12.7-0.3 37.2-16.2 24.6-21.4 27.6-21.4 27.6 0 0-16 7.1-35.7-18.7z"/><path class="af" d="m907 137.1c15.6-4.8 46.1 20 42.6 25-3.5 5-35 5.6-53.1 3.8-15.9-1.7-5.6-23.9 10.5-28.8z"/><path class="af" d="m919.5 140.2c4.9 2.3 31.1 18.5 28.1 21-3 2.6-35.6 0.1-45.3-4.5-12.3-5.9 5.4-22.1 17.2-16.5z"/><path class="af" d="m617.2 213.7c24.4-5.9 213.7-50.8 246.5-52.7 30.1-1.8 3.1 11-115.8 41.4-122.2 31.3-189.2 25.7-130.7 11.3z"/></svg>