<svg version="1.2" xmlns="http://www.w3.org/2000/svg" viewBox="0 0 380 400" width="380" height="400"><style>.a{display:none;fill:#fff}.b{fill:#001821}.c{fill:#2f6e24}</style><path class="a" d="m850 850h-900v-900h900z"/><path class="b" d="m380 199c0 104.9-85.1 190-190 190-104.9 0-190-85.1-190-190 0-104.9 85.1-190 190-190 104.9 0 190 85.1 190 190z"/><path class="c" d="m190.2 664.1q0 0 0 0 0 0 0 0 0 0 0 0z"/><path class="c" d="m170.1 572q0 0 0 0z"/><path class="c" d="m199.7 579.5q-0.2 0.9-0.5 1.9c-0.1-0.4-0.2-0.5-0.1-0.6 0.3-0.7 0.5-1.1 0.6-1.3z"/><path class="c" d="m107.8 639.6q0 0 0 0 0 0 0 0 0 0 0 0z"/><path class="c" d="m184.4 666.5q0 0 0 0 0 0 0 0z"/><path class="c" d="m53.1 581c0 0.2-0.3 0.3-0.4 0.4q0 0 0 0c-0.1-0.3 0-0.4 0.1-0.5 0.1-0.1 0.4-0.1 0.3 0.1z"/><path class="c" d="m51 578.9q0 0.2-0.1 0.3c0.2 0.2 0.3 0.5 0.4 0.9q0.1 0.1 0.1 0.1-0.1 0-0.1 0-0.1 0-0.2-0.1-1.4-0.7-0.1-1.2z"/><path class="c" d="m54 581v0.1c-0.1 0.2-0.2 0.4-0.3 0.4 0-0.1 0-0.2 0-0.4 0 0 0.1-0.4 0.3-0.1z"/><path class="c" d="m58.3 582.5q0 0 0 0c-0.3 0.4-1 0.5-1.2 0.4-0.2-0.1-0.2-0.1-0.2-0.2 0-0.3 0.4-0.3 0.5-0.4 0.3 0 0.7 0 0.9 0.2z"/><path class="c" d="m45.5 524.3q-0.1 0-0.2 0.1 0 0 0 0 0.1-0.1 0.2-0.1z"/><path class="c" d="m209.2 674.5q0 0 0 0 0 0 0 0z"/><path class="c" d="m55.5 581.7c0.4 0.2 0.6 0.3 0.6 0.5q0 0 0 0 0 0 0 0 0 0 0 0.1 0 0 0 0 0 0 0 0 0 0 0 0 0 0 0 0 0 0 0 0c-0.1 0-0.2 0.1-0.3 0-0.1 0-0.3-0.2-0.3-0.6z"/><path class="c" d="m49.5 575.4q-0.1-0.1-0.1-0.1 0.4 0.6 0.3 1.2c-0.1 0.2-0.1 0.2-0.2 0.4q0 0-0.1 0c-1-0.4-1-1.4-0.9-2.1 0.9 0.4 0.9 0.5 1 0.6z"/><path class="c" d="m144.9 754.1q0 0 0.1 0 0 0 0 0-0.1 0-0.1 0z"/><path class="c" d="m144.8 754.1q0 0 0 0 0 0 0 0 0.1 0 0.1 0-0.1 0-0.1 0z"/><path class="c" d="m144.8 754.1q0 0 0 0 0 0 0 0z"/><path class="c" d="m144.7 754.1z"/><path class="c" d="m207.7 653.3q0 0 0 0 0 0 0 0z"/><path class="c" d="m208.9 641.1q0 0 0 0 0 0 0 0 0 0 0 0z"/><path class="c" d="m196.8 655.8q0 0 0 0 0 0 0 0 0 0 0 0z"/><path class="c" d="m207.7 653.3q0 0 0 0 0 0 0 0 0 0 0 0z"/><path class="c" d="m265.9 606.3q0 0 0 0 0 0-0.1 0 0.1 0 0.1 0z"/><path class="c" d="m230.6 669.5q0 0.1 0.1 0.2-0.1 0-0.1 0h-0.1q0 0 0 0 0-0.1 0.1-0.2z"/><path class="c" d="m105 601.4q0-0.1 0.1-0.1-0.1 0-0.1 0.1 0 0 0 0z"/><path class="c" d="m346.4 670.4q0.1 0 0.1 0.1c0 0 0-0.1-0.1-0.1z"/><path class="c" d="m333.8 494.9q0 0 0.1 0-0.2-0.1-0.3-0.3z"/><path class="c" d="m342.1 546.6q0 0 0 0 0 0 0 0 0 0 0 0z"/><path class="c" d="m342.1 546.6q0 0 0 0 0 0 0 0z"/><path class="c" d="m195.8 669.8q0 0.1 0 0.2 0-0.1 0-0.1 0 0 0 0 0 0 0-0.1z"/><path class="c" d="m193.5 669.4q0 0 0 0 0 0 0 0 0 0 0 0z"/><path class="c" d="m195.8 669.8q0 0 0 0 0 0 0 0 0 0 0 0 0 0 0 0z"/><path class="c" d="m195.8 670q0 0 0-0.1 0 0.1 0 0.1z"/><path class="c" d="m229.4 727.2q0 0.1 0 0.2c0.3 0 0.6 0.1 0.9 0.2q-0.1 0-0.1 0-0.2 0.1-0.5 0.1c-0.6 0.2-0.6 0-0.4-0.2l0.1-0.2q-0.1 0-0.1 0 0 0 0 0 0 0 0 0 0 0 0 0 0 0 0 0 0 0 0 0 0 0 0.1 0 0 0 0 0 0 0 0-0.1 0 0 0 0 0 0 0 0 0 0 0 0 0 0 0 0 0 0 0 0 0 0 0 0 0 0 0 0 0 0 0 0 0 0 0 0 0 0 0 0 0 0 0 0 0 0 0 0 0 0 0 0 0 0 0 0z"/><path class="c" d="m181.5 687.4q-0.1 0.1-0.2 0.2 0.1-0.1 0.2-0.2 0 0 0 0z"/><path class="c" d="m187.2 668.1q0-0.1-0.1-0.1 0.1 0 0.1 0.1 0 0 0 0z"/><path class="c" d="m38.4 504.7q0 0 0 0 0 0 0 0 0 0 0 0z"/><path class="c" d="m59.3 483.3q0 0 0 0 0 0 0 0 0.1-0.1 0.2-0.2-0.1 0.1-0.2 0.2z"/><path class="c" d="m41.3 503.3q-0.4 0.3-0.7 0.7 0-0.1 0-0.1 0.4-0.5 0.7-0.6 0 0 0 0z"/><path class="c" d="m38.4 504.7q0 0 0 0 0 0 0 0z"/><path fill-rule="evenodd" class="c" d="m41.3 503.3c0.7-0.7 0.7-0.7 1.4-1.4q-0.1 0-0.1 0.1 0.1-0.1 0.2-0.3-0.1 0.2-0.2 0.3c0.5-0.4 0.6-0.5 0.8-0.5 0.1 0.1-0.2 0.8-1.1 2.7-0.9 1.8-1.1 2.3-1.1 2.5q0.1 0 0.1 0 0 0 0.1 0c-0.2 0.1-0.4 0.3-0.6 0-0.1-0.3 0.2-1.3 0.5-2.2 0.3-1.1 0.4-1.4 0-1.2zm0.9-0.9v-0.1l-0.1 0.2zm0.1-0.1l0.2-0.2q0 0 0 0zm0 0q0 0 0 0zm0 0l-0.1 0.2 0.1-0.2q0 0 0 0z"/><path class="c" d="m32.5 512.8l-0.2 0.2q3-4.4 6.1-8.6c-0.1 0.3-0.2 0.4-0.2 0.4q0.1 0 0.1 0 0.1-0.1 0.1-0.1h-0.1q0.1 0 0.1 0c-0.6 0.6-3.3 4.4-5.9 8.1z"/><path class="c" d="m157.5 805.8c0.1 0.1 0.3 0.1 0.5 0.1 1.8 0.5 1.8 0.5 2 0.6-2.6-0.3-5.1-1.1-7.7-1.4 7.2 2 14.5 2.2 21.9 2.9q0.3 0 0.7 0.1c-15.6-1.9-15.6-1.9-17.4-2.3z"/><path class="c" d="m174.2 808q0.9 0.1 1.8 0.2c-1-0.1-2-0.1-3-0.2q0.6 0 1.2 0z"/><path class="c" d="m153.9 805c-4.1-0.5-13.4-2.9-14.2-3.2q-0.1-0.1-0.2-0.1 0 0 0 0-0.1-0.1-0.3-0.1c0.2 0 0.4 0.1 0.6 0.1q0 0 0 0l0.3 0.1q0 0 0.1 0 0.1 0.1 0.1 0.1c0.4 0 0.4 0 0.7 0-0.1-0.1-0.1-0.1-15-5.6-4.2-1.5-6.8-2.6-9.8-3.8 2.9 0.9 5.9 1.6 8.7 2.7 4.9 1.7 9.2 4.8 14.5 5.3q-0.1 0-0.2 0c3.2 1.2 7.9 2.8 15.3 4.6-0.2 0-0.4-0.1-0.6-0.1z"/><path class="c" d="m38.4 504.7q0 0 0 0 0 0 0 0z"/><path class="c" d="m176 808.2q1.1 0.1 2.2 0.3-1.1-0.2-2.2-0.3z"/><path class="c" d="m76.4 466.7q0.7-0.5 1.5-1.1-0.1 0-0.1 0.1z"/><path class="c" d="m34.6 722.6c0 0.1 0.1 0.3 0.1 0.4q0-0.1-0.1-0.2 0-0.1 0-0.2 0 0 0 0z"/><path fill-rule="evenodd" class="c" d="m305.6 102.6c2 1.1 3.8 2.3 5.8 3.2 2.2 0.9 1.9 0 1.7-0.5q0.2 0.3 0.5 0.6c0-0.3 0.1-0.6 0.6-0.8v-0.1c-0.2-1.2-0.2-1.2 0.7-2.3-0.2 0.8 0.1 1.7-0.1 2.5-0.1 0-0.2 0-0.3 0.1q-0.1 0-0.1 0c0.3 1.1 0.3 1.2 0.2 1.6-0.1 0.1-0.3 0-0.4 0q0 0 0-0.1c0.6 0.8 1.6 1 2.3 1.6-0.1 0.5-0.4 2.8-3.3 4 3.4 2.8 5.9 7.6 9.3 14.3-0.2-0.5-0.2-0.5-0.3-0.7 0.1 0 3.2 4.5 3.2 6.9q-0.1 0-0.2 0.1c-1-0.6-0.8-1.9-1.6-2.7q-0.1 0.1-0.1 0.2c0.1 0.4 0.3 0.7 0.4 1.1-0.3-0.2-0.3-0.2-0.6-0.2 0.1 0.6 0.6 1.2 0.3 1.9-0.3-0.1-1.1-0.7-0.7-1.3-0.1-0.1-0.3-0.1-0.4-0.2-0.1 0.2-0.3 0.4 0.2 1.6-0.3-0.1-0.5-0.1-1-0.1q0 0 0 0 0 0 0 0 0 0 0 0-0.1 0-0.1 0 0 0 0 0 0 0 0 0 0 0 0 0 0 0 0 0c-0.6 0-0.7 0-1.1-0.2 0.1 0.4 0.3 1.4 0 2.7q0 0 0 0c-0.3 1.5-1.1 0.4-1.4 0-0.2-0.4-0.4-0.6-0.8-1.2q0.2 0.6 0.3 1.2 0 0.2 0 0.3 0.2 1.1 0.4 2.2c-0.7-0.5-1-0.6-1.2-0.3-0.1 0.1-0.1 0.6-0.1 0.9 0 0.8 0 1-0.1 1.4-1.1-1.3-2.1-2-3.4-2.4 1.1 0 1.5-0.7 2.1-2.1 0.6-1.3 0.8-1.7 1.4-2.2-1.4-1.8-6 0-6.7 1.7 0.5 0.1 0.6 0.2 1 0.5 2.2 1.8 3.6 5.5 3.8 6.8 0.4 1.9-0.4 1.6-0.6 1.4-1.8-1.3-2.6-3.3-3.9-4.9-0.1-0.1-0.1-0.1-0.2-0.1 0 0.1 0 0.1-0.1 0.6-0.2-0.6-0.3-0.8-1-1.4-0.7-0.8-0.9-1.3-0.6-2.4 0.5-1.4 3-8.5 7.6-5.8-2.7-5.2-1.5-5.2-0.8-5.2 1.3 0 1.4-6.4-3.7-11.2 0.6 0.4 1.4 0.7 1.9 1.3-0.3-0.5-0.3-0.5-1.4-1.9 0 0 0 0.1 0 0.2-0.1 0.2-0.2 0.3-1 0 0 0-5.4-2.8-2.3-4.4-0.4-0.2-0.8-0.5-1-0.8-1-1.5-1.5-3.2-2.5-4.7-0.2-0.2-0.4-0.5-0.6-0.7zm-195.4-63.1c0.1-0.2 0.1-0.2 3.7-1.6-0.8-0.3-1.6 0-2.4-0.2-0.2 0.3-0.3 0.6-0.4 0.3-0.1-0.1 0.2-0.7 0.5-0.7 0 0.1 0 0.1 0 0.3 0.3-0.2 0.4-0.6 0.7-0.8 0.1 0 0.2 0 0.3 0 0.6 0.2 1.3-0.1 1.5-0.2-0.3 0.3 0.2 0.6 0.2 0.9 0.7-0.7 1.2-0.9 1.8-0.6q0.1-0.1 0.3-0.2c-0.3 0-0.4-0.1-0.5-0.1 0.1 0 0.1-0.2 0.2-0.2 0.3-0.1 0.6-0.1 0.9-0.1q0-0.1 0-0.1c0.6-0.3 2.4-0.9 4.4-1 0.3 0 0.9 0 1.1 0.1 0 0 0.7 1.1-1.3 1.4-2.5 0.5-4 0.5-4.7 0.6 0.4 0.2 0.9 0.3 1.2 0.7 0.2 0.3 0.2 0.5 0 1-0.4 0-0.5 0-1.3 0.2-1.1 0.2-1.5 0.3-1.7 0.1 1.3-0.7 1.3-1.1 1.3-1.2-0.3-0.1-0.6 0-2.3 0.9-1.5 0.7-2 1-2.6 1.1 0 0-0.8-0.3-0.9-0.6zm-42.8 16.2c-1.1 0.7-4.6 3.7-6.4 5.3q6.2-5.5 12.8-10.3c7.9-5.8 16.2-11 24.9-15.5 0.5-0.3 1.1-0.6 1.5-0.8-0.2 0.1-0.4 0.3-0.6 0.4 0.2-0.1 0.4-0.2 0.6-0.3q-0.1 0-0.2 0.1c0.3-0.1 0.7-0.4 1.1-0.5-0.6 0.3-0.6 0.3-0.8 0.5 1.5-0.8 1.5-0.8 2.9-1.1q-0.2 0.1-0.3 0.1v0.1q0 0 0-0.1h0.1 0.1-0.1q0.1 0 0.2-0.1c0.5-0.2 1.7-0.5 2.6-0.6 0.1-0.1 0.4 0 0.6 0.1-0.8 2.7-4 1.1-5.2 2.9 4-1.4 4-1.4 5.3-1.1-0.3 0.1-0.6 0.2-0.8 0.3-3.2 1.4-6.7 2.2-9.8 3.9 0.8-0.3 0.8-0.3 1-0.3-0.3 0.3-0.6 0.3-0.9 0.5q0.1 0 0.2 0c-0.8 0.8-2 0.6-2.9 1.1q0 0.1 0 0.3 0.1 0 0.2-0.1c-1.3 0.7-2.2 2-3.7 2.5-1.2 0.2-1.2 0.2-2.7 1.1 0.6-0.3 0.6-0.3 1-0.3-0.7 0.2-1.1 1-1.9 0.7q0-0.1-0.1-0.2c-0.3 0.7-0.9 0.6-1.1 0.5-2.2 2-2.2 2-2.3 2.1 0.2-0.1 0.4-0.2 0.5-0.3-0.4 0.4-1 0.6-1.5 1 0.2-0.1 0.4-0.2 0.5-0.3-0.1 0.2-1.8 1.3-2.5 1.4 0.4-0.4 0.7-0.6 1.1-1-0.9 0.5-1.7 1-2.6 1.5 0.5-0.1 0.9-0.3 1.3-0.4-1 2.1-3.4 2-5.1 3-1.7 1-1.8 1-2.4 1.1q0.1-0.1 0.2-0.2c-0.1 0.1-5.2 3.6-6.3 4.3 0.5-0.4 1-0.8 1.5-1.3zm179.6 136.9c-0.1-0.2-0.3-0.5-0.4-0.7-3.3 2.2-3.3 2.2-4.2 0.9-1.3-1.7-1.7-4.3-1.8-5.5-0.8-5.4-5.2-8.6-7.8-12.9-0.3-0.5-0.6-1.2-0.9-1.7-0.3-0.5-0.8-1.1-1.2-1.6-0.4 0.1-1 0.1-1.5 0.1-0.3 2.3-0.3 2.3-1.2 3.3-0.2-0.4-0.5-0.9-0.7-1.3-0.3 0.4-0.6 0.8-1 1-0.4-0.1-1-0.2-1.4-0.2-0.2 0.2-0.4 0.5-0.5 0.7-0.2-0.2-0.4-0.4-0.5-0.5-0.2 0.1-0.4 0.2-0.6 0.3-0.3-0.3-0.5-0.8-0.6-1.2-3.4 7.9-12.6 11-16.1 19-3.4 7.6-1.1 16.4-4.9 24-0.6 1.1-1.3 2.8-2.4 3.5-4.4 2.6-24.3-33.4-18.1-45.3-0.2-0.1-0.4-0.3-0.6-0.5-0.1-0.4-0.2-0.9-0.4-1.3-0.2-0.1-0.4-0.2-0.6-0.2 0.1 0.2 0.3 0.6 0.4 0.8 0.5 2.2-2.4 4.5-4.1 4.2-3.2-0.4-2.7-4.2-4.9-5.5 2.2-0.3 2.5-0.9 2.8-1.6-2 0.1-3.6-0.2-6.2-2.2-4-3.3-4.5-5.4-4.7-6.1-7.2-3.8-15.4 2.5-22.5-2.2-0.7-0.4-1.6-1.1-2.3-1.5-3.4-2-7.3 0.2-10.7-1.4-4.2-2.1-3.8-8.3-8.6-9.9-0.3-0.1-0.7-0.1-1-0.1 0 0-1 1.2-2.7 2.4q0 0 0 0 0 0 0 0c1.7 0.4 1.9 0.8 2.6 4.1l5.1 10.9c2.8 3.1 13.1 2.9 13.5-5.5 2 2.1 0.4 5.1 2 7.3 1.6 2.1 4.9 1.6 6.4 4 0.4 0.7 0.5 2 0.3 2.9-0.5 2.7-4.5 10.3-15.3 18.8-0.2 0.2-21.2 16.7-25.9 12.3l-17.4-45.7c-0.2-0.6-0.5-1.2-0.7-1.8-1.1-3.3-0.8-5.3-0.5-7.5-2.2 2.8-2.1 3.8-2 5.8-2.1-2.9-2.8-4.5-3.1-7.3-2.1 3.7-2.3 6.5 2 14.1 3.2 5.8 3.2 5.8 8.1 23.3 2.1 7.5 4.3 11.5 7.9 14.2 1.6 1.3 4.8 3.8 5.5 5.4 0.9 2.2-0.1 2.9-1.8 4.3 8.9 3.3 8.9 3.3 11.1 2.7 11.5-3.5 11.5-3.5 11.7-2.9 0 0.5 2 12.6-16.4 35.7-18.2 22.8-4.7 35.5-4.5 35.6-0.1 0.3-0.1 0.7-0.1 0.9 0.3 4.5 3.2 8.2 3.4 12.7 0.3 5.6-6 6.6-7.5 11-2 5.6 4.9 8.9 3.6 14.4-0.4 2-2.1 3.3-3 3.9 2.6 2.6 5.2 5 1.8 13.9-3.2 8.6-10.8 6.4-10.8 6.4-1.5-0.7-19-19.3-19.7-20.1-5.5-5.8-16.9-23.1-17-23.2-3.1-5.9-2.3-12.9-4.9-19l-0.3-0.5c-0.1-0.1-6.9-11.5-5.5-14.3-4.4-2.2-13.3-13.1-9.9-19.2-3.8-4.1 0.2-10.8-4.7-14.6-0.2 0.2-0.5 0.4-0.7 0.6-0.2-0.1-0.6-0.2-0.8-0.3-0.3 0.4-0.9 0.7-1.4 0.8-6.9-6.9-6.9-6.9-8.8-5.4-9.2 6.8-10.3 4.2-12.2-0.2 0-0.1-4.4-12.7-5.6-30.2-0.4-7.1 2.4-13.9 2.2-21.1 0 0.3-0.1 0.7-0.1 0.9 1.1-15 17.2-41.4 17.4-41.7 2.5-3.6 3.6-5 4.3-5.3 1-0.4 1.6 0.5 2.5 0.6 0.8 0.2 1.1 0.1 4.1-2 2.8-1.9 3.9-2.5 5.5-2.9 0.7-0.2 0.7-0.2 7.9-0.7 1.6 0 2.7-0.1 1.2 3.3-1.1 2.3-2.9 4.3-3.2 7 0.7 4.9 12.4 14.2 14.6 7.1 1-3.2 2.2-3.9 3.1-3.9 0.3 0 0.8-0.1 1.2 0 3.5 0.6 5.7 3.9 9.1 4.8 3.3 0.9 6.2-1.8 9.5-1.1 0.3 0.5 0.7 1.1 1 1.6 4.9-0.6 7-5 8.7-8.5 3.3-7 2.2-8.4 1.7-8.7 0 0-8 0.2-9.7 0.3-3.4 0.2-5.3-0.4-6-0.6 0.1-0.2 0.3-0.5 0.4-0.7-0.5-0.2-1.2-0.2-1.7-0.3 0.2-1.3 0.1-2.7 0.7-3.9-2.1-2.3 0.9-4.3 0.6-6.6-1.5-1-2.8-1.4-4.6-0.2 0 0.5 0.1 1.3 0.3 1.8-0.4 0-1.1 0-1.6 0.2 0 0.2 0 0.5-0.1 0.8-0.2-0.6-0.6-1.3-0.9-1.7-0.6 2.4 1.3 4.6 0.9 7-0.1-0.2-0.3-0.5-0.5-0.7 0 0.5-0.2 1.1-0.5 1.4-0.4-0.3-1-0.5-1.5-0.4 0.2 0.2 0.4 0.5 0.6 0.7-0.4 0.4-0.9 0.8-1.3 1.1-0.1 0.6-0.1 1.3-0.2 1.9-0.2 0.2-0.5 0.3-0.7 0.5-3.2-2.1-1.3-4.6-0.6-5.4-0.5 0-1.6-0.1-1.9-1.6-0.4-1.8 0.2-4.6 0.2-4.6 0.7-3-1.4-5.3-1.8-8-0.1-0.7-0.6-1.5-0.7-2.2 0-0.7 0.2-1.5 0.6-2.1-0.1-0.2-0.3-0.5-0.4-0.7-0.2 0-0.5 0.1-0.7 0.2-0.2-0.1-0.5-0.2-0.8-0.4-2.3 1.7-3.2 2.4-2.8 5.7 0.3 3.5 3.8 5.4 4.3 8.8-1.1 0.4-2.1-0.3-3.2-0.3v0.1c0 0-0.4 4.3-2.3 6.7-1.7-0.2-2.8 1.4-4.4 1.3-1.3-2.3 3-2.3 4.1-3.8 3.5-4.9-1.6-13.6-1.7-13.7-1.7-2.8-4.6 0-7-0.1 0 0 0 0-0.5 0.1-0.1 0-7.6 6-11.5 12.8-2.7 4.6-5.4 7.2-8.4 8.1-1.1-0.8-1-2.2-1.6-3.2-0.3 0-0.6 0.1-0.8 0.2 1.5-3.5 1.5-3.5 2.3-5q0 0 0 0 0 0 0 0 0 0 0 0 0 0 0 0-0.1 0.1-0.2 0.2c6.1-12.9 6.1-12.9 11.2-12.6 2.7 0.1 9.4-8.2 6.8-12.7 1.6-1 1.7-1 4-1.6 1.6-3.9 17.9-12.9 18-13 0.2 0.2 0.4 0.4 0.6 0.6 1.8-2 2.8-4.5 4.6-6.4 0.3-0.3 0.7-0.7 1-0.9l0.1-0.1c1.4-1.1 2-1.2 2.8-1.3-1.4 1.4-2.3 3.3-4.1 4.4 0.3 0 0.6 0 0.9-0.1-0.9 1.4-0.9 1.4-2 1.5 0.2-0.3 0.3-0.6 0.4-0.9-0.9 1.5-0.8 1.6-0.4 2.5 0.1 0 1.5-0.2 3.5-0.4-0.2 0.2-0.5 0.4-0.7 0.5 0.1 0.2 0.3 0.5 0.4 0.7 0.1 0 7.5-0.6 9.1-1.7 2.3-3.5 4.3-5.7 5.9-6.8 0.4 0.3 0.9 0.8 1.2 1.2 2.6-0.4 2-3.2 3.4-4.5 1-0.8 1-0.8 8.3-1.3 0-0.3-0.1-0.7-0.2-1-0.3-0.1-0.6-0.3-0.9-0.4 0-0.2 0-0.4-0.1-0.6-6.6 1.2-6.6 1.2-7.8 0.8 2-3 2-3 9.6-8.9-3.1-2.2-3.9 0.4-4.2 1.3-10.3 4-9.8 7.1-9.6 8.6-11 9.6-11 9.6-13.7 9.8 0.1-0.3 0.3-0.7 0.4-1-2.3 2.3-2.3 2.3-2.9 2.8-0.2-0.1-0.5-0.2-0.8-0.3 1.4-0.5 1.4-0.5 1.7-2.2 3 0.6 5-5.5 5.8-8.2-2.3 1.9-3.2 2.4-5.1 3.1-0.1-0.1-0.4-0.3-0.6-0.5 0.1-0.8 0.7-1.5 0.7-2.4 1.9-1.7 3-4.3 5.5-5.4 1.7-0.8 1.9-0.9 3.3-1.6 4.1-2 7.7-4.7 11.6-7h0.1c1.8-1.1 2.2-1.4 2.6-1.7q0 0 0 0 0.1-0.2 0.3-0.4c-0.5 0.1-1.3 0.3-1.8 0.3 1.4-0.9 3.1-1.3 4.6-2.1-0.2 0.2-0.4 0.4-0.5 0.6 1.9-0.2 3.3-1.5 5-2.1 0 0.3 0 0.6 0 0.8 1.9-0.5 1.9-0.5 2.2-0.8 0.3 0.1 0.7 0.1 0.9 0.2 0.7-1 0.9-1.2 2.6-1.8 0.2 0.2 0.5 0.3 0.7 0.4-0.4 0.3-1 0.7-1.5 1.1 1.6-0.8 3.3-1.1 4-1.2-0.2 0.2-0.5 0.4-0.7 0.5 0.3-0.1 0.7-0.2 0.9-0.3 0.3 0.2 0.6 0.3 0.8 0.5-0.5 0.2-1.2 0.4-1.8 0.6 2.6 0.2 2.6 0.2 2.9 0.2 0.1 0.2 0.1 0.6 0.2 0.8 4.3 0.9 5.9 1.3 6.4 2.4 0.6 1.4-2 3.2-3.2 3.5-2.4 0.4-4.1-1.4-6.3-1.7 1.4 5.5 1.4 5.5 2.9 5.2-0.1-0.5-0.3-1.2-0.6-1.6 3.2-0.1 5.5-2.8 8.7-2.7 0.2 0.2 0.4 0.5 0.5 0.7 1.3-2.7 1.3-2.7 1.5-3.7-0.1-0.2-0.3-0.4-0.4-0.6q3.1-1.7 3.2 1.3c-1.8 0-2.2 0.1-2.4 1.5 4.3 0.4 7.3-3.7 11.6-3.4-0.4 0.3-1 0.8-1.4 1.1 6.4-0.3 7.4-0.8 8.6-1.4-0.1-0.1-0.1-0.1-2.5-1.9 10.6 3.1 10.6 3.1 11.1 3q-2-2.1-1.7-3.8c0.4-1.9 2.8-2 3.2-3.8 0.5 0 1.2 0.2 1.6 0.3q0.1 0 0.1 0c0 0 0 0 0.1 0 0.2 0.1 0.5 0.2 0.8 0.3 1.1 2.4 0.6 5.1 1.8 7.5-0.6 1.7-0.7 1.9-3 2.9 5.4-0.4 4.8-2.5 4.5-3.7 2.3-1.1 3.5 1.2 5.4 1.7q0 0 0 0 0 0 0 0 0 0 0 0c-2.5-2.2-6-3.1-7.7-6.2 1.1-0.8 1.1-0.8 1.5-2.1 0.2 0.2 0.4 0.4 0.6 0.5 0.1 0.6 0.2 1.4 0.3 2 0.5 0.3 0.5 0.3 3.4 0.5-0.2-0.5-0.2-0.5-2.4-1.5 0.3 0 0.6 0.1 0.8 0.2 0.2-0.2 0.4-0.4 0.6-0.5-0.2-0.2-0.5-0.3-0.7-0.4 0.1 0 3.7 0.8 6 0.9-1.1-1.5-1.7-1.9-3.6-2.2q0 0 0 0c0 0 0 0 0.4-0.1 2.1-0.6 4.2 0 6.3-0.8-0.3-0.1-0.6-0.2-0.8-0.3-0.4-2.2 0.7-2.1 5.3-2.1 0.3-0.3 1-0.6 1.4-0.7 0 0 1.3 0.4 4.6 0.2-0.2-0.2-0.5-0.4-0.7-0.5 0.2 0 0.5 0 0.7 0 0.8-1.1 0.8-1.1 1.9-1.3 9.4-0.2 16.9 6.7 26.2 6.6 0.1-0.2 0.3-0.4 0.4-0.6-0.1-0.3-0.1-0.6-0.2-0.8 4.6 1.1 8.5 4.7 13.7 3.6-0.1-0.2-0.2-0.6-0.3-0.9 2.4-0.7 4.5 0.5 6.7 0.7 0 0 0.1 0-0.5-0.2-0.1-0.1-0.4-0.3-0.5-0.5 0.8 0 0.8 0 2.3 0.2-0.6-0.3-1.3-0.6-1.8-0.8-0.1-0.2-0.2-0.5-0.3-0.7 8.6-0.8 9.2-0.3 11.4 1.5 3.9 3.1 8.5 1 12.7 1.5 3.7 0.5 7.4 0.5 11.1 1 0.5 0 1.1 0.3 1.5 0.6-0.3-0.1-0.5-0.2-0.8-0.3 3.1 1.2 3.6 1.2 5 1.5-3.3-1.4-3.3-1.4-3.7-2.2 7.3-0.4 25.1 4.5 28 7.7-0.2 0-0.6 0-0.8 0 0.3 0.1 2.2 1 3.7 2.2-4.2 2.2-6.6-2.2-10-2.9 1.7 1.2 1.7 1.2 2.3 1.6-0.1 0.2-0.3 0.5-0.4 0.7 3 1.5 6.1 2.6 8.9 4.6-1-0.4-1.2-0.5-2.6-0.6 0.2 0.3 0.4 0.7 0.6 1.1-0.2 0.2-0.4 0.4-0.5 0.6 0.9 0.8 1.1 1 2.1 2.8-0.1 0.2-0.2 0.4-0.3 0.6-3.7-0.8-4.6-0.5-5.4-0.3 0.3 1.9 5.4 4.8 5.4 4.8 0.1 0 5.9 3.5 8.8 6.9 0 0.3 0 0.7-0.1 1 0.8 0.9 0.8 0.9 2.8 2.9 0 0 0 0-0.3 0.1 0.4 1.8 1.8 3.1 2.6 4.7 0.2 0.2 0.4 1.1 0.5 1.9-0.2-0.2-0.4-0.5-0.6-0.7-0.1-0.2 0.1-0.7 0.1-0.9-5.8-6.3-13.6-10.2-19.9-15.8q0 0 0 0 0 0 0 0 0 0 0 0 0 0 0 0 0 0 0 0 0 0 0 0 0 0 0 0c0.2-0.3 0.4-0.6 0.5-0.8-2.4-6.7-7-8.8-8.3-8.8 1.4 1 1.7 1.2 3 2-0.3 0-0.6 0-0.8 0 0.2 0.6 0.5 1.4 0.7 1.9-3.9-2.7-4.3-2.8-6.1-3.2-0.2 0.2-0.4 0.4-0.5 0.5 0.2 1.4 0.2 1.4 5.3 5.6-1.8 2.5-3.8 0.7-4.2 0.3 0.2-0.1 0.5-0.3 0.6-0.5q0 0 0 0c0 0 0 0-0.1 0-0.4-0.1-1-0.1-1.4-0.1q-0.1 0-0.1 0 0 0 0 0 0 0 0 0-0.1 0-0.1 0 0 0 0 0 0 0-0.1 0 0 0 0 0c0 0 0 0-0.5 0-0.5 0-1.3-0.1-1.8-0.2q0.1 0 0.1 0.1c-2.4 0.6-5-2-7.2 0.4-1.8 2-2 11.5 6.5 11.6-2.5-2.2-2.5-2.2-2.8-2.9 0.1 0 3.3 2 3.9 3.7 0.4-0.2 0.9-0.5 1.3-0.6-0.3-0.3-0.7-0.9-0.9-1.3 1.9 0 4.7 0.5 6.9 3.1-0.2-0.1-0.5-0.1-0.7-0.1 12.9 7.6 16.2 22.2 14.2 26.6-0.3 0-0.7 0.2-0.9 0.3-1-0.5-1-0.5-2-1.7-0.2 0.2-0.4 0.4-0.5 0.6-0.1-0.2-0.3-0.4-0.4-0.6 0.2 0.5 0.4 1.3 0.3 1.9-0.2-0.1-0.5-0.1-0.7-0.2 3.3 2.9 0.2 7.2 2.4 10.3 1.9 2.7 5.6 3.3 7.2 6.5 0.6 1.2 0.6 1.2 1.6 5.5-0.5 0.1-1 0.2-1.4 0.4 0 0.2-0.1 0.5-0.1 0.7-4.2 1.6-5.9-6.5-5.8-7.3 0.2 0.2 0.4 0.4 0.6 0.5-0.2-1.2-0.3-1.6-2.3-2.6l0.1-0.1h-0.2q0 0 0.1 0.1c-1.4-0.5-2.9-0.6-4.3-1.2-0.1-0.5-0.1-1.2 0.1-1.6-1.7-0.8-2.4-3.1-4.7-3.1-2.1 0-1 3.2-3.2 3.1-0.2 0-0.5-0.1-0.7-0.2-0.2-1.7-0.4-1.8-1.3-2.1 0.1-0.2 0.4-0.5 0.5-0.8 0-0.7-1-3.4-2.9-2.6-0.1 0-5.7 3.8-3 6.7 3.3 3.7 8.1 1.2 11.8 3.1-0.3 2-2.5 3.1-2.2 5.4 0.1 0.8 0.2 1.5 3.5 5.2 3 3.1 5.3 5.3 7.5 7-0.1 0.1-0.4 0.2-0.5 0.4-1.2-0.6-1.9-1.8-3.2-2.1 0.1 0.1 3 1.3 3.4 5.1-0.1 0.2-0.3 0.4-0.5 0.5 3.3 0.7 3.3 0.7 3.9 3.1-0.1 0.2-0.3 0.4-0.5 0.6 0.9 1.7 0.8 1.9 0.7 3.1-0.2 0-0.5 0-0.7 0.1-0.4 1-0.9 6.1 0.1 8.2q0 0 0 0 0 0 0 0c0 0 0 0 0.2-0.2-0.4 2.8-0.5 3.3-2.7 5.4-2.3 2.3-5.7 3.1-8.1 5.2-0.3-0.8-0.4-1.1-1.4-1.8 0.8 1.7 1 1.9-0.9 4.4-0.1 0-4.6-3.5-5.5 4.4 1.6 1.4 2.3 2.6 1.5 5.7-0.7 2.3-3 2.8-4.3 2.9 0.3-0.5 0.6-1.1 0.9-1.6 0.3-6.2 0.3-6.2 1.3-6.9 0-0.9 0-3-1.4-3.6-0.7-0.3-9 0.4-8.4 5 1 8.7 10.4 12.9 11.6 21.5 0.4 3.1-0.8 13.6-5.4 10.2-0.1 2.3-2.2 8.2-5.3 6.6 0.3-0.5 0.7-1.1 1-1.6-1.7-6.7-9.2-8.9-11.7-15-5.3 3.6-3.6 12.2-3.4 13.2 0.8 4 4.4 6.1 6.5 9.2 3.6 5.4 2.5 12 5 17.7 0.1 0.3 0.5 0.5 0.7 0.6-5.3 1-7.2-3.3-9.3-12.8-1.8-8-2.7-10.6-5.6-8.3-0.7-2.7-1-3.8-0.4-8.5 1.6-12.6-4-22-5.7-24.5 0 2.9-0.6 3.1-1.5 3.6zm-222.1-72q0 0 0 0 0 0 0 0 0 0 0 0 0 0 0 0zm70.2-67.5q0 0 0 0 0 0 0 0 0 0 0 0zm40-5.7c-0.3-0.2-0.8-0.2-1.2-0.4 0-0.7 4.7-3.7 4.8-3.7 1-0.5 1.1-0.7 0.9-1 1.5-0.6 3.1-0.8 4.6-1.3 0.5-0.2 0.8-0.6 1.2-0.7 0.7-0.2 1.1-0.2 1.9-0.3q2.2 0 4.5 0.3c-0.3 0.1-0.6 0.3-0.9 0.4-2.2 0.6-4.6 0.3-6.6 1.6-1.9 1.1-2.7 1.5-3.4 1.2-0.3 1.1-1.5 2.1-2.7 2.4 0.4 1 1.1 1.7 1.6 2.6-1.8 1.1-3.2 0.8-4.4-1.1-0.1 0-0.2 0.1-0.2 0.2q0.1 0.1 0.1 0.3c0 0.1-0.1 0.2-0.2 0.3-0.5-0.2-0.6-0.3-0.6-0.4 0.1-0.2 0.2-0.2 0.6-0.4zm169.9 85.1q0 0.1 0.1 0.1-0.1 0-0.1-0.1 0 0 0 0zm-249.7-52q0 0.1-0.1 0.1-0.1-0.1-0.1-0.1c0.2-0.5 1-1.4 1.6-1.8-0.7-0.1-0.7-0.1-0.9-0.2 0.1-0.5 0.3-0.8 1.4-2-1.4 1.4-1.6 1.4-1.7 1.4 0.2-0.5 0.6-1 0.8-1.2-0.3 0.3-0.5 0.4-0.8 0.7 0.7-0.8 0.7-0.8 1.8-1.6-0.1 0.1-0.2 0.2-0.3 0.3 1.2-1 1.2-1 1.6-1.4-0.6 0.4-2.2 1.3-2.2 1.3 0.2-0.1 3-2.5 3-2.5-0.5 0.3-0.6 0.3-0.7 0.3q0 0 0-0.1c-0.2 0.3-0.3 0.5-0.5 0.4 0 0 0.4-0.7 1.2-1.4-0.2 0.1-0.2 0.1-0.3 0.1q0 0 0 0 0-0.1 0-0.1c-0.4 0.4-0.8 0.8-1.2 1.2 0.1-0.1 0.5-0.7 1.2-1.3 0 0 0 0 1-0.9 0.8-0.6 1-0.8 1.3-0.8-0.4 0.6-1 1.1-1.7 1.7q0 0 0 0c0 0.2-0.2 0.3-0.3 0.5 0.4-0.1 1.9-0.5 4-2 0.1-0.2 0.4-0.5 0.6-0.6-0.6 0.6-0.6 0.6-3 2.4 1.4-0.6 1.8-0.8 2-0.5-0.1 0.8-2.8 3.2-4.5 3.9 0 0 0.1 0.1 0.2 0.1 0 0.1-1.2 5.2-1.9 5 0.2 0.4-0.6 1.4-1.2 2 0.1 0.1 0.1 0.1 0.4 0 0.5 0 1.4-0.1 0.4 1.1-0.8 0.9-2.1 1.3-2.5 2.5-0.2-0.7-0.8-1.4-3.7 0.1 0.2-0.2 0.3-0.3 0.6-0.5-0.3 0.2-0.9 0.5-1.3 0.5-0.7 0-0.5-0.8-0.5-0.8 2.6-2.9 2.6-2.9 4-3.9 1.2-0.7 1.5-1 2.3-1.9zm259.6 17.9q0.1 0 0.2 0.1c-0.1-0.3-0.1-0.6-0.1-0.7q0 0 0-0.1 0.1 0.1 0.1 0.1 0.4 0.8 0.3 1c0 0.2-0.3-0.2-0.5-0.4zm-243.3-40.9q0 0 0.1 0c-0.7 0.3-1.1 0.9-1.7 1.3-0.3 0.3-0.7 0.5-1 0.8-1.7 1-3.4 1.5-3.8 1.4 0 0-1.1-0.3 1.3-2-0.1 0-0.1 0-0.2 0 0-0.4 1.5-1 1.5-1q0 0 0-0.1c0 0 0 0 0-0.1 0.1-0.1 0.3-0.2 0.4-0.2q-0.1-0.1-0.1-0.1c0-0.1 0-0.2 0-0.3q0 0-0.1 0c0.7-0.5 0.7-0.5 0.8-0.5q0 0.1 0 0.1c1-0.9 1.1-0.9 1.2-0.9-0.1 0.1-0.1 0.1-0.2 0.3q0.9-0.8 1.4-1.1 0 0 0 0c-0.1 0.2-0.4 0.5-2.5 2.4 1.3-1 2.3-1.6 2.5-1.4 0 0.1-0.1 0.3-0.5 0.7 0.7-0.7 1.1-0.9 1.6-1.2 0.4-0.1 0.9 0.1 1.3-0.1-1.8 1.5-1.9 1.8-2 2zm233.6 75.2q0 0 0 0 0 0 0 0 0 0 0 0zm-0.1 0q0-0.1 0-0.1 0 0 0 0.1zm0.1 0q-0.1 0-0.1 0 0 0 0.1 0zm-244.2-71.7q-0.6 0.4-1.1 0.9l0.1-0.1q0.3-0.3 1-0.8zm107.9-24.7c0.5 0 0.9 0 1.5 0-0.5 0-0.8-0.1-1.4-0.2 0.7 0.2 0.7-0.2 0.6-0.6 0.6-0.1 0.9-0.1 1.5-0.1 1.5 0 2.2 0.2 3.1 0.7 0.8 0.3 1.3 0.7 2.8 0.6-0.4 0.3-0.5 0.4 0 0.6 0.4 0.1 0.4 0.1 0.4 0.2q0 0 0 0c-0.2 0.3-0.4 0.5-0.5 0.5-0.3 0.2-1 0.7-2.2 0.4-1.4-0.2-2.5-1-3.8-1.5 0.1-0.3 0.3-0.5 1.2-0.6-1.2 0.1-1.8 0.1-2.5 0.3q0 0.1 0 0.1c-0.3 0-0.6-0.3-0.7-0.4zm47.9 4.6c0-0.1 0-0.2 0.4-0.3 1.2 0 2.2 1 3.4 0.9 0.7 0.1 1.4 0.3 2 0.4q0 0 0.1 0-0.1 0-0.1-0.1 0.1 0 0.1 0c0 0 2.7 0.5 2.9 0.9-0.2 0.1-0.9 0.2-2 0.1-1.6-0.1-3.2-0.7-4.8-0.9-0.5 0-0.9 0-1.4 0 0.1 0 0.1 0 0.2-0.1-0.2-0.4-0.6-0.5-0.8-0.9zm-38.5-2.2c-0.5-0.3-0.3-1.8 1.1-1.9 1 0 2.8 0.6 3.4 1.2q-0.1 0.1-0.2 0.2c-0.6 0.2-1.8 0.7-3.8 0.7q0 0 0 0 0 0 0 0 0 0 0 0 0 0 0 0 0 0 0 0 0 0 0 0 0 0 0 0 0 0 0 0c-0.1 0-0.3 0-0.5-0.2zm49.1 3.3c-0.8-0.3-1.3-0.4-1.4-0.4 0.6-0.3 1-0.3 1.7-0.4 1.4 0 2.6 0.3 4 1.2q0 0.1-0.1 0.1c-0.4 0.8-2.7 0-4.2-0.5zm84.6 50.1c-0.2-0.3-0.5-0.7-0.5-0.8q0 0 0 0c0.2 0.1 0.6 0.6 0.8 0.9q0.1 0.1 0.1 0.2c-0.1 0.1-0.3-0.2-0.4-0.3zm1.6 3.1c0.2 0 0.3 0.1 0.4 0.2q0 0-0.1 0c0 0.1-0.2 0.1-0.3-0.2zm1.8 6.7c-0.5-1-0.5-1.1-0.5-1.1q0 0 0 0.1-0.1-0.5 0.2-0.6c0.1 0 0.1 0 0.2 0q0 0.1 0 0.1c0.5 1.1 0.3 1.4 0.1 1.5zm-1.2-5.9c0.1 0 0.2 0.1 0.3 0.3q0 0 0 0 0 0.1-0.1 0.1c-0.1-0.1-0.3-0.4-0.2-0.4zm-174.8-59.8c0-0.2 0-0.3 0-0.5 0.6 0 0.9 0 1.2 0.1q0 0 0 0c0-0.1 0-0.2 0-0.2 0.3 0.1 0.3 0 0.4 0 0-0.1 0-0.1-0.1-0.2l0.2-0.1c0.9 0.1 1.7-0.3 2.6-0.5-0.1-0.2-0.1-0.2-0.1-0.3 0.1 0 0.2 0 0.8 0.3 0.3 0.1 0.6 0 0.8 0.1q0.1 0 0.1 0.1c-0.1 0.4-1 0.1-1.4 0-0.3 0.2-0.7 0.3-1 0.3 0.6 0 0.9 0.1 1.4 0.2-0.3 0.2-0.6 0.2-1 0.4 0.3 0 0.4 0 0.7 0q-0.1-0.1-0.1-0.1c1.3-0.4 1.7-0.4 1.9-0.4q0 0 0 0 0 0 0 0 0 0 0 0 0 0 0 0 0 0 0 0c0.3-0.1 0.7-0.2 1-0.3-0.5 0-0.6-0.2-0.6-0.2 0.6-0.1 1.2-0.4 1.8-0.4-0.2 0.2-0.3 0.3-0.5 0.4 1-0.1 1.1-0.1 1.4 0.1 0 0.1 0.1 0.1 0 0.4l-0.1 0.2q-0.5 0.1-0.6 0.1c0-0.1 0-0.1 0.3-0.3q0-0.1 0.1-0.2c-3.1 1-3.1 1-3.3 0.4-1.7 0.8-1.7 0.8-2.5 0.4q-0.2 0.1-0.3 0.1c0.1 0.1 0.1 0.1 0.1 0.2-0.1 0-0.4 0.1-0.7 0.1 0 0-0.9-0.2-0.9-0.3-0.1 0-0.1 0-1.6 0.1zm173.6 57.6c-0.3-0.4-0.4-0.6-0.3-0.6q0 0 0 0 0 0 0 0 0 0 0 0 0 0 0 0 0 0 0 0 0 0 0 0 0.1 0 0.2 0.2 0.2 0.3 0.1 0.4zm-178.4-57.9c-0.1 0-0.2-0.1-0.4-0.1q1.7-0.7 3.2-0.7c1.4-0.1 1.5 0.4 1.5 0.7q-0.6 0.1-1.2 0.3 0.1 0 0.1 0c-0.1 0.1-0.3 0.2-0.5 0.2 0.5-0.1 0.9-0.1 1.3 0.1q-0.1 0-0.1 0c-0.2 0.1-0.7 0.2-1 0.3-0.6 0-0.3-0.2-0.2-0.4q-0.2 0.1-0.4 0c0.1 0 0.2-0.1 0.3-0.1-1.3 0.3-1.8 0.3-2-0.1 0.3 0 0.5-0.1 0.8-0.1q0-0.1 0-0.1c0 0 0 0 0.5-0.1-0.8-0.1-1.5 0-1.9 0.1q0 0 0 0zm161.7 320.4c-3.7 2.6-17.7 10.5-18.9 10 0-0.3 0.3-0.6 3-2.2 1.4-0.7 1.4-0.7 6.4-3 3.6-1.5 6.7-3.9 10.1-5.8 0.1-0.1 0.3-0.1 0.5-0.2-0.1 0.3-0.1 0.3-2 1.6 0.7-0.4 1.3-0.7 1.9-1.1-0.3 0.2-0.7 0.5-1 0.7zm11.9-8.6q-0.3 0.3-0.7 0.6 0.8-0.6 1.5-1.1c-3.3 2.8-3.3 2.8-3.5 3.1 0.6-0.2 1-0.8 1.6-1q-0.1 0.1-0.2 0.1c-2.6 2.2-10.5 7.5-11.4 7.6 0.1-0.1 9.5-6.5 12.7-9.3zm28.7-66.7q0 0 0 0 0 0 0 0c-1.3 2-2.3 3.6-2.5 9-0.1 3.1-0.1 3.1-4.5 11.7-1.1 2.2-0.5 4.7-1.3 6.9-0.8 2.5-2 5-2.9 7.5-1.1 2.9-2.8 5.1-3.4 5.9 0.1-0.1 0.2-0.2 0.3-0.3-0.1 0.1-0.3 0.3-0.4 0.4l-0.1 0.1-0.1 0.2c0.1-0.1 0.2-0.2 0.3-0.3q-0.7 0.8-1.4 1.6c0.3-0.3 0.6-0.6 0.8-0.9-4.5 5.6-17.2 19.9-38.4 29.8 0.8-0.9 0.8-0.9 1-1.5-0.1 0-0.3 0-0.5 0 0.7-0.3 0.7-0.3 1.3-0.9-5 1.6-5 1.6-5.4 1.3 0.3-2.9 3.6-3.7 4.4-6.2-0.1 0-0.3-0.1-0.4-0.1q0 0-0.1 0c3.3-2.8 3.3-2.8 3.4-2.9-2.9 2-3.2 2.3-4.3 2.5 2.5-2.1 6.1-2.9 7.7-6.1-2.5 2.2-5.4 3.7-8.1 5.5 3.5-6.1 3.5-6.1 3.5-6.8-3.7-2.7-23.6 4.6-23.8 4.7-3 1.2-7.2 2.8-8.7 1.6 0-0.2 0-0.5 0.1-0.7 1.4-2.6 4.2-4 6-6.3 2.7-3.9 1.6-9.3 4.8-13 0.1 0.2 0.1 0.6 0.1 0.8 0.4-0.4 0.4-0.4 0.7-1.6 0.7-2.5 2.2-8.2 7.2-10.8-0.2 0.3-0.3 0.8-0.3 1.1 3.5-0.3 5.6-3.2 8.6-4.5 2.3-1.1 5-1.3 7.2-2.6 1.4-0.7 2.2-1.3 4.8-4.3 2.6-3.1 3.6-3.7 4.8-4.5-0.4 1.9-0.4 2.5-0.4 3.1 0.4-1 0.4-1 0.8-1.3 0 0.1 0.1 0.2 0.1 0.3 0.6-1.1 0.6-1.4 0.8-2.6q0 0 0 0 0 0 0 0 0 0 0 0 0 0 0 0c2.5-1 7.7-6.2 7.9-6.6 0.4 1.5 2.4 2 2.2 3.7 1.4-0.5 1.6-0.5 2.5 0 1.3-4.9 4.2-7.3 6.3-7.8 0.9-0.3 0.9-0.3 2.9-4 5 3.1 5 3.1 5.6 1.7 0 0.7-0.4 1.2-0.5 1.9 1.1-1 1.1-1 1.4-1.4-5.5 10.1-5.5 10.1-5.3 12 0 0 0.7 6.2 3.8 3.1 5.2-5.2 7-12.6 11.4-18.4q0 0 0.1 0zm-14.3 40.6q0 0.1 0 0.1 0 0 0-0.1zm-33.8-263.5q0 0 0 0 0 0 0 0 0 0 0 0zm-0.1-0.1q0 0 0 0 0 0 0 0zm0 0q0.1 0.1 0.1 0.1 0 0-0.1-0.1zm-241.6 26.6c1.4-1.4 2-2 1.7-2.4 0.6-0.3 0.8-0.6 1.1-1.3 1.5-0.7 2.5-2 4.1-2.5q0.1-0.1 0.2-0.1c0.8 0-0.4 1.5-0.8 2-4 4.9-6.6 6.1-7.1 6.3-2.2 0.9 0.1-1.3 0.8-2zm236.5 260.7q0 0 0-0.1 0 0.1-0.1 0.1 0.1 0 0.1 0zm0-0.1q0 0 0 0 0 0 0 0zm39.4-24q-0.2 0.2-0.3 0.4 0.1-0.2 0.3-0.4zm-14.8 26.5q0.4-0.4 0.8-0.8-0.2 0.3-0.8 0.8zm-28 8.2c-0.4 0.2-2.3 1.4-4.6 3-2.5 1.6-2.7 1.8-4.9 2.2 1.8-1.4 3.3-3 5.2-4.2 1.7-1.1 2.6-1.1 3.1-1.1 0.4 0 0.9 0 1.4 0q-0.1 0.1-0.2 0.1zm-160.9-200c0.3 0 0.5 0.1 0.4 0.2 0 0.1-0.1 0.1-0.7 0 0.1-0.1 0.1-0.1 0.3-0.2zm-46.1-30l0.1-0.1v0.1q0 0-0.1 0zm-26.6-11.1c0.8-0.5 1.1-0.5 1.2-0.6 0.2 0 0.7 0-0.2 1.9-0.7 1.6-2.2 4.1-3 4.6-0.8 0.6 0.2-2.5 0.8-4.3 0.4-1 0.5-1.3 0.5-1.6v-0.1c0 0.4 0 0.5 0.7 0.1zm-21.7 5.8q0 0-0.1 0 0.1 0 0.1 0zm23-8.6q0 0 0 0c-0.1-0.1 1.1-2.2 2.2-3q0.1-0.1 0.2-0.1c-0.1 0.2-0.3 0.7-0.6 1.3-0.9 1.9-1.7 3-2 3.4-0.3-0.4-0.2-0.7 0.2-1.6zm254.2 108c0.4-1.1 0.7-1.7 1.3-2.6l0.2-0.3q0 0 0 0c0.1-0.2 1.9-3 3.5-5.7-0.4 0.5-0.4 0.5-0.6 0.6-0.2-0.3 0.4-1.6 0.7-2.4q0.1-0.1 0.1-0.2c0.3 0.5 0.8 1.3 0.7 2.7-0.2 3.2-3.5 6.6-5.9 7.9zm14.6 26c0.1-0.1 0.3-0.3 0.4-0.5-0.9 0.9-1.1 1.1-3.3 0.8-2.5-0.3-3.7-0.5-5.7 1-1.9 1.3-2.3 2-1.4 2.4 2.3 1.1 4.6-0.2 6.9 0.2q0 0 0 0c-2.1 0.5-3.1 5.8-4.8 3.6 0 2.8 1.3 5.5 0.8 8.3 0.4-0.3 0.7-0.5 1.1-0.6 0 1-0.9 3.9-2 4.4q-0.1-0.1-0.2-0.1c-0.2-1.4 0.3-2.5 0.4-2.8-0.3 0.1-2.2 0.8-1.8-2.7 0.3-2.4 0.3-2.6-0.3-3.4-1.3 1.3-2.7 8.7-2.8 8.8-0.7-0.3-1.4-0.3-2.3 0 0.4-2.7-0.2-5.5 0.6-8.3 0.8-2.7 2.8-4.7 3.7-7.4 0.5-1.4 0.8-2.9 1.4-4.2 0.1-0.3 0.2-0.6 0.4-0.9q0.5-0.7 1.7-1c2.7-0.7 5.5-0.8 8.2-1.4 0.3 0 0.8-0.1 1.1-0.2 0 0.4 0.1 0.8 0 1.2-0.2 0.6-0.2 0.6-2.1 2.8zm9.6 12.6c-0.1-0.2-0.3-0.5-0.4-0.7 0.1 0.1 0.7 0.6 0.3 1.2-0.6 0.9-2.4 0.8-4.1-0.2-0.1 0.1-0.1 0.1-0.1 0.1q0 0 0 0c0 0 0 0 0.1-0.1-0.2-0.1-0.4-0.2-0.5-0.3-1.3-1.1 0.2-1.7 1.2-1.7 0.4 0 2.5 0 3.5 1.7zm-6.4-29.8c-0.6-1-1.8-1.3-2.2-2.5-0.3-1.2 0.4-2.2 0.4-3.4 0-1.5-2.3 0.6-3.2-0.6-0.2 0.3-0.4 0.8-1.3 2 0.5-0.9 0.4-2 0.7-2.9 0.4-1.6 2.8-1.7 3.2-1-0.1 0.1-0.1 0.2-0.2 0.3 2.9-3.2 2.9-3.2 3.3-4.5l-1.8-3.2c-0.6-1.1-0.6-1.1-0.7-1.1q0.1 0 0.2 0c-0.4-1.3-0.4-2.1-0.1-3l0.1 0.2c-0.1-0.5 0-0.6 0.1-0.7 0.3 0.4 0.3 0.4 0.2 0.8q-0.1 0-0.2 0.1c0.3 0.4 0.6 0.3 1 0-1.8-2.6-1.8-2.6-1.7-3.7q0.1 0 0.2 0c-0.2-0.4-0.9-1.7-1.6-2.5-1.3-1.4-1.4-0.1-1.5 0.3 0.2 0.1 0.7 0.5 0.9 1.5-1.1-0.7-1.6-2.2-2.9-2.6 0.3 0.7 0 0.8-0.2 0.9-0.3-0.1-0.7-0.4-0.4-1.1-1.2-0.2-1.7 0-2.2 0.1 1 0.9 2.6 2.6 1.3 4.2-2.2-2.5-2.8-3.1-2.4-4.2 0.2 0 0.4-0.1 0.6-0.1 0.3-2.8 0.3-2.8-0.4-3.3 0.3 0.7 0.2 1-0.3 1.4-1.6-1.2-2.4-4.4-2-6.1 0.2-0.1 0.5-0.2 0.7-0.1-1.3-2.8-0.1-5.8-0.5-8.6-0.1-0.1-0.1-0.2-0.1-0.3l0.1 0.1c1 2.3 4.3 0.8 5.3 3.2 1.3 3.2 0.2 6.5 0.4 9.8 0 0.1 0 0.2 0 0.3 0 0.4 0 0.6 0 0.9q0 0-0.1 0c0.1 1 0.1 1.4 0.2 2.1 0.1-0.2 0.1-0.6 0.3-0.7 0.5-0.4 2.6-0.4 2.9 1.5 0.1-0.6 0.1-0.6 0.4-0.8 0.5 0.1 0.5 0.1 1.6 4.1 1.6-0.2 1.8-0.2 2.4 1.3 0.5 1.2 1.1 3.9-0.7 3.1 0.2 3.9 0.2 3.9 1.1 4.5-0.1-0.2-0.1-0.4-0.1-0.6q0.2-0.6 0.4-1.3c0.2 2.2 0.2 2.2-0.1 2.3q0 0 0 0.1c2.4 3 1.5 10.1 1.5 10.1-0.1 0.6-0.3 1.3-0.4 1.8-0.4-0.3-0.4-0.4-0.5-2.3-0.4 1.5-1.7 2.5-1.7 4.2zm-6.1 21.2q0 0 0 0 0 0 0 0 0 0 0 0zm0 0q0 0 0 0 0 0 0 0zm0 0q-0.1-0.1-0.1-0.1 0 0 0.1 0.1zm-1-41.3c0.1-0.7 0.1-0.8 0.1-1q0-0.1 0-0.1c0.2 0.2 0.2 0.2 0.3 0.2 0.2 0.3 0.4 0.7 1.5 2 0.5 0.5 0.7 0.7 0.6 1.1q0 0.5-0.5 0.9c0 0-1.7 1.6-2.2 0.6-0.3-0.6 0-2.5 0.2-3.7zm-9.3 66.4q0.1-0.1 0.1-0.2c0 0-6.2-0.7-5.7 0.5-1.6-0.2-3.3 0.5-4.9 0.1-1-1.3-1.7-2.1-0.7-2.5 0.2 0 0.8 0.3 1.1 1.4 0.3-0.2 0.8-0.3 1.9-0.3 0.4 0.6 0.7 0.9 1.3 0.5-0.3-0.1-0.4-0.2-0.6-0.5 0.7 0.1 1.4 0.3 2.1 0.2 0.9-0.1 1.7-0.7 2.7-0.9 1.5-0.3 4.3-0.5 6.1 0 0 0 1-0.7 1.7 0.1 0.4-0.1 0.6-0.2 1.3-0.3 0.2 0.1 0.5 0 0.8 0q0 0 0 0 0.1 0 0.1 0.1 0 0-0.1 0c-0.2 0.2-0.3 0.5-0.5 0.7-0.2 0.2-0.5 0.2-0.8 0.2 0.1-0.1 0.1-0.2 0.2-0.3-0.7 0.2-1.2 0.5-1.9 0.7l-0.1 0.1c-0.6-0.3-0.6-0.3-0.8-0.5 0.3 0 0.7-0.1 1-0.2q0.1-0.1 0.1-0.1l-0.9-0.3c-1.2 0.4-2.3 1-3.5 1.5zm-27-3.2q0.1 0 0.1 0c-3.4-0.7-5.5-1.4-8.8-2.9 1.8-0.5 3-1.9 4.7-2.5 2.7-0.4 4.4 2.4 7 2.3 2.3-0.1 4.5-1.1 6.8-0.9 0.2 0 0.4 0.1 0.5 0.1 1.6 0.3 1.8 1.1 2 1.7-0.9 0.6-1.9 1.1-3.2 0.6 0.7 1.1 0.8 1.3 2.9 1.6 3.1 0.5 2.8 1.7 2.6 2.1q-0.1 0.1-0.2 0.2c-0.4 0.4-2.4 1.2-2.4-0.8-0.4 1.4-3.3 0.7-12-1.5q0 0 0 0zm0.3 0c0.1 0 0.3 0 0.4 0q0 0 0 0 0 0 0 0c-0.1-0.1-0.6-0.1-0.6-0.1 0 0 0 0 0.2 0.1zm32 6.6q0 0 0 0c-2.2 1.2-2.8 1.4-3.1 1.5 0.7-1.5 3.8-5.7 8.7-6.8 0.4 0 0.7-0.1 0.6 0.3-0.5 1-4.2 3.9-6.2 5zm-17-20.2c-1.3 0.6-5.4 0.4-5.8-1.5-0.2 0.5-0.8 1.4-1.4 1.4-1.9-0.1-3.5-11.6-3.5-11.7-0.3-3.5 0.5-4.2 2.2-5.9-0.1 1.8 2.1 1.4 3.1 2.2 0-1.7 0.3-2.8 0.9-4.4q0.1 0.1 0.1 0.2c0.7 1.1 5.7-3.1 6.8-6.2 1 0.3 0.6 1.6 1.6 1.8 0.2-1.1 0.5-1.8 1-2.9 0.4 0.5 0.5 0.6 0.6 1.3 1.1-7.3 4.1-7.5 4.1-7.5q0 0.1 0 0.2c0.2-0.2 0.3-0.3 0.6-0.4 0.4 0 2 1 1.1 3.2 0.9-0.1 0.9-0.1 1.2 0-0.1 0.3-0.1 0.3-0.5 0.5 0.4-0.2 1.4-0.7 2-0.6 1.5 0-1.2 3.2-1.6 3.5v0.1c0.1 0.2 0.2 0.4 0.2 0.7 0.1 0.7-0.5 1.9-1.5 1 0.2 0.7 0.2 1.1 0.2 1.2q0 0.1-0.1 0.1-0.1-0.1-0.1-0.1c0.3 1.3-1 1.3-1.4 1.3 1 1.5 1 1.5 1 1.6-0.3-0.1-0.3-0.1-0.7-0.3 2.9 4.2 3.1 6.4 2.7 7.5-0.2 0.4-0.7 1.3-1.9-0.2 0.1 1.1 0.1 1.7-0.5 3.2-1 2.2-2.9 3.7-3.9 5.8-0.8 1.7-0.6 3.7-1.4 5.4-0.3 0.6-0.9 1.3-1.3 1.8 1.5-1.8-0.3-1.2-0.4-1.2-1.2 0.5-4.1 1.6-3.4-1.1zm-3.2-85.7q0 0 0 0c-0.1 0.1-0.1 0.1-0.2 0.2q0.1-0.1 0.2-0.2 0 0 0 0zm15.1-6.6c0.8-1.5 1.1-2 0.9-2.6q0-0.1 0-0.1c0.1 0.2 0.3 0.6 0.4 1.4 0 1.1-0.2 2.4-0.5 3.5-0.4 2.2-0.6 3.4-0.3 4.5-0.6-0.8-0.6-0.8-1.2-1.2q0.1 0 0.1 0c-0.2-0.1-0.2-0.1-0.2-0.2q0.1 0.1 0.2 0.1c-1.2-1.5-0.8-2.9 0.6-5.4zm-0.2 5.8l-0.3-0.3q0 0 0 0.1l0.2 0.2zm0-0.1l-0.1-0.1q0 0 0 0zm0.7 1q0 0 0-0.1 0.4 0.4 0.7 0.8-0.1 0-0.1 0c-0.3-0.2-0.5-0.5-0.6-0.7zm-36.2 95.6q0 0 0 0 0.1 0 0.2 0.2 0 0 0 0c-0.1 0.1-0.2-0.1-0.2-0.2zm-7.9-15.3c-5.9-13.9-10.4-23.2-13.3-23.8q0.2 0 0.5 0c1.9 0 3.4 1 4.1 1.5 2 1.4 3.3 3.6 5.2 5.2 1.5 1.3 3.4 1.9 4.9 3.1 0 0.1 1.9 1.6 1.5 2.9-0.3 0.1-0.3 0.1-0.6-0.1 0.5 0.4 0.8 0.7 1.3 1.3-0.1-0.4 0-0.5 0.2-1 1 0.3 1.4 0.5 1.9 1.4 0.6 1.2 0.3 2.6 0.8 3.9 0.9 2.2 2.4 4.1 3.5 6.1 1.3-0.9 1.3-0.9 4.9 2.6h0.1q0 0 0 0 0.1 0.1 0.1 0.1l-0.1 0.1 0.4 0.3c-0.1 0.1-0.3 0-0.4-0.1-0.3 0.1-0.8 0.7-0.1 1.4-1.9 1-2.3 0.3-4.3-3 0.6 1.6 1.5 4.5 0.5 7.6-0.3 0.8-1.2 1.6-1.9 2.1-0.6 0.4-1.4 0.1-2.1 0.4q0 0 0 0v0.1c0 0.2 0 0.2 0.2 0.7-1.4 0.9-3.2-3.3-7.3-12.8zm43.9-153.5c-0.8-0.6-0.8-0.6-1.1-0.6 0.5 0.8 0.8 1.4 1.4 2.2-0.7-0.6-1.5-1.4-4.7-4.7-3.7-3.9-11.4-12-14.9-14.2q0 0 0 0c-0.7-0.9-1.8-1.2-2.5-2 0.3-0.1 0.3-0.1 0.6-0.2 0.9 0 2 0.7 2.7 1.2 2.3 1.8 4.1 4.1 6.4 5.8 2.2 1.6 5 2.4 7.2 4.2 1.4 1.2 1.7 1.8 2.1 2.7-1.3-0.4-1.4-0.3-1.8-0.3q0 0.1-0.1 0.2c0.2 0.6 0.7 1 2.9 3 2.5 2.3 3 2.9 3.6 3.7-0.2 0.1-0.9-0.4-1.8-1zm-187.9 6.9c0.6 0.3 0.6 0.3 1.2 0-1.7 2.7-1.4 4 2 6.7 2.1 1.8 2.6 2.4 2.8 3.5-2.3-0.4-3.5 3.9-3.3 5.4 0.3 2.3 2.4 3.5 4 4.4 0.5 0.2 0.5 0.3 0.6 0.5q0 0 0 0v0.1c2.4 1.4 4.3-1 6.6-0.7q0 0 0 0c-0.1-8.4-0.1-13.4-3.7-16.9-2.5-2.5-2.6-3.1-2.8-4 0.3-0.4 1-0.7 1.5-0.8-0.6-1.3-0.6-1.3 3.4-2.1-0.6-0.5-0.7-0.6-0.4-2 0.2-1 0.5-2.4-2.5-2.6-3.3-0.1-4.5 3.5-7.3 4.1-0.4 0-0.7-0.1-1-0.5 0 1.7-1.4 3.1-1.1 4.9zm-22.1-6c-0.7 1.2 0.8 1.4 4.6 2.1 0.3-0.9 0.9-2.3 1.9-2 0-0.4 0-0.5-0.5-0.8-0.5-0.2-0.5-0.3-0.5-0.8q1.3 0.2 2.7-0.8c0.1-0.1 0.2-0.2 0.3-0.2-1.8-1-5.3 0.2-7.8 1.9 0.1-0.1 0.1-0.1 0.2-0.2 0 0-0.5 0.4-0.8 0.6 0.1 0 0.2-0.1 0.3-0.2l-0.3 0.3h-0.1zm4.3 14.6c3.1 0.3 4.9-1.8 5.3-2.4 1.7-2.3-1.5-6.2-5.6-8.7-2.9-1.8-5.7 1.5-8.6 0-0.2-0.6-0.2-0.6 2.4-2.9-2.1-1.1-3.6-1.8-5.5-0.8l-0.3-0.3 0.2 0.3c-1.8 1-3 3.1-4.4 5.6-1.7 2.8-2.3 3.3-3.8 4.6 0.6 0.4 0.8 0.5 1.3 1.5 0.4 0.8 1 1.9 1.7 2.1 3.6 0.8 6.1-3.1 9.7-2.3 2.7 0.7 4.7 3 7.6 3.3zm110.4 104.1q0 0.2-0.2 0.3v0.1q-0.1 0-0.1 0c0 0.1 0 0.2 0 0.3 0 0-0.1 0-0.3-0.5 0.2-0.3 0.4-0.4 0.5-0.4 0.1 0 0.1 0.1 0.1 0.2zm147.2 42.7l0.1-0.1-0.1 0.1-0.1 0.4c-0.1 0.4-0.2 0.6-0.6 1v-0.1q0 0 0 0c-0.2-0.1-0.2-0.4-0.1-1.4-2.2 6.2-4.8 4.9-4.9 4.8 0.4-1.9 0.4-1.9 0.5-2.1 0.9-0.9 1.2-0.6 1.8-0.2 0.2 0.1 0.4 0.2 0.7-0.3 0.6-0.7 1-1.6 1.5-2.5 0.1-0.1 0.3-0.2 0.4-0.4 0 0 0.2-3 0.1-3.9-0.2 0.2-0.2 0.2-0.3 0.2 0-0.1 0.1-0.3 0.3-0.4q0 0 0.1 0.1c-0.1-0.4-0.1-0.6-0.1-0.7 0.2-0.4 0.4-0.5 0.6-0.5 0.8-0.1 1 2.8 0.1 5.9q0 0 0-0.1 0 0.1 0 0.2zm-147.8-42.2c0.2 3.6 0.1 6.2-0.3 7.7-1.1 3.8-3.5 0.3-3.5 0.3-1-1.8-0.6-3.9 0-6.3 0.5-2.6 0.8-4.2-0.1-5.6-0.1 0-0.4-0.1-0.5-0.6l0.2 0.1q0 0-0.1-0.1c0.2-0.1 0.3-0.2 0.6-0.2 0.2 0 1.6 0.1 3.2 2.1 0.4 0.5 1 1.5 0.5 2.3-0.1 0-0.1 0 0 0.3zm-2.7-3.7c-0.4-0.4-0.6-0.2-0.6-0.2 0 0-0.1 0.3 0.2 0.3q0.1 0 0.4-0.1 0 0 0 0zm143 48.4c0.1 0.7 0.2 1.5 0.1 2.1-0.3 2.2-1.8 4-2.1 6.2-0.2 2.1 0.7 4.1 0.4 6.2-0.1 0.6-0.2 1.4-0.6 1.8 0 0.1-1.1 1.1-2-1.1-0.8-1.7 0.2-3.6-0.3-5.3-0.2-1.2-1.4-1.7-1.7-2.8-0.3 0.8-0.5 1.1-0.8 1.4v-0.1q0 0.1 0 0.2c-0.3 0.2-0.3 0.2-1.5 0.8q0.1 0 0.1 0 0 0 0.1 0c0.4 0.9-1.8 2.6-2.1 2.7-0.2 0.2-2.8 0.3-1.6-3.3-1.2 0.6-2.6 0.5-3.8 1.1 2.4-4.6 2.9-3.5 3.1-3.1-0.3-7.4-0.3-7.5-1.5-8.6-0.7-0.7-1.9-0.8-2.5-1.7-0.5-0.7-0.5-1.3-0.3-2.4-1.2 2.3-1.4 2.3-1.7 2.3-0.9-1.4 1.1-3.1-0.5-4.4q0 0 0 0c1.1-0.8 2.6-0.7 3.5-1.8-2.4 0.7-3.7-1.5-5.1-4 0.2-0.5 0.3-0.5 0.5-0.6 0.2 0.1 0.6 0.4 0.4 1.5 1.2-1.4 2.2-1.9 3.2-2.2 2.5-0.3 2.3 1.4 1.9 5.1q0.1-0.1 0.1-0.2c0 0.1-0.7 4.1 0.5 3.9 3.2-0.5 3.6-5 7-5 4.1-0.1 7.2 11.2 7.2 11.3zm-19.2-8q0 0 0 0 0 0-0.1 0.1 0.1-0.1 0.1-0.1zm-15.6 86.4c-1.6 1.4-3.1 2.8-4.6 4.2 0.1-0.1 0.2-0.1 0.2-0.2-0.2 0.1-0.3 0.3-0.5 0.4 1.5-1.3 2.9-2.8 4.5-4.1 0.1-0.1 0.3-0.2 0.4-0.3zm3.7-84.5c0-0.2 0.1-0.7 0.7-0.9 0.8 0 1.6 0.5 1.7 1.2q0 0 0 0 0.1 0.2 0 0.4c-0.3 0.7-1.3 1.1-1.9 0.7-0.6-0.3-0.5-1.1-0.5-1.4zm-10.4-73v-0.1q0 0 0 0 0 0 0 0.1zm0-0.1q0 0 0-0.1zm6.3 39.5q0.2-0.1 0.4-0.3-0.1 0-0.1 0 0 0.1-0.3 0.3zm0 0q0 0 0 0 0 0 0 0zm-0.3-17q0 0 0 0 0 0 0 0zm2.7 3.1c0 0 0.9-0.1 0.8 1.8-0.1 0.6-0.3 1.9-0.3 1.9-0.4 0.8-1.3 2.2-1.7 2.2-0.8-0.1 0.3-5.2 1.2-5.9zm0-3.3c0.5-1.1 0.7-1.8 0.7-2.3q0 0 0-0.1c0.7 0.6 1.3 1.8 1.2 2.8 0 0.3-0.1 0.5-0.1 0.6-0.5-1.2-1.2-1.4-2-0.5q0 0 0 0 0-0.1 0-0.3c0-0.3 0-0.3 0.1-0.4 0 0 0 0.1 0.1 0.2zm0.1-0.1l0.1-0.1zm-8.9-22.3q0 0 0 0 0 0 0 0zm18.9 57.4c-0.8 2.4-0.8 3.1-0.5 4.4-0.1 0-2.4-0.1-1.6 3.6-0.2 0-0.5 0-0.8-1.5-0.1-0.7-0.3-3.8-0.2-4.2 0.1 0.1 0.1 0.1 0.1 0.2 0.3-2.9 1-3.8 1.6-4.3q0.1-0.1 0.2-0.1c-0.3 0.3-0.3 0.3-0.4 1-0.2 0.9-0.1 1.9-0.2 2.8q0.2-0.3 0.4-0.6c0-0.3 0.9-1.4 1.4-1.3zm-117.6-22.9c0-0.1-0.1-0.2-0.1-0.3q0.2 0.5 0.4 1 0-0.1-0.1-0.1-0.1-0.3-0.2-0.6zm-79.1 73.9l-0.1-0.3q0 0 0.1 0.1c-0.3-0.5-0.3-0.5-0.5-0.6-0.1 0.3-0.1 0.3-0.2 3.4-0.3-0.5-0.4-0.6-0.5-1.2-0.9 2-0.9 3-0.3 8.3 0.8 6.5-0.4 19.2-4.1 19.5-1.4 0.1-3.9-1.8-4.8-4.8-0.9-2.9-2-17.8-2-17.9 0.1-2 2.1-2.5 3.1-3.9 0.3-0.4 0.4-0.9 0.7-1.3 0.1-0.2 0.4-0.5 0.6-0.6 1.4-1.6 1.6-3.7 2.7-5.5 0.6-1 0.9-2.3 1.8-3.1 1.1-0.3 2 2.3 2.6 4.6 0.4 1.8 0.6 2.4 0.9 3.3zm-0.3-0.8c0-0.1-0.1-0.2-0.1-0.4q0 0.1 0 0.2 0.1 0.1 0.1 0.2zm178.1-107.6q0 0 0 0 0 0 0 0v0.1zm-21.4 85.2q0 0 0 0 0 0 0 0zm-38.7-41q0 0 0 0 0 0 0 0 0 0 0 0zm22.8 13.9q0 0 0 0 0 0 0 0 0 0 0 0zm0 0q0 0 0 0 0 0 0 0z"/></svg>